<?xml version="1.0" standalone="no"?>
<!DOCTYPE svg PUBLIC "-//W3C//DTD SVG 1.1//EN" "http://www.w3.org/Graphics/SVG/1.1/DTD/svg11.dtd" >
<svg>
<metadata>
Created by FontForge 20051205 at Wed Sep  1 17:53:12 2010
 By daemon
Copyright (c) 1988, 1990, 1993 Adobe Systems Incorporated.  All Rights Reserved.Helvetica is a trademark of Linotype-Hell AG and/or its subsidiaries.
</metadata>
<defs>
<font id="Helvetica35-Thin" horiz-adv-x="556" >
  <font-face 
    font-family="Helvetica35-Thin"
    font-weight="100"
    font-stretch="normal"
    units-per-em="1000"
    panose-1="2 11 2 0 0 0 0 0 0 0"
    ascent="800"
    descent="-200"
    x-height="514"
    cap-height="714"
    bbox="-61 -214 1041 927"
    underline-thickness="50"
    underline-position="-75"
    unicode-range="U+0020-U+2122"
  />
<missing-glyph horiz-adv-x="1000" 
d="M-1 0h500v500h-500v-500zM9 10v480h480v-480h-480z" />
    <glyph glyph-name="ellipsis" unicode="&#x2e;&#x2e;&#x2e;" horiz-adv-x="1000" 
d="M141 0h51v103h-51v-103zM474 0h51v103h-51v-103zM807 0h51v103h-51v-103z" />
    <glyph glyph-name="trademark" unicode="TM" horiz-adv-x="990" 
d="M404 714h-319v-33h144v-379h32v379h143v33zM542 714h-59v-412h32v379h3l167 -379h18l167 379h3v-379h32v412h-59l-152 -346z" />
    <glyph glyph-name="space" unicode=" " horiz-adv-x="278" 
 />
    <glyph glyph-name="exclam" unicode="!" horiz-adv-x="259" 
d="M106 714v-241l12 -290h24l12 290v241h-48zM155 0v103h-51v-103h51z" />
    <glyph glyph-name="quotedbl" unicode="&#x22;" horiz-adv-x="315" 
d="M80 485h38v229h-38v-229zM197 485h38v229h-38v-229z" />
    <glyph glyph-name="numbersign" unicode="#" 
d="M414 690l-31 -220h-169l31 220h-33l-31 -220h-123v-33h118l-24 -173h-122v-33h117l-32 -231h33l32 231h169l-32 -231h33l32 231h116v33h-111l24 173h115v33h-110l31 220h-33zM209 437h169l-24 -173h-169z" />
    <glyph glyph-name="dollar" unicode="$" 
d="M290 347l61 -15c52 -12.6667 90 -31.1667 114 -55.5c24 -24.3333 36 -55.5 36 -93.5c0 -28 -5.5 -52.3333 -16.5 -73c-11 -20.6667 -26.5 -37.6667 -46.5 -51c-37.3333 -25.3333 -86.6667 -38 -148 -38v326zM258 393l-41 9c-22.6667 5.33334 -42.5 11.1667 -59.5 17.5
c-17 6.33334 -31.8333 14.5 -44.5 24.5s-22.6667 23 -30 39s-11 35.3333 -11 58c0 44.6667 15 80.5 45 107.5s77 41.8333 141 44.5v-300zM258 -105h32v88c32.6667 0.666672 63.8333 4.66667 93.5 12c29.6667 7.33333 56.1667 19 79.5 35s41.8333 36.6667 55.5 62
c13.6667 25.3333 20.5 55.6667 20.5 91c0 44.6667 -13 82.3333 -39 113s-70 53.6667 -132 69l-78 19v310c60 -1.33331 106.333 -16.3333 139 -45s51 -74.6667 55 -138h38c-2.66669 73.3333 -24 128 -64 164c-40 36 -96 54.6667 -168 56v49h-32v-49
c-48.6667 -1.33331 -88.5 -9.33331 -119.5 -24s-53.8333 -32.3334 -68.5 -53c-14.6667 -20.6667 -24.3333 -40.6667 -29 -60c-4.66667 -19.3333 -7 -37 -7 -53c0 -29.3333 5 -54.1667 15 -74.5c10 -20.3333 23.3333 -37 40 -50s35 -23.3333 55 -31s42.3333 -14.5 67 -20.5
l47 -11v-333c-68 4 -119.667 24.8333 -155 62.5c-35.3333 37.6667 -53 88.1667 -53 151.5h-38c0 -42 5.83333 -78.3333 17.5 -109c11.6667 -30.6667 28.1667 -56 49.5 -76s47 -35.3333 77 -46s64 -17.6667 102 -21v-88z" />
    <glyph glyph-name="percent" unicode="%" horiz-adv-x="778" 
d="M138 -24h40l465 738h-40zM572 -12c49.3333 0 89.3333 17.3333 120 52s46 76.3333 46 125c0 52.6667 -14.6667 95.6667 -44 129c-29.3333 33.3333 -69.6666 50 -121 50c-50.6667 0 -91.1667 -17.1667 -121.5 -51.5c-30.3333 -34.3333 -45.5 -76.8333 -45.5 -127.5
c0 -50 15.3333 -92 46 -126s70.6666 -51 120 -51zM571 21c-37.3333 0 -67.8333 14.3333 -91.5 43c-23.6667 28.6667 -35.5 62.3333 -35.5 101c0 40.6667 11.3333 75.1667 34 103.5c22.6667 28.3333 54 42.5 94 42.5s71.3333 -14 94 -42s34 -62.6667 34 -104
c0 -38.6667 -11.8333 -72.3333 -35.5 -101s-54.8334 -43 -93.5 -43zM206 346c49.3333 0 89.3333 17.3333 120 52c30.6667 34.6667 46 76.3333 46 125c0 52.6667 -14.6667 95.6667 -44 129s-69.6667 50 -121 50c-50.6667 0 -91.1667 -17.1667 -121.5 -51.5
c-30.3333 -34.3333 -45.5 -76.8333 -45.5 -127.5c0 -50 15.3333 -92 46 -126c30.6667 -34 70.6667 -51 120 -51zM205 379c-37.3333 0 -67.8333 14.3333 -91.5 43c-23.6667 28.6667 -35.5 62.3333 -35.5 101c0 40.6667 11.3333 75.1667 34 103.5
c22.6667 28.3333 54 42.5 94 42.5s71.3333 -14 94 -42s34 -62.6667 34 -104c0 -38.6667 -11.8333 -72.3333 -35.5 -101c-23.6667 -28.6667 -54.8333 -43 -93.5 -43z" />
    <glyph glyph-name="ampersand" unicode="&#x26;" horiz-adv-x="593" 
d="M262 412c-5.33334 8 -15 20.6667 -29 38c-20.6667 25.3333 -36.3333 47.5 -47 66.5c-10.6667 19 -16 39.8333 -16 62.5c0 26 11.5 47.5 34.5 64.5s48.8333 25.5 77.5 25.5c29.3333 0 55.3333 -8.5 78 -25.5s34 -38.5 34 -64.5c0 -19.3333 -3.66666 -37 -11 -53
s-17.1667 -30.5 -29.5 -43.5c-12.3333 -13 -25.1667 -24.3333 -38.5 -34c-13.3333 -9.66666 -30 -21.1667 -50 -34.5zM433 137c0 -3.33333 -4.16666 -11.1667 -12.5 -23.5s-20 -25.6667 -35 -40c-15 -14.3333 -33.6667 -26.6667 -56 -37
c-22.3333 -10.3333 -47.1667 -15.5 -74.5 -15.5c-22 0 -43.3333 3.33333 -64 10c-20.6667 6.66666 -39.3333 16.5 -56 29.5s-29.8333 28.8333 -39.5 47.5c-9.66666 18.6667 -14.5 39.3333 -14.5 62c0 21.3333 4 40.8333 12 58.5s18.6667 33.5 32 47.5
c13.3333 14 27.3333 26.1667 42 36.5s34 23.1667 58 38.5l24 15zM545 0h51l-116 143c21.3333 48 33.3334 98.3333 36 151h-38c0 -37.3333 -8 -77 -24 -119l-170 209c5.33334 4 13.3333 9.66666 24 17c20.6667 14.6667 37.5 27.3333 50.5 38
c13 10.6667 25.1667 22.6667 36.5 36s20.3333 28.6667 27 46s10 36.6666 10 58c0 38 -14.6667 68 -44 90s-64.6667 33 -106 33c-18.6667 0 -37 -3 -55 -9c-18 -6 -34 -14.3333 -48 -25c-31.3333 -24 -47 -53.6667 -47 -89c0 -29.3333 6.83333 -56.1666 20.5 -80.5
c13.6667 -24.3333 34.1667 -52.8333 61.5 -85.5c0.666672 -0.666656 5.66667 -7 15 -19c-2.66667 -2 -9 -6 -19 -12c-26 -16 -47.6667 -30.1667 -65 -42.5c-17.3333 -12.3333 -34 -26.8333 -50 -43.5s-28.6667 -35.3333 -38 -56c-9.33334 -20.6667 -14 -44 -14 -70
c0 -58 19.8333 -102.833 59.5 -134.5c39.6667 -31.6667 90.5 -47.5 152.5 -47.5c42.6667 0 81.6667 10.5 117 31.5s64 49.8333 86 86.5z" />
    <glyph glyph-name="quotesingle" unicode="'" horiz-adv-x="204" 
d="M83 485h38v229h-38v-229z" />
    <glyph glyph-name="parenleft" unicode="(" horiz-adv-x="241" 
d="M228 -184c-41.3333 67.3333 -72.5 139.333 -93.5 216s-31.5 154.667 -31.5 234c0 81.3333 11 161.5 33 240.5s53.6667 153.833 95 224.5h-35c-41.3333 -70.6667 -73.5 -145.833 -96.5 -225.5c-23 -79.6667 -34.5 -159.5 -34.5 -239.5c0 -78 11.1667 -155.667 33.5 -233
s54.1667 -149.667 95.5 -217h34z" />
    <glyph glyph-name="parenright" unicode=")" horiz-adv-x="241" 
d="M13 731c41.3333 -67.3333 72.5 -139.333 93.5 -216c21 -76.6667 31.5 -154.667 31.5 -234c0 -81.3333 -10.8333 -161.5 -32.5 -240.5s-53.5 -153.833 -95.5 -224.5h35c41.3333 70.6667 73.5 146 96.5 226s34.5 159.667 34.5 239c0 78 -11.1667 155.667 -33.5 233
c-22.3333 77.3333 -54.1667 149.667 -95.5 217h-34z" />
    <glyph glyph-name="asterisk" unicode="*" horiz-adv-x="352" 
d="M161 714v-130l-123 41l-9 -28l124 -41l-81 -102l24 -20l80 106l77 -106l22 20l-76 102l123 41l-10 28l-122 -41v130h-29z" />
    <glyph glyph-name="plus" unicode="+" horiz-adv-x="600" 
d="M281 271h-233v-38h233v-233h38v233h233v38h-233v233h-38v-233z" />
    <glyph glyph-name="comma" unicode="," horiz-adv-x="278" 
d="M100 -126c22.6667 8 39 23.5 49 46.5s15 49.5 15 79.5v103h-51v-103h21c0 -19.3333 -2.5 -38.1667 -7.5 -56.5s-13.8333 -30.5 -26.5 -36.5v-33z" />
    <glyph glyph-name="hyphen" unicode="-" horiz-adv-x="352" 
d="M283 253v38h-214v-38h214z" />
    <glyph glyph-name="period" unicode="." horiz-adv-x="278" 
d="M164 0v103h-51v-103h51z" />
    <glyph glyph-name="slash" unicode="/" horiz-adv-x="333" 
d="M28 -17l318 748h-41l-318 -748h41z" />
    <glyph glyph-name="zero" unicode="0" 
d="M278 -12c47.3333 0 87.5 10.3333 120.5 31c33 20.6667 58.8333 48.1667 77.5 82.5c18.6667 34.3333 32 72.1667 40 113.5s12 84.6667 12 130c0 45.3333 -4 88.6667 -12 130s-21.3333 79.3333 -40 114s-44.5 62.1667 -77.5 82.5s-73.1667 30.5 -120.5 30.5
c-47.3333 0 -87.5 -10.3333 -120.5 -31s-58.8333 -48 -77.5 -82s-32 -71.8333 -40 -113.5c-8 -41.6667 -12 -85.1667 -12 -130.5s4 -88.6667 12 -130c8 -41.3333 21.5 -79.1667 40.5 -113.5c19 -34.3333 44.8333 -61.8333 77.5 -82.5c32.6667 -20.6667 72.6667 -31 120 -31z
M278 21c-40.6667 0 -75.1667 9.83333 -103.5 29.5c-28.3333 19.6667 -50.3333 45.3333 -66 77c-15.6667 31.6667 -26.6667 66 -33 103s-9.5 75.1667 -9.5 114.5s3.16666 77.5 9.5 114.5s17.3333 71.3333 33 103s37.6667 57.3334 66 77
c28.3333 19.6667 62.8333 29.5 103.5 29.5c40.6667 0 75.1667 -9.83331 103.5 -29.5s50.3333 -45.3334 66 -77c15.6667 -31.6667 26.6667 -66 33 -103c6.33334 -37 9.5 -75.1667 9.5 -114.5s-3.16666 -77.5 -9.5 -114.5s-17.3333 -71.3333 -33 -103
c-15.6667 -31.6667 -37.6667 -57.3333 -66 -77s-62.8333 -29.5 -103.5 -29.5z" />
    <glyph glyph-name="one" unicode="1" 
d="M331 690h-34c-20.6667 -34.6667 -47.3333 -63.3334 -80 -86c-32.6667 -22.6667 -69 -37 -109 -43v-33c35.3333 3.33331 69 12.5 101 27.5s60 35.1667 84 60.5v-616h38v690z" />
    <glyph glyph-name="two" unicode="2" 
d="M94 38c2.66666 35.3333 23 70.6667 61 106c15.3333 14 32.3333 27.8333 51 41.5s43.6667 30.8333 75 51.5l20 13c29.3333 20 54.8333 38.6667 76.5 56s41.5 36.5 59.5 57.5s32.1667 44 42.5 69s15.5 51.8333 15.5 80.5c0 60.6667 -20.1667 107.333 -60.5 140
c-40.3333 32.6667 -91.5 49 -153.5 49c-137.333 0 -210 -81.6667 -218 -245h38c0 62.6667 15.8333 113.667 47.5 153c31.6667 39.3333 77.8333 59 138.5 59c46.6667 0 86.6667 -14.3333 120 -43s50 -66 50 -112c0 -26.6667 -5.16666 -51.3333 -15.5 -74
c-10.3333 -22.6667 -24.1667 -43.3333 -41.5 -62c-17.3333 -18.6667 -36.5 -35.8333 -57.5 -51.5c-21 -15.6667 -47.1667 -33.8333 -78.5 -54.5l-7 -5c-32.6667 -21.3333 -59.8333 -40.3333 -81.5 -57c-21.6667 -16.6667 -42.1667 -35.3333 -61.5 -56
c-19.3333 -20.6667 -35 -43.8333 -47 -69.5s-19 -53.8333 -21 -84.5h460v38h-412z" />
    <glyph glyph-name="three" unicode="3" 
d="M36 228c0 -78.6667 21.1667 -138.333 63.5 -179c42.3333 -40.6667 100.833 -61 175.5 -61c68 0 124.333 17.5 169 52.5s67 85.1667 67 150.5c0 47.3333 -13.6667 87.3333 -41 120c-27.3333 32.6667 -64 51.6667 -110 57v2c40.6667 5.33334 73.3333 22.6667 98 52
c24.6667 29.3333 37 64.6667 37 106c0 30 -6 56 -18 78s-28.3333 40.1667 -49 54.5s-44.1667 24.8333 -70.5 31.5s-53.8333 10 -82.5 10c-68 0 -121.833 -21.1667 -161.5 -63.5s-59.8333 -97.8333 -60.5 -166.5h38c2.66666 60 19.5 107.833 50.5 143.5s75.5 53.5 133.5 53.5
c21.3333 0 42.8333 -2.83331 64.5 -8.5s41.3333 -14.3334 59 -26c17.6667 -11.6667 31.8333 -26.5 42.5 -44.5c10.6667 -18 16 -38.6667 16 -62c0 -27.3333 -5.66666 -50.3333 -17 -69s-27 -33.6667 -47 -45s-42.6667 -19.3333 -68 -24s-53.3333 -7 -84 -7v-33
c3.33333 0 8.33333 0.333344 15 1h15c27.3333 0 53 -2.83334 77 -8.5s45.5 -14.8333 64.5 -27.5c19 -12.6667 33.8333 -29.1667 44.5 -49.5c10.6667 -20.3333 16 -45.1667 16 -74.5c0 -52.6667 -19.5 -94.1667 -58.5 -124.5c-39 -30.3333 -85.5 -45.5 -139.5 -45.5
c-62 0 -111 18.1667 -147 54.5c-36 36.3333 -54 87.1667 -54 152.5h-38z" />
    <glyph glyph-name="four" unicode="4" 
d="M365 690l-336 -476v-38h336v-176h38v176h116v33h-116v481h-38zM365 209h-298l296 429h2v-429z" />
    <glyph glyph-name="five" unicode="5" 
d="M58 333h39c22.6667 32.6667 48.1667 57 76.5 73c28.3333 16 61.8333 24 100.5 24c28 0 54 -5.16666 78 -15.5s44.8333 -24.8333 62.5 -43.5s31.3333 -40.3333 41 -65c9.66666 -24.6667 14.5 -50.6667 14.5 -78c0 -28 -4.66666 -54.6667 -14 -80
c-9.33334 -25.3333 -22.8333 -47.5 -40.5 -66.5s-38.5 -33.8333 -62.5 -44.5c-24 -10.6667 -50.3333 -16 -79 -16c-56.6667 0 -104 17.5 -142 52.5s-57 80.8333 -57 137.5h-38v-8c-0.666672 -3.33333 -1 -5.66666 -1 -7c0 -32 6.33333 -60.8333 19 -86.5
c12.6667 -25.6667 30 -47.5 52 -65.5s47.3333 -31.8333 76 -41.5s59 -14.5 91 -14.5c34 0 65.5 6 94.5 18s53.8333 28.8333 74.5 50.5s36.6667 47.1667 48 76.5c11.3333 29.3333 17 61 17 95s-5.66666 65.3333 -17 94s-27.5 53.6667 -48.5 75s-45.8333 37.6667 -74.5 49
c-28.6667 11.3333 -60 17 -94 17c-35.3333 0 -67.6667 -7 -97 -21c-29.3333 -14 -54 -34.6667 -74 -62l-2 2l59 275h319v33h-349z" />
    <glyph glyph-name="six" unicode="6" 
d="M288 21c-26.6667 0 -51.8333 5 -75.5 15s-44.5 24 -62.5 42s-32 39.1667 -42 63.5c-10 24.3333 -15 50.5 -15 78.5s4.83334 54.3333 14.5 79s23.1667 46.3333 40.5 65c17.3333 18.6667 38 33.1667 62 43.5s50 15.5 78 15.5c27.3333 0 52.8333 -5.33334 76.5 -16
s44.3333 -25.5 62 -44.5c17.6667 -19 31.1667 -40.8333 40.5 -65.5s14 -50.3333 14 -77s-4.83334 -52.1667 -14.5 -76.5c-9.66666 -24.3333 -23.1667 -45.6667 -40.5 -64c-17.3333 -18.3333 -37.8333 -32.6667 -61.5 -43s-49.1667 -15.5 -76.5 -15.5zM507 520
c-6.66666 57.3333 -29 102 -67 134s-86 48 -144 48c-50.6667 0 -92.8333 -11.6667 -126.5 -35c-33.6667 -23.3333 -59.6667 -54.1666 -78 -92.5c-18.3333 -38.3333 -31.1667 -79.6667 -38.5 -124c-7.33334 -44.3333 -11 -90.8333 -11 -139.5
c0 -44.6667 4 -86.1667 12 -124.5c8 -38.3333 21.3333 -72.3333 40 -102c18.6667 -29.6667 44 -53.1667 76 -70.5c32 -17.3333 71.3333 -26 118 -26c32.6667 0 63.1667 5.66667 91.5 17s53 27.6667 74 49s37.1667 46.1667 48.5 74.5c11.3333 28.3333 17 58.8333 17 91.5
c0 33.3333 -5.66669 64.5 -17 93.5c-11.3333 29 -27.3333 54.1667 -48 75.5s-45.1667 37.8333 -73.5 49.5s-59.1667 17.5 -92.5 17.5c-46 0 -88.1667 -13.6667 -126.5 -41s-64.8333 -63 -79.5 -107l-2 2c0 40.6667 2.66666 81 8 121s15.6667 78.1667 31 114.5
c15.3333 36.3333 37.5 66 66.5 89s65.8333 34.5 110.5 34.5c45.3333 0 83.6667 -13.6667 115 -41c31.3333 -27.3333 50.6667 -63.3333 58 -108h38z" />
    <glyph glyph-name="seven" unicode="7" 
d="M56 657h407c-56.6667 -61.3333 -104.167 -120.833 -142.5 -178.5c-38.3333 -57.6667 -68.5 -113.333 -90.5 -167c-22 -53.6667 -38.1667 -105.167 -48.5 -154.5c-10.3333 -49.3333 -17.5 -101.667 -21.5 -157h44c8 81.3333 21.1667 154.333 39.5 219
c18.3333 64.6667 40.3333 121.833 66 171.5c25.6667 49.6667 53.6667 94.1667 84 133.5c30.3333 39.3333 66.1667 82 107.5 128v38h-445v-33z" />
    <glyph glyph-name="eight" unicode="8" 
d="M479 198c0 -57.3333 -19.1667 -101.167 -57.5 -131.5s-86.1667 -45.5 -143.5 -45.5c-57.3333 0 -105.167 15.1667 -143.5 45.5c-38.3333 30.3333 -57.5 74.1667 -57.5 131.5c0 28 5.16666 52.1667 15.5 72.5c10.3333 20.3333 25.1667 37.5 44.5 51.5
c35.3333 24.6667 82.3333 37 141 37c58.6667 0 105.667 -12.3333 141 -37c19.3333 -13.3333 34.1667 -30.3333 44.5 -51c10.3333 -20.6667 15.5 -45 15.5 -73zM65 529c0 -39.3333 10.8333 -72.3333 32.5 -99s53.1667 -44 94.5 -52v-2
c-46.6667 -5.33334 -83.8333 -24 -111.5 -56s-41.5 -72.6667 -41.5 -122c0 -68 22.3333 -120 67 -156c44.6667 -36 102 -54 172 -54s127.333 18 172 54s67 88 67 156c0 49.3333 -13.6667 90 -41 122s-64.6667 50.6667 -112 56v2c41.3333 8 72.8333 25.3333 94.5 52
s32.5 59.6667 32.5 99c0 31.3333 -5.83334 58.1666 -17.5 80.5c-11.6667 22.3333 -27.5 40.3333 -47.5 54s-42.6667 23.5 -68 29.5s-52 9 -80 9s-54.6667 -3 -80 -9s-48 -15.8333 -68 -29.5s-35.8333 -31.6667 -47.5 -54s-17.5 -49.1666 -17.5 -80.5zM453 529
c0 -23.3333 -4.66666 -43.8333 -14 -61.5s-22.3333 -32 -39 -43s-35.3333 -19.1667 -56 -24.5c-20.6667 -5.33334 -42.6667 -8 -66 -8c-23.3333 0 -45.3333 2.66666 -66 8s-39.3333 13.5 -56 24.5c-16.6667 11 -29.6667 25.3333 -39 43
c-9.33334 17.6667 -14 38.1667 -14 61.5c0 25.3333 4.66666 47 14 65s22.1667 32.5 38.5 43.5s34.8333 19 55.5 24s43 7.5 67 7.5s46.3333 -2.5 67 -7.5s39.1667 -13 55.5 -24s29.1667 -25.5 38.5 -43.5c9.33334 -18 14 -39.6667 14 -65z" />
    <glyph glyph-name="nine" unicode="9" 
d="M279 267c-27.3333 0 -52.8333 5.33334 -76.5 16s-44.3333 25.5 -62 44.5s-31.5 40.8333 -41.5 65.5s-15 50.3333 -15 77c0 26.6667 4.83334 52.1666 14.5 76.5c9.66666 24.3333 23.5 45.6666 41.5 64c18 18.3333 39 32.6666 63 43c24 10.3333 49.3333 15.5 76 15.5
c27.3333 0 52.8333 -5 76.5 -15s44.5 -24.3333 62.5 -43s31.8333 -40 41.5 -64s14.5 -49.6667 14.5 -77s-4.83334 -53.5 -14.5 -78.5s-23.1667 -46.8333 -40.5 -65.5s-38 -33.1667 -62 -43.5s-50 -15.5 -78 -15.5zM55 170c6.66666 -57.3333 29 -102 67 -134s86 -48 144 -48
c50.6667 0 92.8333 11.6667 126.5 35c33.6667 23.3333 59.8333 54.1667 78.5 92.5c18.6667 38.3333 31.5 79.6667 38.5 124s10.5 90.8333 10.5 139.5c0 65.3333 -7.16669 119.667 -21.5 163c-14.3333 43.3333 -33.1667 76.5 -56.5 99.5
c-23.3333 23 -48.8333 38.8333 -76.5 47.5s-56.5 13 -86.5 13c-33.3333 0 -64.1667 -5.66669 -92.5 -17c-28.3333 -11.3333 -53.1667 -27.3333 -74.5 -48s-37.6667 -45.3334 -49 -74c-11.3333 -28.6667 -17 -59.6667 -17 -93c0 -34 5.66666 -65.5 17 -94.5
s27.3333 -54.1667 48 -75.5c20.6667 -21.3333 45.3333 -37.6667 74 -49c28.6667 -11.3333 60 -17 94 -17c50.6667 0 93 13 127 39s58.6667 59.6667 74 101l2 -2c0 -37.3333 -2.66666 -75.3333 -8 -114c-5.33334 -38.6667 -15.5 -76.1667 -30.5 -112.5
s-37.1667 -66.1667 -66.5 -89.5s-66.3333 -35 -111 -35c-45.3333 0 -83.6667 13.6667 -115 41s-50.6667 63.3333 -58 108h-38z" />
    <glyph glyph-name="colon" unicode=":" horiz-adv-x="278" 
d="M113 514v-103h51v103h-51zM164 0v103h-51v-103h51z" />
    <glyph glyph-name="semicolon" unicode=";" horiz-adv-x="278" 
d="M100 -126c22.6667 8 39 23.5 49 46.5s15 49.5 15 79.5v103h-51v-103h21c0 -19.3333 -2.5 -38.1667 -7.5 -56.5s-13.8333 -30.5 -26.5 -36.5v-33zM113 514v-103h51v103h-51z" />
    <glyph glyph-name="less" unicode="&#x3c;" horiz-adv-x="600" 
d="M554 514l-508 -234v-52l508 -236v42l-475 220l475 218v42z" />
    <glyph glyph-name="equal" unicode="=" horiz-adv-x="600" 
d="M552 369h-504v-38h504v38zM552 175h-504v-38h504v38z" />
    <glyph glyph-name="greater" unicode="&#x3e;" horiz-adv-x="600" 
d="M46 -8l508 234v52l-508 236v-42l475 -220l-475 -218v-42z" />
    <glyph glyph-name="question" unicode="?" horiz-adv-x="519" 
d="M81 493c0 59.3333 15.6667 107.5 47 144.5c31.3333 37 76 55.5 134 55.5c45.3333 0 83.5 -11.8333 114.5 -35.5s46.5 -58.8334 46.5 -105.5c0 -31.3333 -8.5 -59.3333 -25.5 -84c-17 -24.6667 -41.5 -52 -73.5 -82c-28 -27.3333 -49.6667 -56.1667 -65 -86.5
c-15.3333 -30.3333 -23 -69.8333 -23 -118.5h38c0 27.3333 2.83334 51.5 8.5 72.5s13 39.1667 22 54.5s18.5 28 28.5 38s22.6667 21.6667 38 35l1 1l4 4c29.3333 28 50.8333 53.3333 64.5 76s20.5 52.6666 20.5 90c0 58 -18.5 102.333 -55.5 133s-83.8333 46 -140.5 46
c-70.6667 0 -125.333 -21.5 -164 -64.5s-58 -100.833 -58 -173.5h38zM231 0h51v103h-51v-103z" />
    <glyph glyph-name="at" unicode="@" horiz-adv-x="800" 
d="M425 547c20 0 36.1667 -4 48.5 -12s21.6667 -18.1667 28 -30.5c6.33334 -12.3333 10.5 -25 12.5 -38s3 -25.5 3 -37.5c0 -26.6667 -6.16666 -57.5 -18.5 -92.5s-27.8333 -65.8333 -46.5 -92.5c-16.6667 -23.3333 -35.5 -42.3333 -56.5 -57s-40.8333 -22 -59.5 -22
c-29.3333 0 -53.8333 11.1667 -73.5 33.5c-19.6667 22.3333 -29.5 51.8333 -29.5 88.5c0 26.6667 4.83333 55.1667 14.5 85.5c9.66666 30.3333 23.1667 58.8333 40.5 85.5s37.6667 48.1667 61 64.5c23.3333 16.3333 48.6667 24.5 76 24.5zM609 560h-41l-23 -71h-2
c-4 25.3333 -16 46.8333 -36 64.5s-45.3333 26.5 -76 26.5c-33.3333 0 -64.5 -8.66669 -93.5 -26s-54.1667 -40.6666 -75.5 -70c-21.3333 -29.3333 -37.8333 -61.6667 -49.5 -97c-11.6667 -35.3333 -17.5 -70.3333 -17.5 -105c0 -41.3333 12 -76.6667 36 -106
c24 -29.3333 54.6667 -44 92 -44c27.3333 0 52.5 6.16667 75.5 18.5s42.5 29.8333 58.5 52.5h2c0.666656 -22.6667 7.16666 -40.1667 19.5 -52.5s27.8333 -18.5 46.5 -18.5c25.3333 0 51.6666 7.83333 79 23.5c27.3333 15.6667 52.3333 37.1667 75 64.5
s40.8334 58.3333 54.5 93c13.6667 34.6667 20.5 70.3333 20.5 107c0 44.6667 -8.66669 86 -26 124s-41.5 71 -72.5 99s-67.1667 49.6667 -108.5 65c-41.3333 15.3333 -85.3333 23 -132 23c-49.3333 0 -96.3333 -9.5 -141 -28.5c-44.6667 -19 -84.1667 -45.6667 -118.5 -80
s-61.1667 -74 -80.5 -119s-29 -92.8333 -29 -143.5c0 -51.3333 9.33333 -100 28 -146c18.6667 -46 45 -86.3333 79 -121s73.8333 -61.6667 119.5 -81c45.6667 -19.3333 94.5 -29 146.5 -29c65.3333 0 127.167 16.6667 185.5 50s102.833 78.3333 133.5 135h-44
c-30 -46 -69.6667 -82.8333 -119 -110.5s-101.333 -41.5 -156 -41.5c-41.3333 0 -82.1667 8.33333 -122.5 25c-40.3333 16.6667 -76.5 40.1667 -108.5 70.5c-32 30.3333 -57.3333 66.1667 -76 107.5c-18.6667 41.3333 -28 86 -28 134c0 46 8.66666 89.8333 26 131.5
c17.3333 41.6667 41.5 78.6667 72.5 111s66.6667 57.5 107 75.5c40.3333 18 82.8333 27 127.5 27c37.3333 0 73.8333 -6.5 109.5 -19.5c35.6667 -13 67.8334 -31.6667 96.5 -56c28.6667 -24.3333 51.3334 -53.5 68 -87.5c16.6667 -34 25 -71.3333 25 -112
c0 -28 -5 -56.8333 -15 -86.5s-23.6667 -57.1667 -41 -82.5c-17.3333 -25.3333 -36.8333 -45.6667 -58.5 -61c-21.6667 -15.3333 -43.5 -23 -65.5 -23c-10.6667 0 -19.8334 3.16667 -27.5 9.5c-7.66666 6.33333 -11.5 14.5 -11.5 24.5c0 5.33333 1.33334 12.5 4 21.5
s6 19.5 10 31.5c0 1.33334 0.666656 3.66669 2 7z" />
    <glyph glyph-name="A" unicode="A" horiz-adv-x="593" 
d="M275 714l-287 -714h47l91 229h342l90 -229h47l-282 714h-48zM140 267l159 404h2l153 -404h-314z" />
    <glyph glyph-name="B" unicode="B" horiz-adv-x="630" 
d="M107 352h242c26 0 50.8333 -2.33334 74.5 -7s45.3333 -12.6667 65 -24c19.6667 -11.3333 35.5 -27 47.5 -47s18 -44.6667 18 -74c0 -52 -18.1667 -92 -54.5 -120c-36.3333 -28 -86.5 -42 -150.5 -42h-242v314zM63 0h286c76 0 136.5 17.3333 181.5 52s67.5 84 67.5 148
c0 32 -6.5 59.5 -19.5 82.5s-28.6667 41.1667 -47 54.5s-36.1667 23 -53.5 29s-31 9 -41 9l-2 2c40.6667 4.66666 74 21.5 100 50.5s39 62.8333 39 101.5c0 24 -4 47 -12 69s-20.6667 41.6667 -38 59c-17.3333 17.3333 -40.6667 31.1666 -70 41.5
c-29.3333 10.3333 -64.3333 15.5 -105 15.5h-286v-714zM107 676h242c25.3333 0 48.6667 -2.5 70 -7.5c21.3333 -5 40.3333 -13 57 -24s29.8333 -25.5 39.5 -43.5s14.5 -39.3333 14.5 -64c0 -44.6667 -15.6667 -80.3333 -47 -107c-31.3333 -26.6667 -76 -40 -134 -40h-242
v286z" />
    <glyph glyph-name="C" unicode="C" horiz-adv-x="704" 
d="M663 501c-0.666687 9.33334 -4.83337 25.6667 -12.5 49c-7.66669 23.3333 -21.5 49 -41.5 77s-49.3333 52.3333 -88 73c-38.6667 20.6667 -87 31 -145 31c-52 0 -99.1667 -9.5 -141.5 -28.5c-42.3333 -19 -78.3333 -45.5 -108 -79.5
c-29.6667 -34 -52.1667 -73.8333 -67.5 -119.5c-15.3333 -45.6667 -23 -94.5 -23 -146.5s7.66666 -100.833 23 -146.5c15.3333 -45.6667 37.8333 -85.5 67.5 -119.5c29.6667 -34 65.6667 -60.5 108 -79.5c42.3333 -19 89.5 -28.5 141.5 -28.5
c38.6667 0 75.3333 7.33333 110 22s65.5 35.3333 92.5 62s48.8333 58 65.5 94s27 75 31 117h-44c-2 -32.6667 -9.83331 -64.5 -23.5 -95.5s-32.1667 -58.6667 -55.5 -83s-50 -43.5 -80 -57.5c-30 -14 -62 -21 -96 -21c-45.3333 0 -86.5 8.66667 -123.5 26
c-37 17.3333 -68.3333 41.5 -94 72.5s-45.1667 66.8333 -58.5 107.5c-13.3333 40.6667 -20 84 -20 130s6.66666 89.3333 20 130c13.3333 40.6667 32.8333 76.5 58.5 107.5c25.6667 31 57 55.1667 94 72.5s78.1667 26 123.5 26c61.3333 0 114.833 -17.3333 160.5 -52
c45.6667 -34.6667 73.1667 -81.3334 82.5 -140h44z" />
    <glyph glyph-name="D" unicode="D" horiz-adv-x="667" 
d="M107 676h183c34 0 66.8333 -3.33331 98.5 -10s62.5 -20.8334 92.5 -42.5c30 -21.6667 54.5 -54.1667 73.5 -97.5c19 -43.3333 28.5 -99.3333 28.5 -168c0 -58.6667 -8.16669 -108.833 -24.5 -150.5s-38.1666 -75 -65.5 -100c-27.3333 -25 -57.5 -42.8333 -90.5 -53.5
c-33 -10.6667 -67.5 -16 -103.5 -16h-192v638zM63 0h232c56 0 105 9 147 27s76.6667 43.1667 104 75.5c27.3333 32.3333 47.6666 70.1667 61 113.5c13.3333 43.3333 20 90.6667 20 142c0 48 -5.5 93 -16.5 135s-29.1667 79.6667 -54.5 113s-59.5 59.6666 -102.5 79
c-43 19.3333 -95.1667 29 -156.5 29h-234v-714z" />
    <glyph glyph-name="E" unicode="E" horiz-adv-x="560" 
d="M107 38v314h410v38h-410v286h436v38h-480v-714h485v38h-441z" />
    <glyph glyph-name="F" unicode="F" horiz-adv-x="514" 
d="M471 352v38h-364v286h404v38h-448v-714h44v352h364z" />
    <glyph glyph-name="G" unicode="G" horiz-adv-x="741" 
d="M382 350v-38h263c0 -90.6667 -24.3333 -161.833 -73 -213.5c-48.6667 -51.6667 -114.333 -77.5 -197 -77.5c-47.3333 0 -89.5 8.5 -126.5 25.5s-68 40.6667 -93 71c-25 30.3333 -43.6667 65.6667 -56 106s-18.5 83.5 -18.5 129.5c0 45.3333 6.33334 88.5 19 129.5
s31.5 77.3333 56.5 109s56 56.5 93 74.5s78.8333 27 125.5 27c64 0 118.167 -17.6667 162.5 -53c44.3333 -35.3333 74.8333 -84.3333 91.5 -147h42c-6 36 -17.8333 68.8333 -35.5 98.5s-40 55 -67 76s-57 36.8333 -90 47.5s-67.8333 16 -104.5 16
c-52 0 -99 -9.83331 -141 -29.5s-77.6667 -47.1667 -107 -82.5c-29.3333 -35.3333 -51.5 -75.8333 -66.5 -121.5c-15 -45.6667 -22.5 -93.8333 -22.5 -144.5c0 -51.3333 7.33333 -99.5 22 -144.5c14.6667 -45 36.5 -84.3333 65.5 -118s64.5 -60 106.5 -79
s89.3333 -28.5 142 -28.5c64 0 120.667 15.3333 170 46c49.3333 30.6667 82.6666 71.6667 100 123h2v-152h38v350h-301z" />
    <glyph glyph-name="H" unicode="H" horiz-adv-x="670" 
d="M563 352v-352h44v714h-44v-324h-456v324h-44v-714h44v352h456z" />
    <glyph glyph-name="I" unicode="I" horiz-adv-x="170" 
d="M63 0h44v714h-44v-714z" />
    <glyph glyph-name="J" unicode="J" horiz-adv-x="481" 
d="M20 227c0 -34 1.83333 -64.1667 5.5 -90.5c3.66667 -26.3333 12 -51.3333 25 -75s33.5 -42.6667 61.5 -57c28 -14.3333 64.6667 -21.5 110 -21.5c45.3333 0 81.6667 7.5 109 22.5c27.3333 15 47.1667 34.3333 59.5 58c12.3333 23.6667 20 48 23 73s4.5 53.5 4.5 85.5v492
h-44v-477c0 -36.6667 -1.33334 -66.8333 -4 -90.5s-9 -45 -19 -64s-25.8333 -34 -47.5 -45s-50.5 -16.5 -86.5 -16.5c-30 0 -55.1667 4.33333 -75.5 13c-20.3333 8.66666 -36.3333 20.8333 -48 36.5s-19.6667 33.5 -24 53.5s-6.5 42.3333 -6.5 67v18
c0.666656 9.33333 1 15.3333 1 18h-44z" />
    <glyph glyph-name="K" unicode="K" horiz-adv-x="613" 
d="M63 0h44v252l148 135l323 -387h55l-346 417l326 297h-57l-449 -411v411h-44v-714z" />
    <glyph glyph-name="L" unicode="L" horiz-adv-x="500" 
d="M63 0h449v38h-405v676h-44v-714z" />
    <glyph glyph-name="M" unicode="M" horiz-adv-x="809" 
d="M63 0h44v660h2l275 -660h44l272 660h2v-660h44v714h-63l-276 -665h-2l-279 665h-63v-714z" />
    <glyph glyph-name="N" unicode="N" horiz-adv-x="678" 
d="M63 0h44v660h2l454 -660h52v714h-44v-655h-2l-451 655h-55v-714z" />
    <glyph glyph-name="O" unicode="O" horiz-adv-x="741" 
d="M710 357c0 52 -7.66669 100.833 -23 146.5c-15.3333 45.6667 -37.6666 85.5 -67 119.5c-29.3333 34 -65.1666 60.5 -107.5 79.5c-42.3333 19 -89.5 28.5 -141.5 28.5s-99.1667 -9.5 -141.5 -28.5c-42.3333 -19 -78.3333 -45.5 -108 -79.5
c-29.6667 -34 -52.1667 -73.8333 -67.5 -119.5c-15.3333 -45.6667 -23 -94.5 -23 -146.5s7.66666 -100.833 23 -146.5c15.3333 -45.6667 37.8333 -85.5 67.5 -119.5c29.6667 -34 65.6667 -60.5 108 -79.5c42.3333 -19 89.5 -28.5 141.5 -28.5s99.1667 9.5 141.5 28.5
c42.3333 19 78.1666 45.5 107.5 79.5c29.3333 34 51.6666 73.8333 67 119.5c15.3333 45.6667 23 94.5 23 146.5zM75 357c0 46 6.66666 89.3333 20 130c13.3333 40.6667 32.8333 76.5 58.5 107.5c25.6667 31 57 55.1667 94 72.5s78.1667 26 123.5 26
s86.3333 -8.66669 123 -26c36.6667 -17.3333 67.8334 -41.5 93.5 -72.5c25.6667 -31 45.1667 -66.8333 58.5 -107.5c13.3333 -40.6667 20 -84 20 -130c0 -45.3333 -6.66669 -88.5 -20 -129.5s-32.8333 -77 -58.5 -108s-56.8334 -55.1667 -93.5 -72.5
c-36.6667 -17.3333 -77.6667 -26 -123 -26s-86.5 8.66667 -123.5 26c-37 17.3333 -68.3333 41.5 -94 72.5c-25.6667 31 -45.1667 66.8333 -58.5 107.5c-13.3333 40.6667 -20 84 -20 130z" />
    <glyph glyph-name="P" unicode="P" horiz-adv-x="591" 
d="M107 676h257c33.3333 0 61.1667 -5.5 83.5 -16.5c22.3333 -11 39.5 -24.8333 51.5 -41.5s20.3333 -34 25 -52s7 -35 7 -51c0 -19.3333 -3.16669 -38.3333 -9.5 -57s-16.3333 -35.6667 -30 -51c-13.6667 -15.3333 -31.6667 -27.6667 -54 -37
c-22.3333 -9.33334 -48.8333 -14 -79.5 -14h-251v320zM63 0h44v318h244c71.3333 0 126.5 17.1667 165.5 51.5s58.5 82.5 58.5 144.5c0 40.6667 -6.66669 74.3334 -20 101c-13.3333 26.6667 -30.3333 47.1667 -51 61.5c-20.6667 14.3333 -42.6667 24.1666 -66 29.5
c-23.3333 5.33331 -47 8 -71 8h-304v-714z" />
    <glyph glyph-name="Q" unicode="Q" horiz-adv-x="741" 
d="M453 182l-23 -31l108 -77c-46.6667 -35.3333 -102.333 -53 -167 -53c-45.3333 0 -86.5 8.66667 -123.5 26c-37 17.3333 -68.3333 41.5 -94 72.5c-25.6667 31 -45.1667 66.8333 -58.5 107.5c-13.3333 40.6667 -20 84 -20 130s6.66666 89.3333 20 130
c13.3333 40.6667 32.8333 76.5 58.5 107.5c25.6667 31 57 55.1667 94 72.5s78.1667 26 123.5 26s86.3333 -8.66669 123 -26c36.6667 -17.3333 67.8334 -41.5 93.5 -72.5c25.6667 -31 45.1667 -66.8333 58.5 -107.5c13.3333 -40.6667 20 -84 20 -130
c0 -51.3333 -8.33331 -99.5 -25 -144.5s-41 -82.8333 -73 -113.5zM691 -37l23 31l-111 80c34.6667 33.3333 61.1667 74.3333 79.5 123s27.5 102 27.5 160c0 52 -7.66669 100.833 -23 146.5c-15.3333 45.6667 -37.6666 85.5 -67 119.5c-29.3333 34 -65.1666 60.5 -107.5 79.5
c-42.3333 19 -89.5 28.5 -141.5 28.5s-99.1667 -9.5 -141.5 -28.5c-42.3333 -19 -78.3333 -45.5 -108 -79.5c-29.6667 -34 -52.1667 -73.8333 -67.5 -119.5c-15.3333 -45.6667 -23 -94.5 -23 -146.5s7.66666 -100.833 23 -146.5c15.3333 -45.6667 37.8333 -85.5 67.5 -119.5
c29.6667 -34 65.6667 -60.5 108 -79.5c42.3333 -19 89.5 -28.5 141.5 -28.5c78.6667 0 146 21.6667 202 65z" />
    <glyph glyph-name="R" unicode="R" horiz-adv-x="630" 
d="M107 363v313h254c24.6667 0 48 -2.83331 70 -8.5s41.3333 -14.5 58 -26.5s29.8333 -27.5 39.5 -46.5s14.5 -41.5 14.5 -67.5c0 -54.6667 -16.5 -95.6667 -49.5 -123s-77.1667 -41 -132.5 -41h-254zM63 0h44v325h254c30 0 55.5 -3.16666 76.5 -9.5
s37.8333 -15.1667 50.5 -26.5c12.6667 -11.3333 22 -24.1667 28 -38.5c6 -14.3333 10.3333 -31.1667 13 -50.5c1.33331 -8.66667 2 -19.5 2 -32.5v-64.5c0 -23.3333 1.16669 -43.3333 3.5 -60c2.33331 -16.6667 6.83331 -31 13.5 -43h49c-8.66669 12 -14.1667 27 -16.5 45
s-3.83331 43.6667 -4.5 77c-0.666687 31.3333 -1.66669 54.6667 -3 70c-2 20 -5.5 38.3333 -10.5 55c-5 16.6667 -12.6667 32 -23 46s-24.1666 25.5 -41.5 34.5c-17.3333 9 -38.6667 14.8333 -64 17.5v2c47.3333 8 84.6667 28.5 112 61.5s41 73.5 41 121.5
c0 33.3333 -5.66669 61.8333 -17 85.5s-27.1666 42.6667 -47.5 57c-20.3333 14.3333 -44.1667 24.8333 -71.5 31.5c-27.3333 6.66669 -57.3333 10 -90 10h-298v-714z" />
    <glyph glyph-name="S" unicode="S" horiz-adv-x="630" 
d="M573 510c-1.33331 38 -9.16663 71.1667 -23.5 99.5c-14.3333 28.3333 -33.8333 51.5 -58.5 69.5c-24.6667 18 -53.1667 31.1667 -85.5 39.5s-67.5 12.5 -105.5 12.5c-29.3333 0 -58.1667 -3.66669 -86.5 -11s-54.1667 -18.6666 -77.5 -34
c-23.3333 -15.3333 -41.8333 -35.1666 -55.5 -59.5c-13.6667 -24.3333 -20.5 -52.8333 -20.5 -85.5c0 -32 6.66666 -59.1667 20 -81.5s31.1667 -40.1667 53.5 -53.5c22.3333 -13.3333 46.3333 -23.8333 72 -31.5s58.1667 -15.5 97.5 -23.5l11 -2
c39.3333 -8 71.1667 -15.3333 95.5 -22c24.3333 -6.66666 47.1667 -15.6667 68.5 -27c21.3333 -11.3333 38.1667 -26.5 50.5 -45.5s18.5 -42.5 18.5 -70.5c0 -29.3333 -6.33331 -54.6667 -19 -76s-29.3333 -38.3333 -50 -51c-20.6667 -12.6667 -43 -21.8333 -67 -27.5
c-24 -5.66667 -47.6667 -8.5 -71 -8.5c-35.3333 0 -68.3333 3.66667 -99 11c-30.6667 7.33333 -58 19 -82 35s-42.6667 36.8333 -56 62.5c-13.3333 25.6667 -20 55.8333 -20 90.5v8v8h-44c0 -44.6667 7.66666 -83.3333 23 -116c15.3333 -32.6667 36.6667 -59 64 -79
s59 -34.6667 95 -44s75.6667 -14 119 -14c29.3333 0 58.5 3.66667 87.5 11s56 19.1667 81 35.5c25 16.3333 45 37.3333 60 63s22.5 56.1667 22.5 91.5c0 34 -6.5 62.5 -19.5 85.5s-30.8333 41.5 -53.5 55.5c-22.6667 14 -47.1667 25 -73.5 33s-58.8333 16 -97.5 24l-18 4
c-36 7.33334 -66.1667 14.1667 -90.5 20.5c-24.3333 6.33334 -46.8333 15 -67.5 26s-37 25.3333 -49 43s-18 39.5 -18 65.5c0 28 6 52 18 72s27.8333 35.8333 47.5 47.5s40.8333 20 63.5 25c22.6667 5 45 7.5 67 7.5c68 0 122.5 -15.6667 163.5 -47
s62.8333 -76.6666 65.5 -136h44z" />
    <glyph glyph-name="T" unicode="T" horiz-adv-x="519" 
d="M237 676v-676h44v676h252v38h-547v-38h251z" />
    <glyph glyph-name="U" unicode="U" horiz-adv-x="672" 
d="M63 714v-428c0 -32.6667 2.66666 -65 8 -97s16.6667 -63.8333 34 -95.5c17.3333 -31.6667 44.5 -58 81.5 -79s85.1667 -31.5 144.5 -31.5c52 0 96 7.5 132 22.5s64.6667 36.1667 86 63.5s36.6666 59.1667 46 95.5c9.33331 36.3333 14 76.8333 14 121.5v428h-44v-428
c0 -42 -4.16669 -79.1667 -12.5 -111.5s-21.5 -59.8333 -39.5 -82.5c-18 -22.6667 -42 -40.1667 -72 -52.5c-30 -12.3333 -66.6667 -18.5 -110 -18.5c-48 0 -87.3333 9 -118 27s-53.5 40.8333 -68.5 68.5c-15 27.6667 -25 55.8333 -30 84.5c-5 28.6667 -7.5 57 -7.5 85v428
h-44z" />
    <glyph glyph-name="V" unicode="V" 
d="M32 714h-46l266 -714h51l267 714h-44l-247 -676h-2z" />
    <glyph glyph-name="W" unicode="W" horiz-adv-x="889" 
d="M200 0h49l193 676h2l196 -676h50l205 714h-47l-183 -667h-2l-192 667h-55l-189 -667h-2l-186 667h-45z" />
    <glyph glyph-name="X" unicode="X" 
d="M251 367l-268 -367h52l243 334l242 -334h53l-266 367l252 347h-50l-231 -314l-226 314h-51z" />
    <glyph glyph-name="Y" unicode="Y" horiz-adv-x="574" 
d="M287 336l-258 378h-50l285 -415v-299h44v299l287 415h-49z" />
    <glyph glyph-name="Z" unicode="Z" horiz-adv-x="537" 
d="M28 676h453l-482 -638v-38h539v38h-493l484 638v38h-501v-38z" />
    <glyph glyph-name="bracketleft" unicode="[" horiz-adv-x="241" 
d="M231 698v33h-137v-915h137v33h-99v849h99z" />
    <glyph glyph-name="backslash" unicode="\" horiz-adv-x="333" 
d="M346 -17l-318 748h-41l318 -748h41z" />
    <glyph glyph-name="bracketright" unicode="]" horiz-adv-x="241" 
d="M10 -151v-33h137v915h-137v-33h99v-849h-99z" />
    <glyph glyph-name="asciicircum" unicode="^" horiz-adv-x="600" 
d="M561 237l-234 453h-52l-236 -453h42l220 420l218 -420h42z" />
    <glyph glyph-name="underscore" unicode="_" horiz-adv-x="500" 
d="M500 -125v50h-500v-50h500z" />
    <glyph glyph-name="grave" unicode="`" horiz-adv-x="167" 
d="M141 591l-120 140h-51l134 -140h37z" />
    <glyph glyph-name="a" unicode="a" horiz-adv-x="500" 
d="M397 196c0 -11.3333 -2.33334 -26 -7 -44s-13.6667 -37.1667 -27 -57.5s-33 -37.6667 -59 -52s-59 -21.5 -99 -21.5c-43.3333 0 -76.6667 10.5 -100 31.5s-35 47.8333 -35 80.5c0 37.3333 11.8333 65.1667 35.5 83.5c23.6667 18.3333 58.8333 30.1667 105.5 35.5
c12 2 31.3333 4 58 6c36 2.66666 63.8333 6.16666 83.5 10.5s34.5 12.1667 44.5 23.5v-96zM435 392c0 25.3333 -4.83334 46.8333 -14.5 64.5s-23 31.5 -40 41.5s-36 17.1667 -57 21.5s-43.8333 6.5 -68.5 6.5c-61.3333 0 -108.667 -14.3333 -142 -43
c-33.3333 -28.6667 -51.3333 -71 -54 -127h38c2.66666 44 18 77.8333 46 101.5s65.3333 35.5 112 35.5c27.3333 0 50.5 -3.83334 69.5 -11.5s33.8333 -17.1667 44.5 -28.5s18.1667 -22.5 22.5 -33.5s6.5 -20.1667 6.5 -27.5c0 -23.3333 -1.5 -40.8333 -4.5 -52.5
s-10 -21 -21 -28s-27.8333 -12.3333 -50.5 -16s-56.3333 -7.16666 -101 -10.5c-24.6667 -2 -47.6667 -5.5 -69 -10.5s-41.1667 -13 -59.5 -24s-33 -26.1667 -44 -45.5s-16.5 -43.3333 -16.5 -72c0 -50.6667 15.5 -87.5 46.5 -110.5s72.8333 -34.5 125.5 -34.5
c46.6667 0 87 10.8333 121 32.5c34 21.6667 57.3333 48.8333 70 81.5h2v-27c0 -24.6667 4.66666 -43.3333 14 -56s27.6667 -19 55 -19c6 0 15.3333 1.33333 28 4h3v32c-12 -2 -21.3333 -3 -28 -3c-15.3333 0 -24.8333 5.33333 -28.5 16c-3.66666 10.6667 -5.5 26 -5.5 46
v297z" />
    <glyph glyph-name="b" unicode="b" 
d="M300 21c-33.3333 0 -62.6667 6.66667 -88 20s-46 31.8333 -62 55.5c-16 23.6667 -27.6667 50.1667 -35 79.5c-7.33334 29.3333 -11 60.3333 -11 93c0 67.3333 16.5 121.5 49.5 162.5s81.8333 61.5 146.5 61.5c30 0 56.5 -6 79.5 -18s42.5 -28.6667 58.5 -50
s27.8333 -45.3333 35.5 -72s11.5 -54.6667 11.5 -84c0 -31.3333 -3.5 -61.5 -10.5 -90.5s-17.8333 -55.5 -32.5 -79.5s-34 -43 -58 -57s-52 -21 -84 -21zM65 0h38v115h2c2.66666 -8.66666 8.16666 -20 16.5 -34c8.33333 -14 20.3333 -28.1667 36 -42.5
s35.5 -26.3333 59.5 -36s51.6667 -14.5 83 -14.5c22 0 45.1667 3.66667 69.5 11s48.3333 20.8333 72 40.5c23.6667 19.6667 43.1667 48.5 58.5 86.5c15.3333 38 23 85.6667 23 143c0 75.3333 -19 137 -57 185s-93.3333 72 -166 72c-43.3333 0 -83.1667 -10.5 -119.5 -31.5
s-61.5 -50.8333 -75.5 -89.5h-2v309h-38v-714z" />
    <glyph glyph-name="c" unicode="c" horiz-adv-x="519" 
d="M481 355c-5.33334 56 -27.3333 98.5 -66 127.5s-87.3333 43.5 -146 43.5c-36.6667 0 -69.8333 -6.83331 -99.5 -20.5c-29.6667 -13.6667 -54.6667 -32.6667 -75 -57c-20.3333 -24.3333 -35.6667 -52.5 -46 -84.5c-10.3333 -32 -15.5 -66 -15.5 -102
c0 -36.6667 4.66666 -71.5 14 -104.5c9.33333 -33 23.5 -62.1667 42.5 -87.5s43.6667 -45.3333 74 -60c30.3333 -14.6667 65.5 -22 105.5 -22c56.6667 0 105 17.1667 145 51.5s64 81.5 72 141.5h-38c-6.66666 -47.3333 -26.3333 -85.8333 -59 -115.5
c-32.6667 -29.6667 -72.6667 -44.5 -120 -44.5c-64 0 -113 22 -147 66s-51 102.333 -51 175c0 30 4.33334 58.8333 13 86.5s21.5 52.3333 38.5 74c17 21.6667 37.8333 38.8333 62.5 51.5c24.6667 12.6667 52.6667 19 84 19c48 0 88.1667 -12 120.5 -36
s50.1667 -58 53.5 -102h38z" />
    <glyph glyph-name="d" unicode="d" 
d="M262 21c-32 0 -60.1667 6.33333 -84.5 19c-24.3333 12.6667 -44.5 30 -60.5 52s-27.8333 47 -35.5 75s-11.5 57.6667 -11.5 89c0 32 3.66666 62.1667 11 90.5s18.6667 53.5 34 75.5s35.3333 39.3333 60 52s53.3333 19 86 19c32 0 60.1667 -6.5 84.5 -19.5
s44.3333 -30.6667 60 -53s27.3333 -47.6667 35 -76c7.66666 -28.3333 11.5 -57.8333 11.5 -88.5c0 -30 -3.83334 -59 -11.5 -87s-19.5 -53.1667 -35.5 -75.5s-36 -40 -60 -53s-51.6667 -19.5 -83 -19.5zM453 0h38v714h-38v-315h-2c-13.3333 39.3333 -37.5 70.3333 -72.5 93
c-35 22.6667 -74.1667 34 -117.5 34c-74.6667 0 -131.5 -25 -170.5 -75c-39 -50 -58.5 -115 -58.5 -195c0 -36.6667 4.33333 -71 13 -103c8.66666 -32 22.1667 -60.5 40.5 -85.5c18.3333 -25 41.6667 -44.5 70 -58.5s61.1667 -21 98.5 -21c89.3333 0 155 40.6667 197 122h2
v-110z" />
    <glyph glyph-name="e" unicode="e" horiz-adv-x="519" 
d="M486 252v10c0.666656 4 1 7 1 9c0 35.3333 -4.66666 68.3333 -14 99s-23.5 57.8333 -42.5 81.5c-19 23.6667 -42.8333 42 -71.5 55s-61.6667 19.5 -99 19.5c-36.6667 0 -69.3333 -7.5 -98 -22.5c-28.6667 -15 -52.5 -35.5 -71.5 -61.5s-33.3333 -55.6667 -43 -89
c-9.66667 -33.3333 -14.5 -68.3333 -14.5 -105c0 -75.3333 20 -137.5 60 -186.5c40 -49 95.6667 -73.5 167 -73.5c61.3333 0 111.167 16 149.5 48c38.3333 32 62.5 78 72.5 138h-38c-8.66666 -47.3333 -29.3333 -84.6667 -62 -112c-32.6667 -27.3333 -73.3333 -41 -122 -41
c-60 0 -106.5 22.1667 -139.5 66.5c-33 44.3333 -49.5 99.1667 -49.5 164.5h415zM71 285c2 26 7.66666 51.3333 17 76s22.1667 47 38.5 67s35.8333 35.8333 58.5 47.5s47.6667 17.5 75 17.5c28.6667 0 54.6667 -5.66666 78 -17s43 -26.6667 59 -46
c16 -19.3333 28.3333 -41.5 37 -66.5s13.3333 -51.1667 14 -78.5h-377z" />
    <glyph glyph-name="f" unicode="f" horiz-adv-x="241" 
d="M92 481v-481h38v481h107v33h-107v103c0 26.6667 6.66667 45.3334 20 56c13.3333 10.6667 31.6667 16 55 16c13.3333 0 28.3333 -1.66669 45 -5v33c-16.6667 3.33331 -31.6667 5 -45 5c-33.3333 0 -60.5 -8.5 -81.5 -25.5s-31.5 -42.5 -31.5 -76.5v-106h-92v-33h92z" />
    <glyph glyph-name="g" unicode="g" horiz-adv-x="537" 
d="M255 493c60 0 107 -22.3333 141 -67c15.3333 -20 26.8333 -43.1667 34.5 -69.5s11.5 -54.1667 11.5 -83.5c0 -62 -16.3333 -114.333 -49 -157s-78.6667 -64 -138 -64c-58 0 -103.167 21 -135.5 63s-48.5 94.6667 -48.5 158c0 28 3.83334 55.1667 11.5 81.5
s19.1667 50 34.5 71c15.3333 21 34.6667 37.5 58 49.5c23.3333 12 50 18 80 18zM443 514v-107h-2c-13.3333 37.3333 -37.3333 66.5 -72 87.5s-72.6667 31.5 -114 31.5c-35.3333 0 -66.8333 -6.66669 -94.5 -20c-27.6667 -13.3333 -51 -31.6667 -70 -55
c-19 -23.3333 -33.3333 -50.1667 -43 -80.5c-9.66667 -30.3333 -14.5 -62.8333 -14.5 -97.5c0 -75.3333 18.8333 -136.5 56.5 -183.5c37.6667 -47 92.8333 -70.5 165.5 -70.5c87.3333 0 149.333 39 186 117h2v-118c0 -15.3333 -1.5 -32 -4.5 -50
s-10.3333 -37.1667 -22 -57.5s-30.1667 -37.6667 -55.5 -52s-59 -21.5 -101 -21.5c-45.3333 0 -83 10.3333 -113 31c-30 20.6667 -47 52.6667 -51 96h-38c2.66666 -56 22 -96.6667 58 -122s83.6667 -38 143 -38c51.3333 0 92.6667 8.83333 124 26.5
c31.3333 17.6667 53.8333 39.1667 67.5 64.5c13.6667 25.3333 22.1667 48.8333 25.5 70.5c3.33334 21.6667 5 42.1667 5 61.5v487h-38z" />
    <glyph glyph-name="h" unicode="h" horiz-adv-x="519" 
d="M56 714v-714h38v278c0 64 16.6667 115.833 50 155.5c33.3333 39.6667 78.3333 59.5 135 59.5c32.6667 0 59.1667 -5.83334 79.5 -17.5s35.1667 -26.3333 44.5 -44c9.33334 -17.6667 15.3333 -35.1667 18 -52.5s4 -35.3333 4 -54v-325h38v318c0 24 -1.33334 46.5 -4 67.5
s-9.83331 42.3333 -21.5 64c-11.6667 21.6667 -30.3333 39.8333 -56 54.5c-25.6667 14.6667 -59.5 22 -101.5 22c-41.3333 0 -79.1667 -11 -113.5 -33c-34.3333 -22 -57.8333 -51.6667 -70.5 -89h-2v310h-38z" />
    <glyph glyph-name="i" unicode="i" horiz-adv-x="168" 
d="M103 0v514h-38v-514h38zM103 611v103h-38v-103h38z" />
    <glyph glyph-name="j" unicode="j" horiz-adv-x="168" 
d="M65 514v-566c0 -38.6667 -5.5 -65 -16.5 -79s-30.1667 -21 -57.5 -21c-8.66667 0 -17 0.666672 -25 2v-33c6.66667 -0.666672 17.3333 -1 32 -1c21.3333 0 38.8333 3.33333 52.5 10s24.3333 15.8333 32 27.5c7.66666 11.6667 13 25 16 40s4.5 32.1667 4.5 51.5v569h-38z
M103 611v103h-38v-103h38z" />
    <glyph glyph-name="k" unicode="k" horiz-adv-x="463" 
d="M58 0h38v194l117 99l219 -293h52l-241 322l225 192h-55l-317 -273v473h-38v-714z" />
    <glyph glyph-name="l" unicode="l" horiz-adv-x="168" 
d="M65 714v-714h38v714h-38z" />
    <glyph glyph-name="m" unicode="m" horiz-adv-x="796" 
d="M57 0h38v304c0 31.3333 4.83334 59.1667 14.5 83.5c9.66666 24.3333 22.5 44.1667 38.5 59.5c16 15.3333 33.6667 26.8333 53 34.5s38.3333 11.5 57 11.5c11.3333 0 23.5 -1.5 36.5 -4.5s26 -9.33334 39 -19s23.8333 -24.1667 32.5 -43.5s13 -44 13 -74v-352h38v304
c0 60 14.8333 106.5 44.5 139.5s68.5 49.5 116.5 49.5c10.6667 0 22.5 -1.5 35.5 -4.5s26.1667 -9.16666 39.5 -18.5s24.6666 -23.6667 34 -43c9.33331 -19.3333 14 -44.3333 14 -75v-352h38v351c0 58 -14.6667 101.667 -44 131s-68.3333 44 -117 44
c-40.6667 0 -74.1667 -9.16669 -100.5 -27.5c-26.3333 -18.3333 -47.1667 -45.5 -62.5 -81.5h-2c-6 30 -22 55.6667 -48 77c-26 21.3333 -61.6667 32 -107 32c-38 0 -72.3333 -11.3333 -103 -34c-30.6667 -22.6667 -50 -50.3333 -58 -83h-2v105h-38v-514z" />
    <glyph glyph-name="n" unicode="n" horiz-adv-x="519" 
d="M56 0h38v278c0 64 16.6667 115.833 50 155.5c33.3333 39.6667 78.3333 59.5 135 59.5c32.6667 0 59.1667 -5.83334 79.5 -17.5s35.1667 -26.3333 44.5 -44c9.33334 -17.6667 15.3333 -35.1667 18 -52.5s4 -35.3333 4 -54v-325h38v318c0 24 -1.33334 46.5 -4 67.5
s-9.83331 42.3333 -21.5 64c-11.6667 21.6667 -30.3333 39.8333 -56 54.5c-25.6667 14.6667 -59.5 22 -101.5 22c-41.3333 0 -79.1667 -11 -113.5 -33c-34.3333 -22 -57.8333 -51.6667 -70.5 -89h-2v110h-38v-514z" />
    <glyph glyph-name="o" unicode="o" horiz-adv-x="537" 
d="M32 257c0 -36.6667 5.33333 -71.3333 16 -104c10.6667 -32.6667 26 -61.3333 46 -86s44.8333 -44 74.5 -58s62.8333 -21 99.5 -21s69.6667 7 99 21s54.3333 33.5 75 58.5s36.1667 53.6667 46.5 86c10.3333 32.3333 15.5 66.8333 15.5 103.5
c0 36.6667 -5.16666 71.3333 -15.5 104c-10.3333 32.6667 -25.6667 61.3333 -46 86c-20.3333 24.6667 -45.3333 44 -75 58s-62.8333 21 -99.5 21c-36.6667 0 -69.6667 -7 -99 -21s-54.3333 -33.3333 -75 -58c-20.6667 -24.6667 -36.1667 -53.3333 -46.5 -86
c-10.3333 -32.6667 -15.5 -67.3333 -15.5 -104zM70 257c0 31.3333 4.33334 61.1667 13 89.5c8.66666 28.3333 21.5 53.5 38.5 75.5s37.8333 39.3333 62.5 52s52.6667 19 84 19c31.3333 0 59.3333 -6.33334 84 -19s45.5 -30 62.5 -52s29.8333 -47.1667 38.5 -75.5
s13 -58.1667 13 -89.5c0 -31.3333 -4.33334 -61.1667 -13 -89.5c-8.66666 -28.3333 -21.5 -53.5 -38.5 -75.5s-37.8333 -39.3333 -62.5 -52c-24.6667 -12.6667 -52.6667 -19 -84 -19c-31.3333 0 -59.3333 6.33333 -84 19c-24.6667 12.6667 -45.5 30 -62.5 52
s-29.8333 47.1667 -38.5 75.5s-13 58.1667 -13 89.5z" />
    <glyph glyph-name="p" unicode="p" 
d="M292 21c-34.6667 0 -64.3333 6.33333 -89 19c-24.6667 12.6667 -44.1667 29.8333 -58.5 51.5s-24.6667 46.3333 -31 74s-9.5 57.8333 -9.5 90.5c0 32 3.5 62.1667 10.5 90.5s18 53.5 33 75.5s34.5 39.3333 58.5 52s52.6667 19 86 19s62.3333 -6.5 87 -19.5
s44.8333 -30.8333 60.5 -53.5c15.6667 -22.6667 27.1667 -48.1667 34.5 -76.5s11 -57.5 11 -87.5c0 -32.6667 -3.83334 -63.1667 -11.5 -91.5s-19.5 -53.1667 -35.5 -74.5s-36.1667 -38.1667 -60.5 -50.5s-52.8333 -18.5 -85.5 -18.5zM103 514h-38v-698h38v291h2
c14.6667 -40 38.3333 -69.8333 71 -89.5c32.6667 -19.6667 71.3333 -29.5 116 -29.5c76 0 133.5 24.3333 172.5 73s58.5 113.667 58.5 195c0 37.3333 -4.66669 72.1667 -14 104.5c-9.33334 32.3333 -23.6667 61 -43 86c-19.3333 25 -43.5 44.5 -72.5 58.5
s-62.8333 21 -101.5 21c-26.6667 0 -50.8333 -4.16669 -72.5 -12.5c-21.6667 -8.33334 -40.1667 -19 -55.5 -32s-27.8333 -27 -37.5 -42c-9.66666 -15 -16.8333 -29.5 -21.5 -43.5h-2v118z" />
    <glyph glyph-name="q" unicode="q" 
d="M261 21c-32.6667 0 -61.1667 6.33333 -85.5 19c-24.3333 12.6667 -44.3333 30 -60 52c-15.6667 22 -27.1667 47.1667 -34.5 75.5s-11 58.5 -11 90.5c0 31.3333 3.83334 61 11.5 89s19.5 53 35.5 75s36.1667 39.3333 60.5 52s52.5 19 84.5 19c31.3333 0 59 -6.5 83 -19.5
s44 -30.6667 60 -53s27.8333 -47.5 35.5 -75.5s11.5 -57 11.5 -87c0 -30.6667 -3.83334 -60.1667 -11.5 -88.5s-19.5 -53.6667 -35.5 -76s-36 -40 -60 -53s-52 -19.5 -84 -19.5zM453 -184h38v698h-38v-110h-2c-42 81.3333 -107.667 122 -197 122
c-37.3333 0 -70.1667 -7 -98.5 -21s-51.6667 -33.5 -70 -58.5c-18.3333 -25 -31.8333 -53.5 -40.5 -85.5c-8.66667 -32 -13 -66.3333 -13 -103c0 -80 19.5 -145 58.5 -195s95.8333 -75 170.5 -75c43.3333 0 82.5 11.3333 117.5 34c35 22.6667 59.1667 53.6667 72.5 93h2
v-299z" />
    <glyph glyph-name="r" unicode="r" horiz-adv-x="278" 
d="M94 514h-38v-514h38v281c2 37.3333 7.16666 66.1667 15.5 86.5c8.33334 20.3333 22.5 40.8333 42.5 61.5c18 18 37.8333 31 59.5 39s42.8333 12 63.5 12h10c4 -0.666656 7 -1 9 -1v38c-48.6667 0 -91.1667 -11.1667 -127.5 -33.5s-59.5 -50.1667 -69.5 -83.5h-3v114z" />
    <glyph glyph-name="s" unicode="s" horiz-adv-x="481" 
d="M36 171c1.33333 -58 21.1667 -103 59.5 -135c38.3333 -32 87.8333 -48 148.5 -48c24 0 47.6667 2.33333 71 7s44.8333 12.5 64.5 23.5s35.5 25.8333 47.5 44.5c12 18.6667 18 41 18 67s-4.5 47.8333 -13.5 65.5s-21.5 31.8333 -37.5 42.5
c-16 10.6667 -34.1667 19 -54.5 25s-45.8333 12 -76.5 18c-4 0.666656 -9.33333 1.66666 -16 3c-26 6 -47 11.1667 -63 15.5s-31.1667 10.3333 -45.5 18c-14.3333 7.66666 -25.6667 17.8333 -34 30.5c-8.33334 12.6667 -12.5 28 -12.5 46c0 17.3333 4.16666 32.5 12.5 45.5
s19.6667 23.3333 34 31s30.1667 13.3333 47.5 17c17.3333 3.66666 35.3333 5.5 54 5.5c46 0 82.6667 -10.6667 110 -32s41.3333 -54.3333 42 -99h38c0 56 -17.1667 97.3333 -51.5 124c-34.3333 26.6667 -80.5 40 -138.5 40c-23.3333 0 -45.8333 -2.16669 -67.5 -6.5
s-41.5 -11.6667 -59.5 -22s-32.3333 -24.1667 -43 -41.5c-10.6667 -17.3333 -16 -38 -16 -62c0 -24.6667 4.83333 -45.6667 14.5 -63c9.66666 -17.3333 22.6667 -31.1667 39 -41.5c16.3333 -10.3333 34.3333 -18.5 54 -24.5c19.6667 -6 42.8333 -11.6667 69.5 -17l14 -3
c26.6667 -5.33333 48.6667 -10.3333 66 -15s33.3333 -11 48 -19s26.3333 -18.5 35 -31.5c8.66666 -13 13 -29.5 13 -49.5c0 -21.3333 -5 -39.1667 -15 -53.5c-10 -14.3333 -23.1667 -25.5 -39.5 -33.5s-33.6667 -13.6667 -52 -17c-18.3333 -3.33333 -37.1667 -5 -56.5 -5
c-47.3333 0 -86.8333 13.3333 -118.5 40c-31.6667 26.6667 -48.8333 63.3333 -51.5 110h-38z" />
    <glyph glyph-name="t" unicode="t" horiz-adv-x="259" 
d="M245 514h-112v160h-38v-160h-95v-33h95v-359c0 -24.6667 3.16666 -45.1667 9.5 -61.5s15 -29 26 -38s23.6667 -15.1667 38 -18.5s30.5 -5 48.5 -5h13c8 0.666672 12.6667 1 14 1v33c-41.3333 0 -70.1667 5.66666 -86.5 17c-16.3333 11.3333 -24.5 35.3333 -24.5 72v359
h112v33z" />
    <glyph glyph-name="u" unicode="u" horiz-adv-x="519" 
d="M463 514h-38v-278c0 -64 -16.6667 -115.833 -50 -155.5s-78.3333 -59.5 -135 -59.5c-32.6667 0 -59.1667 5.83333 -79.5 17.5c-20.3333 11.6667 -35.1667 26.3333 -44.5 44s-15.3333 35.1667 -18 52.5c-2.66666 17.3333 -4 35.3333 -4 54v325h-38v-318
c0 -24 1.33333 -46.5 4 -67.5c2.66666 -21 9.83334 -42.3333 21.5 -64s30.3333 -39.8333 56 -54.5s59.5 -22 101.5 -22c41.3333 0 79.1667 11 113.5 33c34.3333 22 57.8333 51.6667 70.5 89h2v-110h38v514z" />
    <glyph glyph-name="v" unicode="v" horiz-adv-x="444" 
d="M446 514h-42l-174 -470h-2l-186 470h-44l207 -514h47z" />
    <glyph glyph-name="w" unicode="w" horiz-adv-x="704" 
d="M39 514h-41l163 -514h48l142 466h2l141 -466h47l165 514h-42l-144 -470h-2l-141 470h-51l-140 -470h-2z" />
    <glyph glyph-name="x" unicode="x" horiz-adv-x="444" 
d="M-6 0h48l180 241l176 -241h52l-203 270l186 244h-49l-162 -215l-161 215h-53l188 -244z" />
    <glyph glyph-name="y" unicode="y" horiz-adv-x="444" 
d="M209 3c-14 -38.6667 -24.6667 -66.8333 -32 -84.5s-14.3333 -29.8333 -21 -36.5c-12.6667 -12.6667 -26.8333 -21.3333 -42.5 -26c-15.6667 -4.66667 -37.1667 -7 -64.5 -7v-33c32.6667 0 57.6667 1.33333 75 4s32.3333 9 45 19c10 8 19.3333 20 28 36
s19.3333 39.3333 32 70l220 569h-43l-176 -469l-191 469h-45z" />
    <glyph glyph-name="z" unicode="z" horiz-adv-x="426" 
d="M55 33l346 445v36h-365v-33h318l-345 -445v-36h408v33h-362z" />
    <glyph glyph-name="braceleft" unicode="{" horiz-adv-x="333" 
d="M293 731h-50c-29.3333 0 -51.3333 -8.83331 -66 -26.5s-22 -48.1667 -22 -91.5v-159c0 -22.6667 -1 -43.1667 -3 -61.5s-5.83333 -35 -11.5 -50s-13.1667 -27 -22.5 -36c-9.33334 -9 -21 -13.8333 -35 -14.5v-38c14 -0.666672 25.6667 -5.5 35 -14.5
s16.8333 -21 22.5 -36c5.66667 -15 9.5 -31.6667 11.5 -50s3 -38.8333 3 -61.5v-158c0 -43.3333 7.33333 -73.8333 22 -91.5s36.6667 -26.5 66 -26.5h50v33h-48c-20 0 -33.6667 7.5 -41 22.5s-11 41.8333 -11 80.5v157c0 27.3333 -2.16667 50.6667 -6.5 70
c-4.33333 19.3333 -9.83333 35 -16.5 47s-13 21 -19 27s-13 12 -21 18c-4 2.66666 -6.33334 4.33331 -7 5c0.666656 0.666656 1.33333 1 2 1c6.66667 3.33334 13.5 7.66669 20.5 13c7 5.33334 14.1667 13.8333 21.5 25.5s13.5 27.6667 18.5 48s7.5 45.1667 7.5 74.5v157
c0 38.6667 3.66667 65.5 11 80.5s21 22.5 41 22.5h48v33z" />
    <glyph glyph-name="bar" unicode="|" horiz-adv-x="222" 
d="M92 -214h38v1000h-38v-1000z" />
    <glyph glyph-name="braceright" unicode="}" horiz-adv-x="333" 
d="M40 -184h50c29.3333 0 51.3333 8.83333 66 26.5c14.6667 17.6667 22 48.1667 22 91.5v158c0 22.6667 1.16667 43.1667 3.5 61.5c2.33333 18.3333 6.16666 35 11.5 50c5.33333 15 12.6667 27 22 36c9.33333 9 21 13.8333 35 14.5v38c-14 0.666656 -25.6667 5.5 -35 14.5
s-16.6667 21 -22 36c-5.33333 15 -9.16666 31.6667 -11.5 50c-2.33333 18.3333 -3.5 38.8333 -3.5 61.5v159c0 43.3333 -7.33333 73.8333 -22 91.5s-36.6667 26.5 -66 26.5h-50v-33h48c20 0 33.6667 -7.5 41 -22.5c7.33333 -15 11 -41.8333 11 -80.5v-157
c0 -29.3333 2.5 -54.1667 7.5 -74.5c5 -20.3333 11.1667 -36.3333 18.5 -48s14.3333 -20 21 -25s13.6667 -9.5 21 -13.5c0.666672 0 1.33334 -0.333344 2 -1c-0.666672 -0.666656 -3 -2.33331 -7 -5c-7.33333 -5.33334 -14.1667 -11.1667 -20.5 -17.5
c-6.33333 -6.33333 -12.8333 -15.5 -19.5 -27.5s-12.1667 -27.6667 -16.5 -47s-6.5 -42.6667 -6.5 -70v-157c0 -38.6667 -3.66667 -65.5 -11 -80.5c-7.33334 -15 -21 -22.5 -41 -22.5h-48v-33z" />
    <glyph glyph-name="asciitilde" unicode="~" horiz-adv-x="600" 
d="M500 312c-10 -19.3333 -23.5 -36.6667 -40.5 -52c-17 -15.3333 -34.1667 -23 -51.5 -23c-14.6667 0 -28.1667 2.33333 -40.5 7s-26.5 11 -42.5 19c-10.6667 6 -17 9.33334 -19 10l-3 1c-26.6667 12 -46.8333 20.1667 -60.5 24.5c-13.6667 4.33334 -29.5 6.5 -47.5 6.5
c-28.6667 0 -51.8333 -6.83334 -69.5 -20.5s-35.1667 -34.5 -52.5 -62.5l29 -30c9.33334 21.3333 21.6667 39.1667 37 53.5s36 21.5 62 21.5c11.3333 0 25.8333 -3.16666 43.5 -9.5c17.6667 -6.33333 33.8333 -13.1667 48.5 -20.5c26 -13.3333 47.3333 -23 64 -29
s33.3333 -9 50 -9c26 0 48.6667 7.83333 68 23.5s37 36.1667 53 61.5z" />
    <glyph glyph-name="exclamdown" unicode="&#xa1;" horiz-adv-x="259" 
d="M153 -184v241l-12 290h-24l-12 -290v-241h48zM104 535v-103h51v103h-51z" />
    <glyph glyph-name="cent" unicode="&#xa2;" 
d="M272 21c-59.3333 3.33333 -104.667 27 -136 71s-47 100.667 -47 170c0 28.6667 4 56.3333 12 83c8 26.6667 19.8333 50.8333 35.5 72.5c15.6667 21.6667 35 39.1667 58 52.5s48.8333 21 77.5 23v-472zM272 -118h32v106c53.3333 3.33333 98 22.1667 134 56.5
s58 79.8333 66 136.5h-38c-6 -44.6667 -23.6667 -81.6667 -53 -111c-29.3333 -29.3333 -65.6667 -45.6667 -109 -49v472c44.6667 -3.33334 81.1667 -16.8333 109.5 -40.5s44.1667 -56.1667 47.5 -97.5h38c-4.66666 53.3333 -24.6667 94.5 -60 123.5
s-80.3333 44.8333 -135 47.5v89h-32v-89c-34.6667 -1.33331 -65.8333 -9.33331 -93.5 -24c-27.6667 -14.6667 -51 -34.1667 -70 -58.5s-33.3333 -52 -43 -83c-9.66667 -31 -14.5 -63.8333 -14.5 -98.5c0 -36 4.33333 -70 13 -102c8.66666 -32 22 -60.6667 40 -86
s41 -45.5 69 -60.5s61 -23.5 99 -25.5v-106z" />
    <glyph glyph-name="sterling" unicode="&#xa3;" 
d="M50 330h78c8.66667 -13.3333 15.6667 -29.5 21 -48.5s8 -38.1667 8 -57.5c0 -40 -10 -76 -30 -108s-47.6667 -65 -83 -99l25 -34l5 3c24 15.3333 43.6667 26 59 32c15.3333 6 34 9 56 9c14 0 28 -1.66667 42 -5s31 -8.66667 51 -16l3 -1
c22 -7.33333 41 -12.8333 57 -16.5s33 -5.5 51 -5.5c27.3333 0 54.1667 6.66667 80.5 20c26.3333 13.3333 49.8334 31 70.5 53l-22 33c-24 -22 -45.8333 -38.8333 -65.5 -50.5c-19.6667 -11.6667 -42.8333 -17.5 -69.5 -17.5c-19.3333 0 -46.6667 6 -82 18l-9 3
c-19.3333 7.33333 -36.8333 13 -52.5 17c-15.6667 4 -32.8333 6 -51.5 6c-16 0 -31.5 -3.16667 -46.5 -9.5c-15 -6.33334 -30.8333 -15.1667 -47.5 -26.5l-2 2c28 24 51.5 53 70.5 87s28.5 68.6667 28.5 104c0 24 -2.16667 45.3333 -6.5 64s-9.83333 33.3333 -16.5 44h141
v33h-160c-3.33333 7.33334 -9.33333 19 -18 35c-15.3333 28 -27 52.6667 -35 74s-12 44.3334 -12 69c0 46.6667 17.1667 83.6667 51.5 111c34.3333 27.3333 80.5 41 138.5 41c66.6667 0 115.833 -17.6667 147.5 -53c31.6667 -35.3333 47.8333 -87.3333 48.5 -156h38
c0 82.6667 -20 144.5 -60 185.5s-98.3333 61.5 -175 61.5c-30 0 -58.6667 -4.16669 -86 -12.5s-51.6667 -20.6666 -73 -37c-21.3333 -16.3333 -38 -36.5 -50 -60.5s-18 -51.3333 -18 -82c0 -28.6667 5.16666 -56.5 15.5 -83.5s25.1667 -57.8333 44.5 -92.5h-60v-33z" />
    <glyph glyph-name="currency" unicode="&#xa4;" 
d="M519 131l-54 54c20 22 35.1667 46.8333 45.5 74.5c10.3333 27.6667 15.5 56.1667 15.5 85.5s-5.16669 57.8333 -15.5 85.5c-10.3333 27.6667 -25.5 52.8333 -45.5 75.5l55 54l-27 27l-54 -55c-23.3333 20 -48.8333 35.1667 -76.5 45.5s-56.1667 15.5 -85.5 15.5
c-60.6667 -1.33331 -114 -21.3333 -160 -60l-56 56l-27 -27l57 -56c-20 -22.6667 -35.1667 -47.8333 -45.5 -75.5c-10.3333 -27.6667 -15.5 -56.1667 -15.5 -85.5c1.33333 -60.6667 21.6667 -114.333 61 -161l-56 -55l27 -27l55 56c45.3333 -40.6667 98.6667 -61 160 -61
c29.3333 0 57.8333 5.16666 85.5 15.5s53.1667 25.5 76.5 45.5l53 -54zM278 135c-26.6667 0 -52.5 5.33333 -77.5 16s-47 25.8333 -66 45.5c-19 19.6667 -33.8333 42.1667 -44.5 67.5c-10.6667 25.3333 -16 52.3333 -16 81s5.33334 55.6667 16 81s25.5 47.8333 44.5 67.5
c19 19.6667 41 34.8334 66 45.5c25 10.6667 50.8333 16 77.5 16c27.3333 0 53.3333 -5.33331 78 -16s46.5 -25.8334 65.5 -45.5c19 -19.6667 33.8333 -42.1667 44.5 -67.5s16 -52.3333 16 -81s-5.33334 -55.6667 -16 -81c-10.6667 -25.3333 -25.5 -47.8333 -44.5 -67.5
s-40.8333 -34.8333 -65.5 -45.5c-24.6667 -10.6667 -50.6667 -16 -78 -16z" />
    <glyph glyph-name="yen" unicode="&#xa5;" 
d="M-7 714l238 -372h-92v-33h120v-78h-120v-33h120v-198h38v198h120v33h-120v78h120v33h-92l238 372h-45l-239 -374l-238 374h-48z" />
    <glyph glyph-name="brokenbar" unicode="&#xa6;" horiz-adv-x="222" 
d="M92 -89h38v250h-38v-250zM92 411h38v250h-38v-250z" />
    <glyph glyph-name="section" unicode="&#xa7;" 
d="M339 359c38 -22 68.5 -44.1667 91.5 -66.5s34.5 -48.8333 34.5 -79.5c0 -15.3333 -3.16666 -29.8333 -9.5 -43.5s-14.8333 -25.1667 -25.5 -34.5c-10.6667 -8.66666 -22.6667 -16.5 -36 -23.5s-23.6667 -10.5 -31 -10.5l-139 85l-26 16
c-34 20.6667 -60.5 40.6667 -79.5 60c-19 19.3333 -28.5 44.3333 -28.5 75c0 25.3333 9.5 47.8333 28.5 67.5s41.8333 34.5 68.5 44.5zM449 536c-0.666656 60.6667 -15.8333 108.333 -45.5 143c-29.6667 34.6667 -72.5 52 -128.5 52c-22 0 -43 -3.5 -63 -10.5
s-37.8333 -16.6667 -53.5 -29s-27.8333 -27 -36.5 -44s-13 -35.1667 -13 -54.5v-5c-0.666656 -2.66669 -1 -4.66669 -1 -6c0 -18 4.66666 -37.6667 14 -59c9.33333 -21.3333 23 -38.6667 41 -52c-31.3333 -11.3333 -57.6667 -29 -79 -53s-32 -51 -32 -81
c0 -23.3333 4.33333 -44.5 13 -63.5c8.66666 -19 21 -36.1667 37 -51.5s32.8333 -28.8333 50.5 -40.5s42.5 -26.8333 74.5 -45.5l4 -2l14 -7c28.6667 -16 51.5 -29.1667 68.5 -39.5s33 -22 48 -35s27 -27.6667 36 -44s13.5 -34.5 13.5 -54.5
c0 -35.3333 -11.5 -61.6667 -34.5 -79c-23 -17.3333 -55.1667 -26 -96.5 -26c-45.3333 0 -80.1667 14.8333 -104.5 44.5c-24.3333 29.6667 -37.1667 68.1667 -38.5 115.5h-38c0 -58 16.1667 -104.667 48.5 -140c32.3333 -35.3333 76.8333 -53 133.5 -53
c49.3333 0 89.6667 11.1667 121 33.5c31.3333 22.3333 47 57.1667 47 104.5c0 27.3333 -4.33334 49.8333 -13 67.5c-8.66666 17.6667 -23.3333 36.1667 -44 55.5c34 9.33334 61 25.1667 81 47.5s30 51.8333 30 88.5c0 25.3333 -4.83334 48 -14.5 68s-22.6667 37.5 -39 52.5
s-33.5 28 -51.5 39s-42.3333 24.1667 -73 39.5l-1 1l-12 6c-27.3333 14.6667 -49.6667 27.1667 -67 37.5c-17.3333 10.3333 -33.5 22 -48.5 35s-27 28 -36 45s-13.5 35.8333 -13.5 56.5c0.666672 30.6667 14 55.8334 40 75.5c26 19.6667 55.3333 29.5 88 29.5
c41.3333 0 74.3333 -15.6667 99 -47s37 -69.6666 37 -115h38z" />
    <glyph glyph-name="dieresis" unicode="&#xa8;" horiz-adv-x="167" 
d="M26 594v103h-44v-103h44zM184 594v103h-44v-103h44z" />
    <glyph glyph-name="copyright" unicode="&#xa9;" horiz-adv-x="800" 
d="M401 698c47.3333 0 91.5 -8.66669 132.5 -26s76.6667 -41.5 107 -72.5s53.8333 -67.1667 70.5 -108.5c16.6667 -41.3333 25 -85.6667 25 -133c0 -46.6667 -8.33331 -90.8333 -25 -132.5c-16.6667 -41.6667 -40.3334 -78.1667 -71 -109.5
c-30.6667 -31.3333 -66.3334 -55.8333 -107 -73.5c-40.6667 -17.6667 -84.6667 -26.5 -132 -26.5c-46.6667 0 -90.6667 8.66667 -132 26c-41.3333 17.3333 -77.3333 41.8333 -108 73.5c-30.6667 31.6667 -54.5 68.3333 -71.5 110s-25.5 85.8333 -25.5 132.5
c0 47.3333 8.33334 91.8333 25 133.5c16.6667 41.6667 40.3333 78 71 109s66.6667 55 108 72c41.3333 17 85.6667 25.5 133 25.5zM599 438c-6 48.6667 -26.8333 86.6666 -62.5 114c-35.6667 27.3333 -78.5 41 -128.5 41c-68 0 -122.167 -21.8333 -162.5 -65.5
c-40.3333 -43.6667 -60.5 -100.167 -60.5 -169.5c0 -33.3333 5.33333 -64.5 16 -93.5s26 -54.3333 46 -76s44 -38.5 72 -50.5s58.6667 -18 92 -18c48.6667 0 90.6667 14.8333 126 44.5c35.3333 29.6667 56 68.5 62 116.5h-38c-10 -39.3333 -27.6667 -70.5 -53 -93.5
c-25.3333 -23 -57.6667 -34.5 -97 -34.5c-56.6667 0 -102.333 20.3333 -137 61c-16.6667 18.6667 -29.3333 40.5 -38 65.5s-13 51.5 -13 79.5c0 59.3333 16.5 107.667 49.5 145s78.5 56 136.5 56c38.6667 0 71.8333 -10.8333 99.5 -32.5
c27.6667 -21.6667 45.1667 -51.5 52.5 -89.5h38zM400 731c-50.6667 0 -98.8333 -9.66669 -144.5 -29c-45.6667 -19.3333 -85.6667 -46.1666 -120 -80.5c-34.3333 -34.3333 -61.1667 -74.3333 -80.5 -120c-19.3333 -45.6667 -29 -93.8333 -29 -144.5
c0 -50.6667 9.66666 -98.8333 29 -144.5c19.3333 -45.6667 46.1667 -85.6667 80.5 -120c34.3333 -34.3333 74.3333 -61.1667 120 -80.5c45.6667 -19.3333 93.8333 -29 144.5 -29c50.6667 0 98.8333 9.66667 144.5 29s85.6667 46.1667 120 80.5
c34.3333 34.3333 61.1666 74.3333 80.5 120c19.3333 45.6667 29 93.8333 29 144.5c0 50.6667 -9.66669 98.8333 -29 144.5s-46.1666 85.6667 -80.5 120c-34.3333 34.3333 -74.3333 61.1666 -120 80.5c-45.6667 19.3333 -93.8333 29 -144.5 29z" />
    <glyph glyph-name="ordfeminine" unicode="&#xaa;" horiz-adv-x="310" 
d="M250 498c0 -6.66666 -1.5 -15.5 -4.5 -26.5s-8.83333 -22.5 -17.5 -34.5s-21.5 -22.3333 -38.5 -31s-38.5 -13 -64.5 -13c-24.6667 0 -44.1667 6.5 -58.5 19.5s-21.5 29.5 -21.5 49.5c0 20.6667 7.5 36.3333 22.5 47s36.8333 17.6667 65.5 21c6.66667 0.666687 19 2 37 4
c22 1.33331 39.3333 3.33331 52 6s22 7.33337 28 14v-56zM61 596c2 24.6667 11.8333 44 29.5 58s40.1667 21 67.5 21c28 0 50.5 -4.5 67.5 -13.5s25.5 -22.1667 25.5 -39.5c0 -14 -1 -24.5 -3 -31.5s-6.5 -12.6667 -13.5 -17s-17.8333 -7.66663 -32.5 -10
c-14.6667 -2.33331 -36.6667 -4.5 -66 -6.5c-16 -1.33331 -31 -3.5 -45 -6.5s-26.8333 -7.83331 -38.5 -14.5c-11.6667 -6.66669 -21.1667 -16.1667 -28.5 -28.5c-7.33333 -12.3333 -11 -27.5 -11 -45.5c0 -34.6667 10.1667 -59.3333 30.5 -74
c20.3333 -14.6667 48.5 -22 84.5 -22c31.3333 0 58 6.5 80 19.5s36.3333 29.1667 43 48.5h2v-14c0 -14.6667 3 -25.8333 9 -33.5c6 -7.66666 18 -11.5 36 -11.5c4 0 10.6667 0.666656 20 2v27c-5.33334 -1.33334 -11.3333 -2 -18 -2c-8 0 -13 3.16666 -15 9.5
s-3 15.5 -3 27.5v178c0 31.3333 -11.1667 53.3333 -33.5 66c-22.3333 12.6667 -51.5 19 -87.5 19c-80 0 -124 -35.3333 -132 -106h32z" />
    <glyph glyph-name="guillemotleft" unicode="&#xab;" horiz-adv-x="389" 
d="M181 121v49l-85 102l85 100v51l-114 -131v-40zM309 121v49l-85 102l85 100v51l-114 -131v-40z" />
    <glyph glyph-name="logicalnot" unicode="&#xac;" horiz-adv-x="600" 
d="M514 108h38v261h-504v-38h466v-223z" />
    <glyph glyph-name="minus" unicode="&#xad;" horiz-adv-x="600" 
d="M552 233v38h-504v-38h504z" />
    <glyph glyph-name="minus" unicode="&#x2212;" horiz-adv-x="600" 
d="M552 233v38h-504v-38h504z" />
    <glyph glyph-name="registered" unicode="&#xae;" horiz-adv-x="800" 
d="M264 136h38v204h115l133 -204h42l-132 203c34 5.33334 61.5 17.6667 82.5 37c21 19.3333 31.5 46 31.5 80c0 40.6667 -11.6667 71.1666 -35 91.5c-23.3333 20.3333 -59.6667 30.5 -109 30.5h-166v-442zM302 545h122c31.3333 0 57.8333 -6.83331 79.5 -20.5
c21.6667 -13.6667 32.5 -36.1667 32.5 -67.5c0 -18 -4 -32.8333 -12 -44.5s-18.5 -20.1667 -31.5 -25.5s-27.3333 -9 -43 -11s-33.5 -3 -53.5 -3h-94v172zM401 698c47.3333 0 91.5 -8.66669 132.5 -26s76.6667 -41.5 107 -72.5s53.8333 -67.1667 70.5 -108.5
c16.6667 -41.3333 25 -85.6667 25 -133c0 -46.6667 -8.33331 -90.8333 -25 -132.5c-16.6667 -41.6667 -40.3334 -78.1667 -71 -109.5c-30.6667 -31.3333 -66.3334 -55.8333 -107 -73.5c-40.6667 -17.6667 -84.6667 -26.5 -132 -26.5c-46.6667 0 -90.6667 8.83333 -132 26.5
c-41.3333 17.6667 -77.3333 42 -108 73s-54.5 67.3333 -71.5 109c-17 41.6667 -25.5 85.8333 -25.5 132.5c0 47.3333 8.33334 91.8333 25 133.5c16.6667 41.6667 40.3333 78.1667 71 109.5s66.6667 55.5 108 72.5c41.3333 17 85.6667 25.5 133 25.5zM400 731
c-50.6667 0 -98.8333 -9.66669 -144.5 -29c-45.6667 -19.3333 -85.6667 -46.1666 -120 -80.5c-34.3333 -34.3333 -61.1667 -74.3333 -80.5 -120c-19.3333 -45.6667 -29 -93.8333 -29 -144.5c0 -50.6667 9.66666 -98.8333 29 -144.5
c19.3333 -45.6667 46.1667 -85.6667 80.5 -120c34.3333 -34.3333 74.3333 -61.1667 120 -80.5c45.6667 -19.3333 93.8333 -29 144.5 -29c50.6667 0 98.8333 9.66667 144.5 29s85.6667 46.1667 120 80.5c34.3333 34.3333 61.1666 74.3333 80.5 120
c19.3333 45.6667 29 93.8333 29 144.5c0 50.6667 -9.66669 98.8333 -29 144.5s-46.1666 85.6667 -80.5 120c-34.3333 34.3333 -74.3333 61.1666 -120 80.5c-45.6667 19.3333 -93.8333 29 -144.5 29z" />
    <glyph glyph-name="macron" unicode="&#xaf;" horiz-adv-x="167" 
d="M205 629v33h-242v-33h242z" />
    <glyph glyph-name="degree" unicode="&#xb0;" horiz-adv-x="400" 
d="M200 669c29.3333 0 54.1667 -10.6667 74.5 -32s30.5 -47.3333 30.5 -78s-10.1667 -56.6667 -30.5 -78c-20.3333 -21.3333 -45.1667 -32 -74.5 -32c-29.3333 0 -54.1667 10.6667 -74.5 32s-30.5 47.3334 -30.5 78c0 30.6667 10.1667 56.6667 30.5 78
c20.3333 21.3333 45.1667 32 74.5 32zM200 416c40 0 73.8333 13.8333 101.5 41.5s41.5 61.5 41.5 101.5s-13.8333 73.8333 -41.5 101.5s-61.5 41.5 -101.5 41.5c-40 0 -73.8333 -13.8333 -101.5 -41.5c-27.6667 -27.6667 -41.5 -61.5 -41.5 -101.5
s13.8333 -73.8333 41.5 -101.5s61.5 -41.5 101.5 -41.5z" />
    <glyph glyph-name="plusminus" unicode="&#xb1;" horiz-adv-x="600" 
d="M281 315h-233v-38h233v-189h38v189h233v38h-233v189h-38v-189zM48 0h504v38h-504v-38z" />
    <glyph glyph-name="twosuperior" unicode="&#xb2;" horiz-adv-x="333" 
d="M48 302c8 24 20.8333 43.8333 38.5 59.5s43.8333 33.8333 78.5 54.5l22 14c40 25.3333 71 49.8333 93 73.5c22 23.6667 33 50.5 33 80.5c0 38.6667 -13.1667 68 -39.5 88c-26.3333 20 -60.8333 30 -103.5 30c-49.3333 0 -85.1667 -13 -107.5 -39
s-35.1667 -63.3333 -38.5 -112h32c2 40 12 70.6667 30 92s46 32 84 32c36.6667 0 64.3333 -8.83331 83 -26.5s28 -38.8334 28 -63.5c0 -28 -10.3333 -51.8333 -31 -71.5c-20.6667 -19.6667 -51.6667 -42.1667 -93 -67.5l-6 -4c-42 -26 -74.6667 -51.1667 -98 -75.5
s-35.6667 -54.8333 -37 -91.5h300v27h-268z" />
    <glyph glyph-name="threesuperior" unicode="&#xb3;" horiz-adv-x="333" 
d="M18 415c0 -50 14.3333 -87.3333 43 -112c28.6667 -24.6667 69.6667 -37 123 -37c44 0 80.5 10.6667 109.5 32s43.5 52.3333 43.5 93c0 28 -8.83334 51.8333 -26.5 71.5s-41.5 30.8333 -71.5 33.5v2c26.6667 3.33334 48 13.8333 64 31.5c16 17.6667 24 38.8334 24 63.5
c0 36.6667 -13.8333 64 -41.5 82s-61.5 27 -101.5 27c-48.6667 0 -86.5 -12.8333 -113.5 -38.5s-40.8333 -60.5 -41.5 -104.5h32c1.33333 35.3333 12 63.5 32 84.5s48.6667 31.5 86 31.5c29.3333 0 56 -7.16669 80 -21.5s36 -34.5 36 -60.5
c0 -30.6667 -12.8333 -52.5 -38.5 -65.5c-25.6667 -13 -59.5 -19.5 -101.5 -19.5v-27h10c3.33333 0.666656 6.66666 1 10 1c38 0 69.1667 -7.33334 93.5 -22c24.3333 -14.6667 36.5 -37.6667 36.5 -69c0 -29.3333 -12.5 -53 -37.5 -71s-54.5 -27 -88.5 -27
c-40 0 -71.5 10.6667 -94.5 32s-34.5 51.3333 -34.5 90h-32z" />
    <glyph glyph-name="acute" unicode="&#xb4;" horiz-adv-x="167" 
d="M26 591h37l134 140h-51z" />
    <glyph glyph-name="mu" unicode="&#xb5;" horiz-adv-x="519" 
d="M463 514h-38v-278c0 -64 -16.6667 -115.833 -50 -155.5s-78.3333 -59.5 -135 -59.5c-32.6667 0 -59.1667 5.83333 -79.5 17.5c-20.3333 11.6667 -35.1667 26.3333 -44.5 44s-15.3333 35.1667 -18 52.5c-2.66666 17.3333 -4 35.3333 -4 54v325h-38v-698h38v228h2
c15.3333 -20 35.5 -34.3333 60.5 -43s52.5 -13 82.5 -13c41.3333 0 79.1667 11 113.5 33c34.3333 22 57.8333 51.6667 70.5 89h2v-110h38v514z" />
    <glyph glyph-name="paragraph" unicode="&#xb6;" horiz-adv-x="600" 
d="M273 -146h38v827h157v-827h38v860h-217c-70.6667 0 -125.5 -16.8333 -164.5 -50.5c-39 -33.6667 -58.5 -82.1667 -58.5 -145.5c0 -26 5.33334 -50.8333 16 -74.5s25.3333 -44.3333 44 -62c18.6667 -17.6667 40.6667 -31.6667 66 -42s52.3333 -15.5 81 -15.5v-470z" />
    <glyph glyph-name="periodcentered" unicode="&#xb7;" horiz-adv-x="278" 
d="M85 317c0 -14 5.5 -26.6667 16.5 -38s23.5 -17 37.5 -17c14.6667 0 27.5 5.5 38.5 16.5s16.5 23.8333 16.5 38.5c0 14 -5.66667 26.5 -17 37.5s-24 16.5 -38 16.5s-26.5 -5.5 -37.5 -16.5s-16.5 -23.5 -16.5 -37.5z" />
    <glyph glyph-name="periodcentered" unicode="&#x2219;" horiz-adv-x="278" 
d="M85 317c0 -14 5.5 -26.6667 16.5 -38s23.5 -17 37.5 -17c14.6667 0 27.5 5.5 38.5 16.5s16.5 23.8333 16.5 38.5c0 14 -5.66667 26.5 -17 37.5s-24 16.5 -38 16.5s-26.5 -5.5 -37.5 -16.5s-16.5 -23.5 -16.5 -37.5z" />
    <glyph glyph-name="cedilla" unicode="&#xb8;" horiz-adv-x="167" 
d="M83 0l-56 -75l16 -13c17.3333 8 35 12 53 12c11.3333 0 22.3333 -4 33 -12c10.6667 -8 16 -19.3333 16 -34c0 -16.6667 -6.16667 -28.6667 -18.5 -36c-12.3333 -7.33333 -27.1667 -11 -44.5 -11c-13.3333 0 -25.5 1.33333 -36.5 4s-23.5 6.66667 -37.5 12l-6 2l-11 -24
c10.6667 -6 23.6667 -11 39 -15s32.3333 -6 51 -6c32 0 57 6 75 18s27 30.6667 27 56c0 24 -7.33333 42.1667 -22 54.5s-32.3333 18.5 -53 18.5c-11.3333 0 -23.6667 -3 -37 -9l-2 2l48 56h-34z" />
    <glyph glyph-name="onesuperior" unicode="&#xb9;" horiz-adv-x="333" 
d="M208 693h-29c-13.3333 -19.3333 -30.6667 -35.5 -52 -48.5s-44 -21.1667 -68 -24.5v-27c47.3333 4 86.3333 21.6667 117 53v-371h32v418z" />
    <glyph glyph-name="ordmasculine" unicode="&#xba;" horiz-adv-x="334" 
d="M167 366c49.3333 0 88 15.6667 116 47s42 71.6667 42 121s-14 89.6666 -42 121c-28 31.3333 -66.6667 47 -116 47s-88 -15.6667 -116 -47s-42 -71.6666 -42 -121c0 -49.3333 14 -89.6667 42 -121c28 -31.3333 66.6667 -47 116 -47zM167 393
c-41.3333 0 -72.6667 13.5 -94 40.5s-32 60.5 -32 100.5s10.6667 73.5 32 100.5s52.6667 40.5 94 40.5s72.6667 -13.5 94 -40.5s32 -60.5 32 -100.5s-10.6667 -73.5 -32 -100.5c-21.3333 -27 -52.6667 -40.5 -94 -40.5z" />
    <glyph glyph-name="guillemotright" unicode="&#xbb;" horiz-adv-x="389" 
d="M80 121l114 131v40l-114 131v-51l85 -100l-85 -102v-49zM208 121l114 131v40l-114 131v-51l85 -100l-85 -102v-49z" />
    <glyph glyph-name="onequarter" unicode="&#xbc;" horiz-adv-x="834" 
d="M151 -24h40l465 738h-40zM243 693h-29c-13.3333 -19.3333 -30.6667 -35.5 -52 -48.5c-21.3333 -13 -44 -21.1667 -68 -24.5v-27c47.3333 4 86.3333 21.6667 117 53v-371h32v418zM626 414l-200 -283v-27h215v-104h32v104h71v27h-71v283h-47zM641 131h-179l177 250h2v-250z
" />
    <glyph glyph-name="onehalf" unicode="&#xbd;" horiz-adv-x="834" 
d="M121 -24h40l465 738h-40zM213 693h-29c-13.3333 -19.3333 -30.6667 -35.5 -52 -48.5s-44 -21.1667 -68 -24.5v-27c47.3333 4 86.3333 21.6667 117 53v-371h32v418zM517 27c7.33331 24 19.6666 43.8333 37 59.5c17.3333 15.6667 43.3333 33.8333 78 54.5
c8 5.33333 15.3333 10 22 14c40 25.3333 71 49.8333 93 73.5s33 50.5 33 80.5c0 38.6667 -13.1667 68 -39.5 88s-60.8333 30 -103.5 30c-49.3333 0 -85.1666 -13 -107.5 -39c-22.3333 -26 -35.1667 -63.3333 -38.5 -112h32c2 40 12 70.6667 30 92s46 32 84 32
c36.6667 0 64.3334 -8.83334 83 -26.5c18.6667 -17.6667 28 -38.8333 28 -63.5c0 -28 -10.3333 -51.8333 -31 -71.5c-20.6667 -19.6667 -51.6667 -42.1667 -93 -67.5l-6 -4c-42 -26 -74.6667 -51.1667 -98 -75.5c-23.3333 -24.3333 -35.6667 -54.8333 -37 -91.5h300v27h-266
z" />
    <glyph glyph-name="threequarters" unicode="&#xbe;" horiz-adv-x="834" 
d="M33 415c0 -50 14.3333 -87.3333 43 -112c28.6667 -24.6667 69.6667 -37 123 -37c44 0 80.5 10.6667 109.5 32s43.5 52.3333 43.5 93c0 28 -8.83334 51.8333 -26.5 71.5s-41.5 30.8333 -71.5 33.5v2c26.6667 3.33334 48 13.8333 64 31.5c16 17.6667 24 38.8334 24 63.5
c0 36.6667 -13.8333 64 -41.5 82s-61.5 27 -101.5 27c-48.6667 0 -86.5 -12.8333 -113.5 -38.5s-40.8333 -60.5 -41.5 -104.5h32c1.33334 35.3333 12 63.5 32 84.5s48.6667 31.5 86 31.5c29.3333 0 56 -7.16669 80 -21.5s36 -34.5 36 -60.5
c0 -30.6667 -12.8333 -52.5 -38.5 -65.5c-25.6667 -13 -59.5 -19.5 -101.5 -19.5v-27h10c3.33333 0.666656 6.66666 1 10 1c38 0 69.1667 -7.33334 93.5 -22s36.5 -37.6667 36.5 -69c0 -29.3333 -12.5 -53 -37.5 -71s-54.5 -27 -88.5 -27c-40 0 -71.5 10.6667 -94.5 32
s-34.5 51.3333 -34.5 90h-32zM198 -24h40l465 738h-40zM656 414l-200 -283v-27h215v-104h32v104h71v27h-71v283h-47zM671 131h-179l177 250h2v-250z" />
    <glyph glyph-name="questiondown" unicode="&#xbf;" horiz-adv-x="519" 
d="M437 42c0 -59.3333 -15.6667 -107.5 -47 -144.5s-76 -55.5 -134 -55.5c-45.3333 0 -83.5 11.8333 -114.5 35.5c-31 23.6667 -46.5 58.8333 -46.5 105.5c0 31.3333 8.5 59.3333 25.5 84s41.5 52 73.5 82c28.6667 27.3333 50.5 56.1667 65.5 86.5s22.5 69.8333 22.5 118.5
h-38c0 -27.3333 -2.83333 -51.5 -8.5 -72.5s-13 -39.1667 -22 -54.5s-18.5 -28 -28.5 -38s-22.6667 -21.6667 -38 -35l-1 -1l-4 -4c-28.6667 -28 -50 -53.3333 -64 -76s-21 -52.6667 -21 -90c0 -58 18.6667 -102.333 56 -133c37.3333 -30.6667 84 -46 140 -46
c71.3333 0 126.167 21.5 164.5 64.5c38.3333 43 57.5 100.833 57.5 173.5h-38zM287 535h-51v-103h51v103z" />
    <glyph glyph-name="Agrave" unicode="&#xc0;" horiz-adv-x="593" 
d="M354 764l-120 140h-51l134 -140h37zM275 714l-287 -714h47l91 229h342l90 -229h47l-282 714h-48zM140 267l159 404h2l153 -404h-314z" />
    <glyph glyph-name="Aacute" unicode="&#xc1;" horiz-adv-x="593" 
d="M239 764h37l134 140h-51zM275 714l-287 -714h47l91 229h342l90 -229h47l-282 714h-48zM140 267l159 404h2l153 -404h-314z" />
    <glyph glyph-name="Acircumflex" unicode="&#xc2;" horiz-adv-x="593" 
d="M276 904l-115 -140h38l97 115l98 -115h38l-116 140h-40zM275 714l-287 -714h47l91 229h342l90 -229h47l-282 714h-48zM140 267l159 404h2l153 -404h-314z" />
    <glyph glyph-name="Atilde" unicode="&#xc3;" horiz-adv-x="593" 
d="M181 775c2.66667 15.3333 7.66667 28.6666 15 40c7.33333 11.3333 17.3333 17 30 17c10.6667 0 21.1667 -2.33331 31.5 -7c10.3333 -4.66669 23.1667 -11.6667 38.5 -21l4 -3c14 -8 25.8333 -14.3333 35.5 -19s19.5 -7 29.5 -7c12 0 22.5 2.66669 31.5 8
s16.8333 12.3333 23.5 21c10.6667 14 17.6667 34.3333 21 61h-29c-2 -15.3333 -6.83334 -28.6666 -14.5 -40c-7.66666 -11.3333 -17.8333 -17 -30.5 -17c-10.6667 0 -28 7 -52 21c-7.33334 4 -12.6667 7 -16 9l-7 4c-28 15.3333 -49 23 -63 23c-22 0 -39.8333 -9 -53.5 -27
s-21.5 -39 -23.5 -63h29zM275 714l-287 -714h47l91 229h342l90 -229h47l-282 714h-48zM140 267l159 404h2l153 -404h-314z" />
    <glyph glyph-name="Adieresis" unicode="&#xc4;" horiz-adv-x="593" 
d="M239 767v103h-44v-103h44zM397 767v103h-44v-103h44zM275 714l-287 -714h47l91 229h342l90 -229h47l-282 714h-48zM140 267l159 404h2l153 -404h-314z" />
    <glyph glyph-name="Aring" unicode="&#xc5;" horiz-adv-x="593" 
d="M192 828c0 -27.3333 9.66667 -50.6666 29 -70c19.3333 -19.3333 42.6667 -29 70 -29s50.6667 9.66669 70 29c19.3333 19.3333 29 42.6666 29 70c0 27.3333 -9.66666 50.6666 -29 70c-19.3333 19.3333 -42.6667 29 -70 29c-27.3333 0 -50.6667 -9.66669 -70 -29
s-29 -42.6666 -29 -70zM219 828c0 20 7 37 21 51s31 21 51 21s37 -7 51 -21s21 -31 21 -51s-7 -37 -21 -51s-31 -21 -51 -21s-37 7 -51 21s-21 31 -21 51zM275 714l-287 -714h47l91 229h342l90 -229h47l-282 714h-48zM140 267l159 404h2l153 -404h-314z" />
    <glyph glyph-name="AE" unicode="&#xc6;" horiz-adv-x="870" 
d="M-9 0h40l132 254h268v-254h424v38h-380v314h350v38h-350v286h379v38h-490zM431 292h-248l201 384h47v-384z" />
    <glyph glyph-name="Ccedilla" unicode="&#xc7;" horiz-adv-x="704" 
d="M663 501c-0.666687 9.33334 -4.83337 25.6667 -12.5 49c-7.66669 23.3333 -21.5 49 -41.5 77s-49.3333 52.3333 -88 73c-38.6667 20.6667 -87 31 -145 31c-52 0 -99.1667 -9.5 -141.5 -28.5c-42.3333 -19 -78.3333 -45.5 -108 -79.5
c-29.6667 -34 -52.1667 -73.8333 -67.5 -119.5c-15.3333 -45.6667 -23 -94.5 -23 -146.5c0 -49.3333 6.83333 -95.6667 20.5 -139c13.6667 -43.3333 33.6667 -81.6667 60 -115c26.3333 -33.3333 58.3333 -60.3333 96 -81s80.1667 -33 127.5 -37l-44 -60l16 -13
c17.3333 8 35 12 53 12c11.3333 0 22.3333 -4 33 -12s16 -19.3333 16 -34c0 -16.6667 -6.16666 -28.6667 -18.5 -36s-27.1667 -11 -44.5 -11c-13.3333 0 -25.5 1.33333 -36.5 4s-23.5 6.66667 -37.5 12l-6 2l-11 -24c10.6667 -6 23.6667 -11 39 -15s32.3333 -6 51 -6
c32 0 57 6 75 18s27 30.6667 27 56c0 24 -7.33334 42.1667 -22 54.5s-32.3333 18.5 -53 18.5c-11.3333 0 -23.6667 -3 -37 -9l-2 2l33 39h5c38.6667 0 75.3333 7.33333 110 22s65.5 35.3333 92.5 62s48.8333 58 65.5 94s27 75 31 117h-44
c-2 -32.6667 -9.83331 -64.5 -23.5 -95.5s-32.1667 -58.6667 -55.5 -83s-50 -43.5 -80 -57.5c-30 -14 -62 -21 -96 -21c-45.3333 0 -86.5 8.66667 -123.5 26c-37 17.3333 -68.3333 41.5 -94 72.5s-45.1667 66.8333 -58.5 107.5c-13.3333 40.6667 -20 84 -20 130
s6.66666 89.3333 20 130c13.3333 40.6667 32.8333 76.5 58.5 107.5c25.6667 31 57 55.1667 94 72.5s78.1667 26 123.5 26c61.3333 0 114.833 -17.3333 160.5 -52c45.6667 -34.6667 73.1667 -81.3334 82.5 -140h44z" />
    <glyph glyph-name="Egrave" unicode="&#xc8;" horiz-adv-x="560" 
d="M338 764l-120 140h-51l134 -140h37zM107 38v314h410v38h-410v286h436v38h-480v-714h485v38h-441z" />
    <glyph glyph-name="Eacute" unicode="&#xc9;" horiz-adv-x="560" 
d="M223 764h37l134 140h-51zM107 38v314h410v38h-410v286h436v38h-480v-714h485v38h-441z" />
    <glyph glyph-name="Ecircumflex" unicode="&#xca;" horiz-adv-x="560" 
d="M260 904l-115 -140h38l97 115l98 -115h38l-116 140h-40zM107 38v314h410v38h-410v286h436v38h-480v-714h485v38h-441z" />
    <glyph glyph-name="Edieresis" unicode="&#xcb;" horiz-adv-x="560" 
d="M233 767v103h-44v-103h44zM391 767v103h-44v-103h44zM107 38v314h410v38h-410v286h436v38h-480v-714h485v38h-441z" />
    <glyph glyph-name="Igrave" unicode="&#xcc;" horiz-adv-x="170" 
d="M143 764l-120 140h-51l134 -140h37zM63 0h44v714h-44v-714z" />
    <glyph glyph-name="Iacute" unicode="&#xcd;" horiz-adv-x="170" 
d="M28 764h37l134 140h-51zM63 0h44v714h-44v-714z" />
    <glyph glyph-name="Icircumflex" unicode="&#xce;" horiz-adv-x="170" 
d="M65 904l-115 -140h38l97 115l98 -115h38l-116 140h-40zM63 0h44v714h-44v-714z" />
    <glyph glyph-name="Idieresis" unicode="&#xcf;" horiz-adv-x="170" 
d="M28 767v103h-44v-103h44zM186 767v103h-44v-103h44zM63 0h44v714h-44v-714z" />
    <glyph glyph-name="Eth" unicode="&#xd0;" horiz-adv-x="667" 
d="M63 396h-68v-33h68v-363h232c56 0 105 9 147 27s76.6667 43.1667 104 75.5c27.3333 32.3333 47.6666 70.1667 61 113.5c13.3333 43.3333 20 90.6667 20 142c0 48 -5.5 93 -16.5 135s-29.1667 79.6667 -54.5 113s-59.5 59.6666 -102.5 79
c-43 19.3333 -95.1667 29 -156.5 29h-234v-318zM107 396v280h183c34 0 66.8333 -3.33331 98.5 -10s62.5 -20.8334 92.5 -42.5c30 -21.6667 54.5 -54.1667 73.5 -97.5c19 -43.3333 28.5 -99.3333 28.5 -168c0 -58.6667 -8.16669 -108.833 -24.5 -150.5
s-38.1666 -75 -65.5 -100c-27.3333 -25 -57.5 -42.8333 -90.5 -53.5c-33 -10.6667 -67.5 -16 -103.5 -16h-192v325h264v33h-264z" />
    <glyph glyph-name="Ntilde" unicode="&#xd1;" horiz-adv-x="678" 
d="M224 775c2.66667 15.3333 7.66667 28.6666 15 40c7.33333 11.3333 17.3333 17 30 17c10.6667 0 21.1667 -2.33331 31.5 -7s23.1667 -11.6667 38.5 -21l4 -3c14 -8 25.8333 -14.3333 35.5 -19s19.5 -7 29.5 -7c12 0 22.5 2.66669 31.5 8s16.8333 12.3333 23.5 21
c10.6667 14 17.6667 34.3333 21 61h-29c-2 -15.3333 -6.83334 -28.6666 -14.5 -40c-7.66666 -11.3333 -17.8333 -17 -30.5 -17c-10.6667 0 -28 7 -52 21c-7.33334 4 -12.6667 7 -16 9l-7 4c-28 15.3333 -49 23 -63 23c-22 0 -39.8333 -9 -53.5 -27s-21.5 -39 -23.5 -63h29z
M63 0h44v660h2l454 -660h52v714h-44v-655h-2l-451 655h-55v-714z" />
    <glyph glyph-name="Ograve" unicode="&#xd2;" horiz-adv-x="741" 
d="M428 764l-120 140h-51l134 -140h37zM710 357c0 52 -7.66669 100.833 -23 146.5c-15.3333 45.6667 -37.6666 85.5 -67 119.5c-29.3333 34 -65.1666 60.5 -107.5 79.5c-42.3333 19 -89.5 28.5 -141.5 28.5s-99.1667 -9.5 -141.5 -28.5
c-42.3333 -19 -78.3333 -45.5 -108 -79.5c-29.6667 -34 -52.1667 -73.8333 -67.5 -119.5c-15.3333 -45.6667 -23 -94.5 -23 -146.5s7.66666 -100.833 23 -146.5c15.3333 -45.6667 37.8333 -85.5 67.5 -119.5c29.6667 -34 65.6667 -60.5 108 -79.5
c42.3333 -19 89.5 -28.5 141.5 -28.5s99.1667 9.5 141.5 28.5c42.3333 19 78.1666 45.5 107.5 79.5c29.3333 34 51.6666 73.8333 67 119.5c15.3333 45.6667 23 94.5 23 146.5zM75 357c0 46 6.66666 89.3333 20 130c13.3333 40.6667 32.8333 76.5 58.5 107.5
c25.6667 31 57 55.1667 94 72.5s78.1667 26 123.5 26s86.3333 -8.66669 123 -26c36.6667 -17.3333 67.8334 -41.5 93.5 -72.5c25.6667 -31 45.1667 -66.8333 58.5 -107.5c13.3333 -40.6667 20 -84 20 -130c0 -45.3333 -6.66669 -88.5 -20 -129.5s-32.8333 -77 -58.5 -108
s-56.8334 -55.1667 -93.5 -72.5c-36.6667 -17.3333 -77.6667 -26 -123 -26s-86.5 8.66667 -123.5 26c-37 17.3333 -68.3333 41.5 -94 72.5c-25.6667 31 -45.1667 66.8333 -58.5 107.5c-13.3333 40.6667 -20 84 -20 130z" />
    <glyph glyph-name="Oacute" unicode="&#xd3;" horiz-adv-x="741" 
d="M313 764h37l134 140h-51zM710 357c0 52 -7.66669 100.833 -23 146.5c-15.3333 45.6667 -37.6666 85.5 -67 119.5c-29.3333 34 -65.1666 60.5 -107.5 79.5c-42.3333 19 -89.5 28.5 -141.5 28.5s-99.1667 -9.5 -141.5 -28.5c-42.3333 -19 -78.3333 -45.5 -108 -79.5
c-29.6667 -34 -52.1667 -73.8333 -67.5 -119.5c-15.3333 -45.6667 -23 -94.5 -23 -146.5s7.66666 -100.833 23 -146.5c15.3333 -45.6667 37.8333 -85.5 67.5 -119.5c29.6667 -34 65.6667 -60.5 108 -79.5c42.3333 -19 89.5 -28.5 141.5 -28.5s99.1667 9.5 141.5 28.5
c42.3333 19 78.1666 45.5 107.5 79.5c29.3333 34 51.6666 73.8333 67 119.5c15.3333 45.6667 23 94.5 23 146.5zM75 357c0 46 6.66666 89.3333 20 130c13.3333 40.6667 32.8333 76.5 58.5 107.5c25.6667 31 57 55.1667 94 72.5s78.1667 26 123.5 26
s86.3333 -8.66669 123 -26c36.6667 -17.3333 67.8334 -41.5 93.5 -72.5c25.6667 -31 45.1667 -66.8333 58.5 -107.5c13.3333 -40.6667 20 -84 20 -130c0 -45.3333 -6.66669 -88.5 -20 -129.5s-32.8333 -77 -58.5 -108s-56.8334 -55.1667 -93.5 -72.5
c-36.6667 -17.3333 -77.6667 -26 -123 -26s-86.5 8.66667 -123.5 26c-37 17.3333 -68.3333 41.5 -94 72.5c-25.6667 31 -45.1667 66.8333 -58.5 107.5c-13.3333 40.6667 -20 84 -20 130z" />
    <glyph glyph-name="Ocircumflex" unicode="&#xd4;" horiz-adv-x="741" 
d="M350 904l-115 -140h38l97 115l98 -115h38l-116 140h-40zM710 357c0 52 -7.66669 100.833 -23 146.5c-15.3333 45.6667 -37.6666 85.5 -67 119.5c-29.3333 34 -65.1666 60.5 -107.5 79.5c-42.3333 19 -89.5 28.5 -141.5 28.5s-99.1667 -9.5 -141.5 -28.5
c-42.3333 -19 -78.3333 -45.5 -108 -79.5c-29.6667 -34 -52.1667 -73.8333 -67.5 -119.5c-15.3333 -45.6667 -23 -94.5 -23 -146.5s7.66666 -100.833 23 -146.5c15.3333 -45.6667 37.8333 -85.5 67.5 -119.5c29.6667 -34 65.6667 -60.5 108 -79.5
c42.3333 -19 89.5 -28.5 141.5 -28.5s99.1667 9.5 141.5 28.5c42.3333 19 78.1666 45.5 107.5 79.5c29.3333 34 51.6666 73.8333 67 119.5c15.3333 45.6667 23 94.5 23 146.5zM75 357c0 46 6.66666 89.3333 20 130c13.3333 40.6667 32.8333 76.5 58.5 107.5
c25.6667 31 57 55.1667 94 72.5s78.1667 26 123.5 26s86.3333 -8.66669 123 -26c36.6667 -17.3333 67.8334 -41.5 93.5 -72.5c25.6667 -31 45.1667 -66.8333 58.5 -107.5c13.3333 -40.6667 20 -84 20 -130c0 -45.3333 -6.66669 -88.5 -20 -129.5s-32.8333 -77 -58.5 -108
s-56.8334 -55.1667 -93.5 -72.5c-36.6667 -17.3333 -77.6667 -26 -123 -26s-86.5 8.66667 -123.5 26c-37 17.3333 -68.3333 41.5 -94 72.5c-25.6667 31 -45.1667 66.8333 -58.5 107.5c-13.3333 40.6667 -20 84 -20 130z" />
    <glyph glyph-name="Otilde" unicode="&#xd5;" horiz-adv-x="741" 
d="M255 775c2.66666 15.3333 7.66666 28.6666 15 40c7.33334 11.3333 17.3333 17 30 17c10.6667 0 21.1667 -2.33331 31.5 -7s23.1667 -11.6667 38.5 -21l4 -3c14 -8 25.8333 -14.3333 35.5 -19s19.5 -7 29.5 -7c12 0 22.5 2.66669 31.5 8s16.8333 12.3333 23.5 21
c10.6667 14 17.6667 34.3333 21 61h-29c-2 -15.3333 -6.83334 -28.6666 -14.5 -40c-7.66666 -11.3333 -17.8333 -17 -30.5 -17c-10.6667 0 -28 7 -52 21c-7.33334 4 -12.6667 7 -16 9l-7 4c-28 15.3333 -49 23 -63 23c-22 0 -39.8333 -9 -53.5 -27
c-13.6667 -18 -21.5 -39 -23.5 -63h29zM710 357c0 52 -7.66669 100.833 -23 146.5c-15.3333 45.6667 -37.6666 85.5 -67 119.5c-29.3333 34 -65.1666 60.5 -107.5 79.5c-42.3333 19 -89.5 28.5 -141.5 28.5s-99.1667 -9.5 -141.5 -28.5
c-42.3333 -19 -78.3333 -45.5 -108 -79.5c-29.6667 -34 -52.1667 -73.8333 -67.5 -119.5c-15.3333 -45.6667 -23 -94.5 -23 -146.5s7.66666 -100.833 23 -146.5c15.3333 -45.6667 37.8333 -85.5 67.5 -119.5c29.6667 -34 65.6667 -60.5 108 -79.5
c42.3333 -19 89.5 -28.5 141.5 -28.5s99.1667 9.5 141.5 28.5c42.3333 19 78.1666 45.5 107.5 79.5c29.3333 34 51.6666 73.8333 67 119.5c15.3333 45.6667 23 94.5 23 146.5zM75 357c0 46 6.66666 89.3333 20 130c13.3333 40.6667 32.8333 76.5 58.5 107.5
c25.6667 31 57 55.1667 94 72.5s78.1667 26 123.5 26s86.3333 -8.66669 123 -26c36.6667 -17.3333 67.8334 -41.5 93.5 -72.5c25.6667 -31 45.1667 -66.8333 58.5 -107.5c13.3333 -40.6667 20 -84 20 -130c0 -45.3333 -6.66669 -88.5 -20 -129.5s-32.8333 -77 -58.5 -108
s-56.8334 -55.1667 -93.5 -72.5c-36.6667 -17.3333 -77.6667 -26 -123 -26s-86.5 8.66667 -123.5 26c-37 17.3333 -68.3333 41.5 -94 72.5c-25.6667 31 -45.1667 66.8333 -58.5 107.5c-13.3333 40.6667 -20 84 -20 130z" />
    <glyph glyph-name="Odieresis" unicode="&#xd6;" horiz-adv-x="741" 
d="M313 767v103h-44v-103h44zM471 767v103h-44v-103h44zM710 357c0 52 -7.66669 100.833 -23 146.5c-15.3333 45.6667 -37.6666 85.5 -67 119.5c-29.3333 34 -65.1666 60.5 -107.5 79.5c-42.3333 19 -89.5 28.5 -141.5 28.5s-99.1667 -9.5 -141.5 -28.5
c-42.3333 -19 -78.3333 -45.5 -108 -79.5c-29.6667 -34 -52.1667 -73.8333 -67.5 -119.5c-15.3333 -45.6667 -23 -94.5 -23 -146.5s7.66666 -100.833 23 -146.5c15.3333 -45.6667 37.8333 -85.5 67.5 -119.5c29.6667 -34 65.6667 -60.5 108 -79.5
c42.3333 -19 89.5 -28.5 141.5 -28.5s99.1667 9.5 141.5 28.5c42.3333 19 78.1666 45.5 107.5 79.5c29.3333 34 51.6666 73.8333 67 119.5c15.3333 45.6667 23 94.5 23 146.5zM75 357c0 46 6.66666 89.3333 20 130c13.3333 40.6667 32.8333 76.5 58.5 107.5
c25.6667 31 57 55.1667 94 72.5s78.1667 26 123.5 26s86.3333 -8.66669 123 -26c36.6667 -17.3333 67.8334 -41.5 93.5 -72.5c25.6667 -31 45.1667 -66.8333 58.5 -107.5c13.3333 -40.6667 20 -84 20 -130c0 -45.3333 -6.66669 -88.5 -20 -129.5s-32.8333 -77 -58.5 -108
s-56.8334 -55.1667 -93.5 -72.5c-36.6667 -17.3333 -77.6667 -26 -123 -26s-86.5 8.66667 -123.5 26c-37 17.3333 -68.3333 41.5 -94 72.5c-25.6667 31 -45.1667 66.8333 -58.5 107.5c-13.3333 40.6667 -20 84 -20 130z" />
    <glyph glyph-name="multiply" unicode="&#xd7;" horiz-adv-x="600" 
d="M79 58l26 -27l195 195l194 -195l27 27l-194 194l194 195l-27 27l-194 -195l-195 195l-26 -27l194 -195z" />
    <glyph glyph-name="Oslash" unicode="&#xd8;" horiz-adv-x="741" 
d="M598 582c22 -30 38.8333 -64.3333 50.5 -103c11.6667 -38.6667 17.5 -79.3333 17.5 -122c0 -45.3333 -6.66669 -88.5 -20 -129.5s-32.8333 -77 -58.5 -108s-56.8334 -55.1667 -93.5 -72.5c-36.6667 -17.3333 -77.6667 -26 -123 -26c-42 0 -80.3333 7.5 -115 22.5
c-34.6667 15 -65 36.5 -91 64.5zM143 134c-45.3333 60.6667 -68 135 -68 223c0 46 6.66666 89.3333 20 130c13.3333 40.6667 32.8333 76.5 58.5 107.5c25.6667 31 57 55.1667 94 72.5s78.1667 26 123.5 26c81.3333 0 149.333 -28 204 -84zM34 16l26 -24l76 84
c28.6667 -30 63 -53 103 -69s84 -24 132 -24c52 0 99.1667 9.5 141.5 28.5c42.3333 19 78.1666 45.5 107.5 79.5c29.3333 34 51.6666 73.8333 67 119.5c15.3333 45.6667 23 94.5 23 146.5c0 50.6667 -7 97.8333 -21 141.5s-34.6667 82.1667 -62 115.5l70 76l-26 24l-68 -74
c-29.3333 29.3333 -63.5 51.8333 -102.5 67.5s-82.1667 23.5 -129.5 23.5c-52 0 -99.1667 -9.5 -141.5 -28.5c-42.3333 -19 -78.3333 -45.5 -108 -79.5c-29.6667 -34 -52.1667 -73.8333 -67.5 -119.5c-15.3333 -45.6667 -23 -94.5 -23 -146.5
c0 -49.3333 7 -95.8333 21 -139.5c14 -43.6667 34.3333 -82.1667 61 -115.5z" />
    <glyph glyph-name="Ugrave" unicode="&#xd9;" horiz-adv-x="672" 
d="M394 764l-120 140h-51l134 -140h37zM63 714v-428c0 -32.6667 2.66666 -65 8 -97s16.6667 -63.8333 34 -95.5c17.3333 -31.6667 44.5 -58 81.5 -79s85.1667 -31.5 144.5 -31.5c52 0 96 7.5 132 22.5s64.6667 36.1667 86 63.5s36.6666 59.1667 46 95.5
c9.33331 36.3333 14 76.8333 14 121.5v428h-44v-428c0 -42 -4.16669 -79.1667 -12.5 -111.5s-21.5 -59.8333 -39.5 -82.5c-18 -22.6667 -42 -40.1667 -72 -52.5c-30 -12.3333 -66.6667 -18.5 -110 -18.5c-48 0 -87.3333 9 -118 27s-53.5 40.8333 -68.5 68.5
c-15 27.6667 -25 55.8333 -30 84.5c-5 28.6667 -7.5 57 -7.5 85v428h-44z" />
    <glyph glyph-name="Uacute" unicode="&#xda;" horiz-adv-x="672" 
d="M279 764h37l134 140h-51zM63 714v-428c0 -32.6667 2.66666 -65 8 -97s16.6667 -63.8333 34 -95.5c17.3333 -31.6667 44.5 -58 81.5 -79s85.1667 -31.5 144.5 -31.5c52 0 96 7.5 132 22.5s64.6667 36.1667 86 63.5s36.6666 59.1667 46 95.5
c9.33331 36.3333 14 76.8333 14 121.5v428h-44v-428c0 -42 -4.16669 -79.1667 -12.5 -111.5s-21.5 -59.8333 -39.5 -82.5c-18 -22.6667 -42 -40.1667 -72 -52.5c-30 -12.3333 -66.6667 -18.5 -110 -18.5c-48 0 -87.3333 9 -118 27s-53.5 40.8333 -68.5 68.5
c-15 27.6667 -25 55.8333 -30 84.5c-5 28.6667 -7.5 57 -7.5 85v428h-44z" />
    <glyph glyph-name="Ucircumflex" unicode="&#xdb;" horiz-adv-x="672" 
d="M316 904l-115 -140h38l97 115l98 -115h38l-116 140h-40zM63 714v-428c0 -32.6667 2.66666 -65 8 -97s16.6667 -63.8333 34 -95.5c17.3333 -31.6667 44.5 -58 81.5 -79s85.1667 -31.5 144.5 -31.5c52 0 96 7.5 132 22.5s64.6667 36.1667 86 63.5s36.6666 59.1667 46 95.5
c9.33331 36.3333 14 76.8333 14 121.5v428h-44v-428c0 -42 -4.16669 -79.1667 -12.5 -111.5s-21.5 -59.8333 -39.5 -82.5c-18 -22.6667 -42 -40.1667 -72 -52.5c-30 -12.3333 -66.6667 -18.5 -110 -18.5c-48 0 -87.3333 9 -118 27s-53.5 40.8333 -68.5 68.5
c-15 27.6667 -25 55.8333 -30 84.5c-5 28.6667 -7.5 57 -7.5 85v428h-44z" />
    <glyph glyph-name="Udieresis" unicode="&#xdc;" horiz-adv-x="672" 
d="M279 767v103h-44v-103h44zM437 767v103h-44v-103h44zM63 714v-428c0 -32.6667 2.66666 -65 8 -97s16.6667 -63.8333 34 -95.5c17.3333 -31.6667 44.5 -58 81.5 -79s85.1667 -31.5 144.5 -31.5c52 0 96 7.5 132 22.5s64.6667 36.1667 86 63.5s36.6666 59.1667 46 95.5
c9.33331 36.3333 14 76.8333 14 121.5v428h-44v-428c0 -42 -4.16669 -79.1667 -12.5 -111.5s-21.5 -59.8333 -39.5 -82.5c-18 -22.6667 -42 -40.1667 -72 -52.5c-30 -12.3333 -66.6667 -18.5 -110 -18.5c-48 0 -87.3333 9 -118 27s-53.5 40.8333 -68.5 68.5
c-15 27.6667 -25 55.8333 -30 84.5c-5 28.6667 -7.5 57 -7.5 85v428h-44z" />
    <glyph glyph-name="Yacute" unicode="&#xdd;" horiz-adv-x="574" 
d="M230 764h37l134 140h-51zM287 336l-258 378h-50l285 -415v-299h44v299l287 415h-49z" />
    <glyph glyph-name="Thorn" unicode="&#xde;" horiz-adv-x="593" 
d="M63 0h44v198h244c71.3333 0 126.5 17.1667 165.5 51.5c39 34.3333 58.5 82.8333 58.5 145.5c0 40.6667 -6.66669 74.3333 -20 101s-30.3333 47 -51 61c-20.6667 14 -42.6667 23.6667 -66 29s-47 8 -71 8h-260v120h-44v-714zM107 556h257
c33.3333 0 61.1667 -5.33331 83.5 -16c22.3333 -10.6667 39.5 -24.5 51.5 -41.5s20.3333 -34.3333 25 -52s7 -34.5 7 -50.5c0 -20 -3.16669 -39.3333 -9.5 -58s-16.3333 -35.6667 -30 -51c-13.6667 -15.3333 -31.6667 -27.6667 -54 -37
c-22.3333 -9.33333 -48.8333 -14 -79.5 -14h-251v320z" />
    <glyph glyph-name="germandbls" unicode="&#xdf;" horiz-adv-x="500" 
d="M207 379c33.3333 0 62.8333 -2.5 88.5 -7.5c25.6667 -5 48.3333 -13.6667 68 -26c19.6667 -12.3333 34.8333 -29.3333 45.5 -51c10.6667 -21.6667 16 -48.5 16 -80.5c0 -38.6667 -6.16666 -70.3333 -18.5 -95s-28 -43.1667 -47 -55.5s-38 -20.5 -57 -24.5
s-38.1667 -6 -57.5 -6h-38v-33h55c20 0 40.8333 2.5 62.5 7.5s43.1667 14.6667 64.5 29s39 36.1667 53 65.5c14 29.3333 21 66.6667 21 112c0 52.6667 -13 95.5 -39 128.5s-64.3333 52.5 -115 58.5v2c40 8.66666 69.8333 26.5 89.5 53.5s29.5 61.5 29.5 103.5
c0 54 -17.5 95.1667 -52.5 123.5s-80.1667 42.5 -135.5 42.5c-60.6667 0 -106.167 -16.1667 -136.5 -48.5c-30.3333 -32.3333 -45.5 -79.1666 -45.5 -140.5v-537h38v537c0 50 11.8333 88.5 35.5 115.5c23.6667 27 59.8333 40.5 108.5 40.5
c43.3333 0 79.1667 -11.6667 107.5 -35c28.3333 -23.3333 42.5 -56 42.5 -98c0 -25.3333 -4.83334 -47.5 -14.5 -66.5s-23 -34.5 -40 -46.5s-36.5 -20.8333 -58.5 -26.5s-45.3333 -8.5 -70 -8.5v-33z" />
    <glyph glyph-name="agrave" unicode="&#xe0;" horiz-adv-x="500" 
d="M308 591l-120 140h-51l134 -140h37zM397 196c0 -11.3333 -2.33334 -26 -7 -44s-13.6667 -37.1667 -27 -57.5s-33 -37.6667 -59 -52s-59 -21.5 -99 -21.5c-43.3333 0 -76.6667 10.5 -100 31.5s-35 47.8333 -35 80.5c0 37.3333 11.8333 65.1667 35.5 83.5
c23.6667 18.3333 58.8333 30.1667 105.5 35.5c12 2 31.3333 4 58 6c36 2.66666 63.8333 6.16666 83.5 10.5s34.5 12.1667 44.5 23.5v-96zM435 392c0 25.3333 -4.83334 46.8333 -14.5 64.5s-23 31.5 -40 41.5s-36 17.1667 -57 21.5s-43.8333 6.5 -68.5 6.5
c-61.3333 0 -108.667 -14.3333 -142 -43c-33.3333 -28.6667 -51.3333 -71 -54 -127h38c2.66666 44 18 77.8333 46 101.5s65.3333 35.5 112 35.5c27.3333 0 50.5 -3.83334 69.5 -11.5s33.8333 -17.1667 44.5 -28.5s18.1667 -22.5 22.5 -33.5s6.5 -20.1667 6.5 -27.5
c0 -23.3333 -1.5 -40.8333 -4.5 -52.5s-10 -21 -21 -28s-27.8333 -12.3333 -50.5 -16s-56.3333 -7.16666 -101 -10.5c-24.6667 -2 -47.6667 -5.5 -69 -10.5s-41.1667 -13 -59.5 -24s-33 -26.1667 -44 -45.5s-16.5 -43.3333 -16.5 -72c0 -50.6667 15.5 -87.5 46.5 -110.5
s72.8333 -34.5 125.5 -34.5c46.6667 0 87 10.8333 121 32.5c34 21.6667 57.3333 48.8333 70 81.5h2v-27c0 -24.6667 4.66666 -43.3333 14 -56s27.6667 -19 55 -19c6 0 15.3333 1.33333 28 4h3v32c-12 -2 -21.3333 -3 -28 -3c-15.3333 0 -24.8333 5.33333 -28.5 16
c-3.66666 10.6667 -5.5 26 -5.5 46v297z" />
    <glyph glyph-name="aacute" unicode="&#xe1;" horiz-adv-x="500" 
d="M193 591h37l134 140h-51zM397 196c0 -11.3333 -2.33334 -26 -7 -44s-13.6667 -37.1667 -27 -57.5s-33 -37.6667 -59 -52s-59 -21.5 -99 -21.5c-43.3333 0 -76.6667 10.5 -100 31.5s-35 47.8333 -35 80.5c0 37.3333 11.8333 65.1667 35.5 83.5
c23.6667 18.3333 58.8333 30.1667 105.5 35.5c12 2 31.3333 4 58 6c36 2.66666 63.8333 6.16666 83.5 10.5s34.5 12.1667 44.5 23.5v-96zM435 392c0 25.3333 -4.83334 46.8333 -14.5 64.5s-23 31.5 -40 41.5s-36 17.1667 -57 21.5s-43.8333 6.5 -68.5 6.5
c-61.3333 0 -108.667 -14.3333 -142 -43c-33.3333 -28.6667 -51.3333 -71 -54 -127h38c2.66666 44 18 77.8333 46 101.5s65.3333 35.5 112 35.5c27.3333 0 50.5 -3.83334 69.5 -11.5s33.8333 -17.1667 44.5 -28.5s18.1667 -22.5 22.5 -33.5s6.5 -20.1667 6.5 -27.5
c0 -23.3333 -1.5 -40.8333 -4.5 -52.5s-10 -21 -21 -28s-27.8333 -12.3333 -50.5 -16s-56.3333 -7.16666 -101 -10.5c-24.6667 -2 -47.6667 -5.5 -69 -10.5s-41.1667 -13 -59.5 -24s-33 -26.1667 -44 -45.5s-16.5 -43.3333 -16.5 -72c0 -50.6667 15.5 -87.5 46.5 -110.5
s72.8333 -34.5 125.5 -34.5c46.6667 0 87 10.8333 121 32.5c34 21.6667 57.3333 48.8333 70 81.5h2v-27c0 -24.6667 4.66666 -43.3333 14 -56s27.6667 -19 55 -19c6 0 15.3333 1.33333 28 4h3v32c-12 -2 -21.3333 -3 -28 -3c-15.3333 0 -24.8333 5.33333 -28.5 16
c-3.66666 10.6667 -5.5 26 -5.5 46v297z" />
    <glyph glyph-name="acircumflex" unicode="&#xe2;" horiz-adv-x="500" 
d="M230 731l-115 -140h38l97 115l98 -115h38l-116 140h-40zM397 196c0 -11.3333 -2.33334 -26 -7 -44s-13.6667 -37.1667 -27 -57.5s-33 -37.6667 -59 -52s-59 -21.5 -99 -21.5c-43.3333 0 -76.6667 10.5 -100 31.5s-35 47.8333 -35 80.5
c0 37.3333 11.8333 65.1667 35.5 83.5c23.6667 18.3333 58.8333 30.1667 105.5 35.5c12 2 31.3333 4 58 6c36 2.66666 63.8333 6.16666 83.5 10.5s34.5 12.1667 44.5 23.5v-96zM435 392c0 25.3333 -4.83334 46.8333 -14.5 64.5s-23 31.5 -40 41.5s-36 17.1667 -57 21.5
s-43.8333 6.5 -68.5 6.5c-61.3333 0 -108.667 -14.3333 -142 -43c-33.3333 -28.6667 -51.3333 -71 -54 -127h38c2.66666 44 18 77.8333 46 101.5s65.3333 35.5 112 35.5c27.3333 0 50.5 -3.83334 69.5 -11.5s33.8333 -17.1667 44.5 -28.5s18.1667 -22.5 22.5 -33.5
s6.5 -20.1667 6.5 -27.5c0 -23.3333 -1.5 -40.8333 -4.5 -52.5s-10 -21 -21 -28s-27.8333 -12.3333 -50.5 -16s-56.3333 -7.16666 -101 -10.5c-24.6667 -2 -47.6667 -5.5 -69 -10.5s-41.1667 -13 -59.5 -24s-33 -26.1667 -44 -45.5s-16.5 -43.3333 -16.5 -72
c0 -50.6667 15.5 -87.5 46.5 -110.5s72.8333 -34.5 125.5 -34.5c46.6667 0 87 10.8333 121 32.5c34 21.6667 57.3333 48.8333 70 81.5h2v-27c0 -24.6667 4.66666 -43.3333 14 -56s27.6667 -19 55 -19c6 0 15.3333 1.33333 28 4h3v32c-12 -2 -21.3333 -3 -28 -3
c-15.3333 0 -24.8333 5.33333 -28.5 16c-3.66666 10.6667 -5.5 26 -5.5 46v297z" />
    <glyph glyph-name="atilde" unicode="&#xe3;" horiz-adv-x="500" 
d="M135 602c2.66667 15.3333 7.66667 28.6666 15 40c7.33333 11.3333 17.3333 17 30 17c10.6667 0 21.1667 -2.33331 31.5 -7s23.1667 -11.6667 38.5 -21l4 -3c14 -8 25.8333 -14.3333 35.5 -19s19.5 -7 29.5 -7c12 0 22.5 2.66669 31.5 8s16.8333 12.3333 23.5 21
c10.6667 14 17.6667 34.3333 21 61h-29c-2 -15.3333 -6.83334 -28.6666 -14.5 -40c-7.66666 -11.3333 -17.8333 -17 -30.5 -17c-10.6667 0 -28 7 -52 21c-7.33334 4 -12.6667 7 -16 9l-7 4c-28 15.3333 -49 23 -63 23c-22 0 -39.8333 -9 -53.5 -27
c-13.6667 -18 -21.5 -39 -23.5 -63h29zM397 196c0 -11.3333 -2.33334 -26 -7 -44s-13.6667 -37.1667 -27 -57.5s-33 -37.6667 -59 -52s-59 -21.5 -99 -21.5c-43.3333 0 -76.6667 10.5 -100 31.5s-35 47.8333 -35 80.5c0 37.3333 11.8333 65.1667 35.5 83.5
c23.6667 18.3333 58.8333 30.1667 105.5 35.5c12 2 31.3333 4 58 6c36 2.66666 63.8333 6.16666 83.5 10.5s34.5 12.1667 44.5 23.5v-96zM435 392c0 25.3333 -4.83334 46.8333 -14.5 64.5s-23 31.5 -40 41.5s-36 17.1667 -57 21.5s-43.8333 6.5 -68.5 6.5
c-61.3333 0 -108.667 -14.3333 -142 -43c-33.3333 -28.6667 -51.3333 -71 -54 -127h38c2.66666 44 18 77.8333 46 101.5s65.3333 35.5 112 35.5c27.3333 0 50.5 -3.83334 69.5 -11.5s33.8333 -17.1667 44.5 -28.5s18.1667 -22.5 22.5 -33.5s6.5 -20.1667 6.5 -27.5
c0 -23.3333 -1.5 -40.8333 -4.5 -52.5s-10 -21 -21 -28s-27.8333 -12.3333 -50.5 -16s-56.3333 -7.16666 -101 -10.5c-24.6667 -2 -47.6667 -5.5 -69 -10.5s-41.1667 -13 -59.5 -24s-33 -26.1667 -44 -45.5s-16.5 -43.3333 -16.5 -72c0 -50.6667 15.5 -87.5 46.5 -110.5
s72.8333 -34.5 125.5 -34.5c46.6667 0 87 10.8333 121 32.5c34 21.6667 57.3333 48.8333 70 81.5h2v-27c0 -24.6667 4.66666 -43.3333 14 -56s27.6667 -19 55 -19c6 0 15.3333 1.33333 28 4h3v32c-12 -2 -21.3333 -3 -28 -3c-15.3333 0 -24.8333 5.33333 -28.5 16
c-3.66666 10.6667 -5.5 26 -5.5 46v297z" />
    <glyph glyph-name="adieresis" unicode="&#xe4;" horiz-adv-x="500" 
d="M193 594v103h-44v-103h44zM351 594v103h-44v-103h44zM397 196c0 -11.3333 -2.33334 -26 -7 -44s-13.6667 -37.1667 -27 -57.5s-33 -37.6667 -59 -52s-59 -21.5 -99 -21.5c-43.3333 0 -76.6667 10.5 -100 31.5s-35 47.8333 -35 80.5c0 37.3333 11.8333 65.1667 35.5 83.5
c23.6667 18.3333 58.8333 30.1667 105.5 35.5c12 2 31.3333 4 58 6c36 2.66666 63.8333 6.16666 83.5 10.5s34.5 12.1667 44.5 23.5v-96zM435 392c0 25.3333 -4.83334 46.8333 -14.5 64.5s-23 31.5 -40 41.5s-36 17.1667 -57 21.5s-43.8333 6.5 -68.5 6.5
c-61.3333 0 -108.667 -14.3333 -142 -43c-33.3333 -28.6667 -51.3333 -71 -54 -127h38c2.66666 44 18 77.8333 46 101.5s65.3333 35.5 112 35.5c27.3333 0 50.5 -3.83334 69.5 -11.5s33.8333 -17.1667 44.5 -28.5s18.1667 -22.5 22.5 -33.5s6.5 -20.1667 6.5 -27.5
c0 -23.3333 -1.5 -40.8333 -4.5 -52.5s-10 -21 -21 -28s-27.8333 -12.3333 -50.5 -16s-56.3333 -7.16666 -101 -10.5c-24.6667 -2 -47.6667 -5.5 -69 -10.5s-41.1667 -13 -59.5 -24s-33 -26.1667 -44 -45.5s-16.5 -43.3333 -16.5 -72c0 -50.6667 15.5 -87.5 46.5 -110.5
s72.8333 -34.5 125.5 -34.5c46.6667 0 87 10.8333 121 32.5c34 21.6667 57.3333 48.8333 70 81.5h2v-27c0 -24.6667 4.66666 -43.3333 14 -56s27.6667 -19 55 -19c6 0 15.3333 1.33333 28 4h3v32c-12 -2 -21.3333 -3 -28 -3c-15.3333 0 -24.8333 5.33333 -28.5 16
c-3.66666 10.6667 -5.5 26 -5.5 46v297z" />
    <glyph glyph-name="aring" unicode="&#xe5;" horiz-adv-x="500" 
d="M151 640c0 -27.3333 9.66667 -50.6666 29 -70c19.3333 -19.3333 42.6667 -29 70 -29s50.6667 9.66669 70 29c19.3333 19.3333 29 42.6666 29 70c0 27.3333 -9.66666 50.6666 -29 70c-19.3333 19.3333 -42.6667 29 -70 29c-27.3333 0 -50.6667 -9.66669 -70 -29
c-19.3333 -19.3333 -29 -42.6666 -29 -70zM178 640c0 20 7 37 21 51s31 21 51 21s37 -7 51 -21s21 -31 21 -51s-7 -37 -21 -51s-31 -21 -51 -21s-37 7 -51 21s-21 31 -21 51zM397 196c0 -11.3333 -2.33334 -26 -7 -44s-13.6667 -37.1667 -27 -57.5s-33 -37.6667 -59 -52
s-59 -21.5 -99 -21.5c-43.3333 0 -76.6667 10.5 -100 31.5s-35 47.8333 -35 80.5c0 37.3333 11.8333 65.1667 35.5 83.5c23.6667 18.3333 58.8333 30.1667 105.5 35.5c12 2 31.3333 4 58 6c36 2.66666 63.8333 6.16666 83.5 10.5s34.5 12.1667 44.5 23.5v-96zM435 392
c0 25.3333 -4.83334 46.8333 -14.5 64.5s-23 31.5 -40 41.5s-36 17.1667 -57 21.5s-43.8333 6.5 -68.5 6.5c-61.3333 0 -108.667 -14.3333 -142 -43c-33.3333 -28.6667 -51.3333 -71 -54 -127h38c2.66666 44 18 77.8333 46 101.5s65.3333 35.5 112 35.5
c27.3333 0 50.5 -3.83334 69.5 -11.5s33.8333 -17.1667 44.5 -28.5s18.1667 -22.5 22.5 -33.5s6.5 -20.1667 6.5 -27.5c0 -23.3333 -1.5 -40.8333 -4.5 -52.5s-10 -21 -21 -28s-27.8333 -12.3333 -50.5 -16s-56.3333 -7.16666 -101 -10.5
c-24.6667 -2 -47.6667 -5.5 -69 -10.5s-41.1667 -13 -59.5 -24s-33 -26.1667 -44 -45.5s-16.5 -43.3333 -16.5 -72c0 -50.6667 15.5 -87.5 46.5 -110.5s72.8333 -34.5 125.5 -34.5c46.6667 0 87 10.8333 121 32.5c34 21.6667 57.3333 48.8333 70 81.5h2v-27
c0 -24.6667 4.66666 -43.3333 14 -56s27.6667 -19 55 -19c6 0 15.3333 1.33333 28 4h3v32c-12 -2 -21.3333 -3 -28 -3c-15.3333 0 -24.8333 5.33333 -28.5 16c-3.66666 10.6667 -5.5 26 -5.5 46v297z" />
    <glyph glyph-name="ae" unicode="&#xe6;" horiz-adv-x="889" 
d="M444 285c2 28.6667 7.16666 55.5 15.5 80.5s20.3333 47.1667 36 66.5s35 34.3333 58 45s49.5 16 79.5 16c27.3333 0 52.5 -5.33334 75.5 -16s42.6667 -25.5 59 -44.5s28.8333 -41.1667 37.5 -66.5s13 -52.3333 13 -81h-374zM406 201
c-0.666656 -24.6667 -6.16666 -48 -16.5 -70s-24.3333 -41.1667 -42 -57.5s-37.8333 -29.1667 -60.5 -38.5c-22.6667 -9.33333 -46.3333 -14 -71 -14c-40 0 -74.3333 9.16667 -103 27.5c-28.6667 18.3333 -43 45.8333 -43 82.5c0 40.6667 13.1667 70.5 39.5 89.5
c26.3333 19 61.5 29.8333 105.5 32.5c9.33333 0.666672 25 1.66667 47 3c44.6667 3.33334 78 7 100 11s36 11.3333 42 22h2v-88zM856 252c0 4.66666 0.333313 10 1 16v15c0 69.3333 -19.8333 127.167 -59.5 173.5c-39.6667 46.3333 -94.5 69.5 -164.5 69.5
c-47.3333 0 -87.6666 -10.8333 -121 -32.5c-33.3333 -21.6667 -58 -54.5 -74 -98.5h-2c-2 24.6667 -8 45.6667 -18 63s-23.1667 30.8333 -39.5 40.5s-34.6667 16.6666 -55 21c-20.3333 4.33331 -42.8333 6.5 -67.5 6.5c-59.3333 0 -106.833 -14.3333 -142.5 -43
s-55.5 -72 -59.5 -130h38c3.33334 47.3333 19.5 82.5 48.5 105.5s67.5 34.5 115.5 34.5c100 0 150 -40 150 -120c0 -18.6667 -3.5 -33.6667 -10.5 -45s-16.6667 -19.6667 -29 -25c-12.3333 -5.33334 -25.6667 -9 -40 -11c-14.3333 -2 -32.8333 -3.66666 -55.5 -5
c-23.3333 -1.33334 -40.6667 -2.66669 -52 -4c-22 -0.666656 -43.6667 -3.33331 -65 -8c-21.3333 -4.66666 -41.3333 -12.6667 -60 -24c-18.6667 -11.3333 -33.6667 -26.8333 -45 -46.5s-17 -44.1667 -17 -73.5c0 -47.3333 17.6667 -83 53 -107c35.3333 -24 79 -36 131 -36
c48.6667 0 91.5 13.3333 128.5 40c37 26.6667 63.8333 63 80.5 109h2c12 -48 36.3333 -84.8333 73 -110.5c36.6667 -25.6667 81 -38.5 133 -38.5c58 0 106.5 16.3333 145.5 49s62.8333 77.3333 71.5 134h-38c-7.33331 -48 -26.8333 -85 -58.5 -111s-71.8334 -39 -120.5 -39
c-59.3333 0 -105.667 19.6667 -139 59c-33.3333 39.3333 -50 89.3333 -50 150c0 2 0.333344 5.66667 1 11v11h411z" />
    <glyph glyph-name="ccedilla" unicode="&#xe7;" horiz-adv-x="519" 
d="M481 355c-5.33334 56 -27.3333 98.5 -66 127.5s-87.3333 43.5 -146 43.5c-36.6667 0 -69.8333 -6.83331 -99.5 -20.5c-29.6667 -13.6667 -54.6667 -32.6667 -75 -57c-20.3333 -24.3333 -35.6667 -52.5 -46 -84.5c-10.3333 -32 -15.5 -66 -15.5 -102
c0 -35.3333 4.16666 -68.8333 12.5 -100.5c8.33333 -31.6667 21.5 -60.1667 39.5 -85.5c18 -25.3333 40.8333 -45.6667 68.5 -61c27.6667 -15.3333 60.1667 -24 97.5 -26l-48 -64l16 -13c17.3333 8 35 12 53 12c11.3333 0 22.3333 -4 33 -12s16 -19.3333 16 -34
c0 -16.6667 -6.16666 -28.6667 -18.5 -36s-27.1667 -11 -44.5 -11c-13.3333 0 -25.5 1.33333 -36.5 4s-23.5 6.66667 -37.5 12l-6 2l-11 -24c10.6667 -6 23.6667 -11 39 -15s32.3333 -6 51 -6c32 0 57 6 75 18s27 30.6667 27 56c0 24 -7.33334 42.1667 -22 54.5
s-32.3333 18.5 -53 18.5c-11.3333 0 -23.6667 -3 -37 -9l-2 2l39 45c53.3333 3.33333 98.3333 21.8333 135 55.5s59 79.1667 67 136.5h-38c-6.66666 -47.3333 -26.3333 -85.8333 -59 -115.5c-32.6667 -29.6667 -72.6667 -44.5 -120 -44.5c-64 0 -113 22 -147 66
s-51 102.333 -51 175c0 30 4.33334 58.8333 13 86.5s21.5 52.3333 38.5 74c17 21.6667 37.8333 38.8333 62.5 51.5c24.6667 12.6667 52.6667 19 84 19c48 0 88.1667 -12 120.5 -36s50.1667 -58 53.5 -102h38z" />
    <glyph glyph-name="egrave" unicode="&#xe8;" horiz-adv-x="519" 
d="M317 591l-120 140h-51l134 -140h37zM486 252v10c0.666656 4 1 7 1 9c0 35.3333 -4.66666 68.3333 -14 99s-23.5 57.8333 -42.5 81.5c-19 23.6667 -42.8333 42 -71.5 55s-61.6667 19.5 -99 19.5c-36.6667 0 -69.3333 -7.5 -98 -22.5c-28.6667 -15 -52.5 -35.5 -71.5 -61.5
s-33.3333 -55.6667 -43 -89c-9.66667 -33.3333 -14.5 -68.3333 -14.5 -105c0 -75.3333 20 -137.5 60 -186.5c40 -49 95.6667 -73.5 167 -73.5c61.3333 0 111.167 16 149.5 48c38.3333 32 62.5 78 72.5 138h-38c-8.66666 -47.3333 -29.3333 -84.6667 -62 -112
c-32.6667 -27.3333 -73.3333 -41 -122 -41c-60 0 -106.5 22.1667 -139.5 66.5c-33 44.3333 -49.5 99.1667 -49.5 164.5h415zM71 285c2 26 7.66666 51.3333 17 76s22.1667 47 38.5 67s35.8333 35.8333 58.5 47.5s47.6667 17.5 75 17.5c28.6667 0 54.6667 -5.66666 78 -17
s43 -26.6667 59 -46c16 -19.3333 28.3333 -41.5 37 -66.5s13.3333 -51.1667 14 -78.5h-377z" />
    <glyph glyph-name="eacute" unicode="&#xe9;" horiz-adv-x="519" 
d="M202 591h37l134 140h-51zM486 252v10c0.666656 4 1 7 1 9c0 35.3333 -4.66666 68.3333 -14 99s-23.5 57.8333 -42.5 81.5c-19 23.6667 -42.8333 42 -71.5 55s-61.6667 19.5 -99 19.5c-36.6667 0 -69.3333 -7.5 -98 -22.5c-28.6667 -15 -52.5 -35.5 -71.5 -61.5
s-33.3333 -55.6667 -43 -89c-9.66667 -33.3333 -14.5 -68.3333 -14.5 -105c0 -75.3333 20 -137.5 60 -186.5c40 -49 95.6667 -73.5 167 -73.5c61.3333 0 111.167 16 149.5 48c38.3333 32 62.5 78 72.5 138h-38c-8.66666 -47.3333 -29.3333 -84.6667 -62 -112
c-32.6667 -27.3333 -73.3333 -41 -122 -41c-60 0 -106.5 22.1667 -139.5 66.5c-33 44.3333 -49.5 99.1667 -49.5 164.5h415zM71 285c2 26 7.66666 51.3333 17 76s22.1667 47 38.5 67s35.8333 35.8333 58.5 47.5s47.6667 17.5 75 17.5c28.6667 0 54.6667 -5.66666 78 -17
s43 -26.6667 59 -46c16 -19.3333 28.3333 -41.5 37 -66.5s13.3333 -51.1667 14 -78.5h-377z" />
    <glyph glyph-name="ecircumflex" unicode="&#xea;" horiz-adv-x="519" 
d="M239 731l-115 -140h38l97 115l98 -115h38l-116 140h-40zM486 252v10c0.666656 4 1 7 1 9c0 35.3333 -4.66666 68.3333 -14 99s-23.5 57.8333 -42.5 81.5c-19 23.6667 -42.8333 42 -71.5 55s-61.6667 19.5 -99 19.5c-36.6667 0 -69.3333 -7.5 -98 -22.5
c-28.6667 -15 -52.5 -35.5 -71.5 -61.5s-33.3333 -55.6667 -43 -89c-9.66667 -33.3333 -14.5 -68.3333 -14.5 -105c0 -75.3333 20 -137.5 60 -186.5c40 -49 95.6667 -73.5 167 -73.5c61.3333 0 111.167 16 149.5 48c38.3333 32 62.5 78 72.5 138h-38
c-8.66666 -47.3333 -29.3333 -84.6667 -62 -112c-32.6667 -27.3333 -73.3333 -41 -122 -41c-60 0 -106.5 22.1667 -139.5 66.5c-33 44.3333 -49.5 99.1667 -49.5 164.5h415zM71 285c2 26 7.66666 51.3333 17 76s22.1667 47 38.5 67s35.8333 35.8333 58.5 47.5
s47.6667 17.5 75 17.5c28.6667 0 54.6667 -5.66666 78 -17s43 -26.6667 59 -46c16 -19.3333 28.3333 -41.5 37 -66.5s13.3333 -51.1667 14 -78.5h-377z" />
    <glyph glyph-name="edieresis" unicode="&#xeb;" horiz-adv-x="519" 
d="M202 594v103h-44v-103h44zM360 594v103h-44v-103h44zM486 252v10c0.666656 4 1 7 1 9c0 35.3333 -4.66666 68.3333 -14 99s-23.5 57.8333 -42.5 81.5c-19 23.6667 -42.8333 42 -71.5 55s-61.6667 19.5 -99 19.5c-36.6667 0 -69.3333 -7.5 -98 -22.5
c-28.6667 -15 -52.5 -35.5 -71.5 -61.5s-33.3333 -55.6667 -43 -89c-9.66667 -33.3333 -14.5 -68.3333 -14.5 -105c0 -75.3333 20 -137.5 60 -186.5c40 -49 95.6667 -73.5 167 -73.5c61.3333 0 111.167 16 149.5 48c38.3333 32 62.5 78 72.5 138h-38
c-8.66666 -47.3333 -29.3333 -84.6667 -62 -112c-32.6667 -27.3333 -73.3333 -41 -122 -41c-60 0 -106.5 22.1667 -139.5 66.5c-33 44.3333 -49.5 99.1667 -49.5 164.5h415zM71 285c2 26 7.66666 51.3333 17 76s22.1667 47 38.5 67s35.8333 35.8333 58.5 47.5
s47.6667 17.5 75 17.5c28.6667 0 54.6667 -5.66666 78 -17s43 -26.6667 59 -46c16 -19.3333 28.3333 -41.5 37 -66.5s13.3333 -51.1667 14 -78.5h-377z" />
    <glyph glyph-name="igrave" unicode="&#xec;" horiz-adv-x="168" 
d="M142 591l-120 140h-51l134 -140h37zM103 0v514h-38v-514h38z" />
    <glyph glyph-name="iacute" unicode="&#xed;" horiz-adv-x="168" 
d="M27 591h37l134 140h-51zM103 0v514h-38v-514h38z" />
    <glyph glyph-name="icircumflex" unicode="&#xee;" horiz-adv-x="168" 
d="M64 731l-115 -140h38l97 115l98 -115h38l-116 140h-40zM103 0v514h-38v-514h38z" />
    <glyph glyph-name="idieresis" unicode="&#xef;" horiz-adv-x="168" 
d="M27 594v103h-44v-103h44zM185 594v103h-44v-103h44zM103 0v514h-38v-514h38z" />
    <glyph glyph-name="eth" unicode="&#xf0;" horiz-adv-x="537" 
d="M269 473c62 0 110.333 -21.8333 145 -65.5s52 -96.5 52 -158.5c0 -30.6667 -4 -59.6667 -12 -87s-20 -51.6667 -36 -73s-36.5 -38 -61.5 -50s-54.1667 -18 -87.5 -18c-32.6667 0 -61.5 6.16667 -86.5 18.5s-45.8333 29.1667 -62.5 50.5
c-16.6667 21.3333 -29.1667 45.6667 -37.5 73s-12.5 56 -12.5 86c0 29.3333 4.33334 57.5 13 84.5s21.5 51 38.5 72s38 37.5 63 49.5s53.1667 18 84.5 18zM146 582l21 -22l112 62c34.6667 -27.3333 65.6667 -57.1666 93 -89.5c27.3333 -32.3333 48 -65.1667 62 -98.5l-2 -2
c-22.6667 27.3333 -47.3333 46.5 -74 57.5c-26.6667 11 -56.3333 16.5 -89 16.5c-36.6667 0 -69.8333 -6.66666 -99.5 -20c-29.6667 -13.3333 -54.8333 -32 -75.5 -56s-36.1667 -51.3333 -46.5 -82s-15.5 -63.6667 -15.5 -99c0 -76.6667 20.1667 -139.333 60.5 -188
c40.3333 -48.6667 99.1667 -73 176.5 -73c75.3333 0 133.333 24.5 174 73.5s61 111.5 61 187.5c0 81.3333 -15.8333 154.167 -47.5 218.5s-79.5 122.167 -143.5 173.5l109 61l-20 22l-115 -64c-32 26 -68 49.6667 -108 71l-28 -24c16 -8 32.8333 -17.5 50.5 -28.5
s35.1667 -23.1667 52.5 -36.5z" />
    <glyph glyph-name="ntilde" unicode="&#xf1;" horiz-adv-x="519" 
d="M144 602c2.66667 15.3333 7.66667 28.6666 15 40c7.33333 11.3333 17.3333 17 30 17c10.6667 0 21.1667 -2.33331 31.5 -7s23.1667 -11.6667 38.5 -21l4 -3c14 -8 25.8333 -14.3333 35.5 -19s19.5 -7 29.5 -7c12 0 22.5 2.66669 31.5 8s16.8333 12.3333 23.5 21
c10.6667 14 17.6667 34.3333 21 61h-29c-2 -15.3333 -6.83334 -28.6666 -14.5 -40c-7.66666 -11.3333 -17.8333 -17 -30.5 -17c-10.6667 0 -28 7 -52 21c-7.33334 4 -12.6667 7 -16 9l-7 4c-28 15.3333 -49 23 -63 23c-22 0 -39.8333 -9 -53.5 -27
c-13.6667 -18 -21.5 -39 -23.5 -63h29zM56 0h38v278c0 64 16.6667 115.833 50 155.5c33.3333 39.6667 78.3333 59.5 135 59.5c32.6667 0 59.1667 -5.83334 79.5 -17.5s35.1667 -26.3333 44.5 -44c9.33334 -17.6667 15.3333 -35.1667 18 -52.5s4 -35.3333 4 -54v-325h38v318
c0 24 -1.33334 46.5 -4 67.5s-9.83331 42.3333 -21.5 64c-11.6667 21.6667 -30.3333 39.8333 -56 54.5c-25.6667 14.6667 -59.5 22 -101.5 22c-41.3333 0 -79.1667 -11 -113.5 -33c-34.3333 -22 -57.8333 -51.6667 -70.5 -89h-2v110h-38v-514z" />
    <glyph glyph-name="ograve" unicode="&#xf2;" horiz-adv-x="537" 
d="M326 591l-120 140h-51l134 -140h37zM32 257c0 -36.6667 5.33333 -71.3333 16 -104c10.6667 -32.6667 26 -61.3333 46 -86s44.8333 -44 74.5 -58s62.8333 -21 99.5 -21s69.6667 7 99 21s54.3333 33.5 75 58.5s36.1667 53.6667 46.5 86
c10.3333 32.3333 15.5 66.8333 15.5 103.5c0 36.6667 -5.16666 71.3333 -15.5 104c-10.3333 32.6667 -25.6667 61.3333 -46 86c-20.3333 24.6667 -45.3333 44 -75 58s-62.8333 21 -99.5 21c-36.6667 0 -69.6667 -7 -99 -21s-54.3333 -33.3333 -75 -58
c-20.6667 -24.6667 -36.1667 -53.3333 -46.5 -86c-10.3333 -32.6667 -15.5 -67.3333 -15.5 -104zM70 257c0 31.3333 4.33334 61.1667 13 89.5c8.66666 28.3333 21.5 53.5 38.5 75.5s37.8333 39.3333 62.5 52s52.6667 19 84 19c31.3333 0 59.3333 -6.33334 84 -19
s45.5 -30 62.5 -52s29.8333 -47.1667 38.5 -75.5s13 -58.1667 13 -89.5c0 -31.3333 -4.33334 -61.1667 -13 -89.5c-8.66666 -28.3333 -21.5 -53.5 -38.5 -75.5s-37.8333 -39.3333 -62.5 -52c-24.6667 -12.6667 -52.6667 -19 -84 -19c-31.3333 0 -59.3333 6.33333 -84 19
c-24.6667 12.6667 -45.5 30 -62.5 52s-29.8333 47.1667 -38.5 75.5s-13 58.1667 -13 89.5z" />
    <glyph glyph-name="oacute" unicode="&#xf3;" horiz-adv-x="537" 
d="M211 591h37l134 140h-51zM32 257c0 -36.6667 5.33333 -71.3333 16 -104c10.6667 -32.6667 26 -61.3333 46 -86s44.8333 -44 74.5 -58s62.8333 -21 99.5 -21s69.6667 7 99 21s54.3333 33.5 75 58.5s36.1667 53.6667 46.5 86c10.3333 32.3333 15.5 66.8333 15.5 103.5
c0 36.6667 -5.16666 71.3333 -15.5 104c-10.3333 32.6667 -25.6667 61.3333 -46 86c-20.3333 24.6667 -45.3333 44 -75 58s-62.8333 21 -99.5 21c-36.6667 0 -69.6667 -7 -99 -21s-54.3333 -33.3333 -75 -58c-20.6667 -24.6667 -36.1667 -53.3333 -46.5 -86
c-10.3333 -32.6667 -15.5 -67.3333 -15.5 -104zM70 257c0 31.3333 4.33334 61.1667 13 89.5c8.66666 28.3333 21.5 53.5 38.5 75.5s37.8333 39.3333 62.5 52s52.6667 19 84 19c31.3333 0 59.3333 -6.33334 84 -19s45.5 -30 62.5 -52s29.8333 -47.1667 38.5 -75.5
s13 -58.1667 13 -89.5c0 -31.3333 -4.33334 -61.1667 -13 -89.5c-8.66666 -28.3333 -21.5 -53.5 -38.5 -75.5s-37.8333 -39.3333 -62.5 -52c-24.6667 -12.6667 -52.6667 -19 -84 -19c-31.3333 0 -59.3333 6.33333 -84 19c-24.6667 12.6667 -45.5 30 -62.5 52
s-29.8333 47.1667 -38.5 75.5s-13 58.1667 -13 89.5z" />
    <glyph glyph-name="ocircumflex" unicode="&#xf4;" horiz-adv-x="537" 
d="M248 731l-115 -140h38l97 115l98 -115h38l-116 140h-40zM32 257c0 -36.6667 5.33333 -71.3333 16 -104c10.6667 -32.6667 26 -61.3333 46 -86s44.8333 -44 74.5 -58s62.8333 -21 99.5 -21s69.6667 7 99 21s54.3333 33.5 75 58.5s36.1667 53.6667 46.5 86
c10.3333 32.3333 15.5 66.8333 15.5 103.5c0 36.6667 -5.16666 71.3333 -15.5 104c-10.3333 32.6667 -25.6667 61.3333 -46 86c-20.3333 24.6667 -45.3333 44 -75 58s-62.8333 21 -99.5 21c-36.6667 0 -69.6667 -7 -99 -21s-54.3333 -33.3333 -75 -58
c-20.6667 -24.6667 -36.1667 -53.3333 -46.5 -86c-10.3333 -32.6667 -15.5 -67.3333 -15.5 -104zM70 257c0 31.3333 4.33334 61.1667 13 89.5c8.66666 28.3333 21.5 53.5 38.5 75.5s37.8333 39.3333 62.5 52s52.6667 19 84 19c31.3333 0 59.3333 -6.33334 84 -19
s45.5 -30 62.5 -52s29.8333 -47.1667 38.5 -75.5s13 -58.1667 13 -89.5c0 -31.3333 -4.33334 -61.1667 -13 -89.5c-8.66666 -28.3333 -21.5 -53.5 -38.5 -75.5s-37.8333 -39.3333 -62.5 -52c-24.6667 -12.6667 -52.6667 -19 -84 -19c-31.3333 0 -59.3333 6.33333 -84 19
c-24.6667 12.6667 -45.5 30 -62.5 52s-29.8333 47.1667 -38.5 75.5s-13 58.1667 -13 89.5z" />
    <glyph glyph-name="otilde" unicode="&#xf5;" horiz-adv-x="537" 
d="M153 602c2.66667 15.3333 7.66667 28.6666 15 40c7.33333 11.3333 17.3333 17 30 17c10.6667 0 21.1667 -2.33331 31.5 -7s23.1667 -11.6667 38.5 -21l4 -3c14 -8 25.8333 -14.3333 35.5 -19s19.5 -7 29.5 -7c12 0 22.5 2.66669 31.5 8s16.8333 12.3333 23.5 21
c10.6667 14 17.6667 34.3333 21 61h-29c-2 -15.3333 -6.83334 -28.6666 -14.5 -40c-7.66666 -11.3333 -17.8333 -17 -30.5 -17c-10.6667 0 -28 7 -52 21c-7.33334 4 -12.6667 7 -16 9l-7 4c-28 15.3333 -49 23 -63 23c-22 0 -39.8333 -9 -53.5 -27s-21.5 -39 -23.5 -63h29z
M32 257c0 -36.6667 5.33333 -71.3333 16 -104c10.6667 -32.6667 26 -61.3333 46 -86s44.8333 -44 74.5 -58s62.8333 -21 99.5 -21s69.6667 7 99 21s54.3333 33.5 75 58.5s36.1667 53.6667 46.5 86c10.3333 32.3333 15.5 66.8333 15.5 103.5
c0 36.6667 -5.16666 71.3333 -15.5 104c-10.3333 32.6667 -25.6667 61.3333 -46 86c-20.3333 24.6667 -45.3333 44 -75 58s-62.8333 21 -99.5 21c-36.6667 0 -69.6667 -7 -99 -21s-54.3333 -33.3333 -75 -58c-20.6667 -24.6667 -36.1667 -53.3333 -46.5 -86
c-10.3333 -32.6667 -15.5 -67.3333 -15.5 -104zM70 257c0 31.3333 4.33334 61.1667 13 89.5c8.66666 28.3333 21.5 53.5 38.5 75.5s37.8333 39.3333 62.5 52s52.6667 19 84 19c31.3333 0 59.3333 -6.33334 84 -19s45.5 -30 62.5 -52s29.8333 -47.1667 38.5 -75.5
s13 -58.1667 13 -89.5c0 -31.3333 -4.33334 -61.1667 -13 -89.5c-8.66666 -28.3333 -21.5 -53.5 -38.5 -75.5s-37.8333 -39.3333 -62.5 -52c-24.6667 -12.6667 -52.6667 -19 -84 -19c-31.3333 0 -59.3333 6.33333 -84 19c-24.6667 12.6667 -45.5 30 -62.5 52
s-29.8333 47.1667 -38.5 75.5s-13 58.1667 -13 89.5z" />
    <glyph glyph-name="odieresis" unicode="&#xf6;" horiz-adv-x="537" 
d="M211 594v103h-44v-103h44zM369 594v103h-44v-103h44zM32 257c0 -36.6667 5.33333 -71.3333 16 -104c10.6667 -32.6667 26 -61.3333 46 -86s44.8333 -44 74.5 -58s62.8333 -21 99.5 -21s69.6667 7 99 21s54.3333 33.5 75 58.5s36.1667 53.6667 46.5 86
c10.3333 32.3333 15.5 66.8333 15.5 103.5c0 36.6667 -5.16666 71.3333 -15.5 104c-10.3333 32.6667 -25.6667 61.3333 -46 86c-20.3333 24.6667 -45.3333 44 -75 58s-62.8333 21 -99.5 21c-36.6667 0 -69.6667 -7 -99 -21s-54.3333 -33.3333 -75 -58
c-20.6667 -24.6667 -36.1667 -53.3333 -46.5 -86c-10.3333 -32.6667 -15.5 -67.3333 -15.5 -104zM70 257c0 31.3333 4.33334 61.1667 13 89.5c8.66666 28.3333 21.5 53.5 38.5 75.5s37.8333 39.3333 62.5 52s52.6667 19 84 19c31.3333 0 59.3333 -6.33334 84 -19
s45.5 -30 62.5 -52s29.8333 -47.1667 38.5 -75.5s13 -58.1667 13 -89.5c0 -31.3333 -4.33334 -61.1667 -13 -89.5c-8.66666 -28.3333 -21.5 -53.5 -38.5 -75.5s-37.8333 -39.3333 -62.5 -52c-24.6667 -12.6667 -52.6667 -19 -84 -19c-31.3333 0 -59.3333 6.33333 -84 19
c-24.6667 12.6667 -45.5 30 -62.5 52s-29.8333 47.1667 -38.5 75.5s-13 58.1667 -13 89.5z" />
    <glyph glyph-name="divide" unicode="&#xf7;" horiz-adv-x="600" 
d="M552 233v38h-504v-38h504zM250 452c0 -14 5 -26 15 -36s22 -15 36 -15s26.1667 5 36.5 15s15.5 22 15.5 36c0 14.6667 -5.16666 27 -15.5 37s-22.5 15 -36.5 15s-26 -5 -36 -15s-15 -22.3333 -15 -37zM250 51c0 -14 5 -26 15 -36s22 -15 36 -15s26.1667 5 36.5 15
s15.5 22 15.5 36c0 14.6667 -5.16666 27 -15.5 37s-22.5 15 -36.5 15s-26 -5 -36 -15s-15 -22.3333 -15 -37z" />
    <glyph glyph-name="oslash" unicode="&#xf8;" horiz-adv-x="537" 
d="M109 112c-26 40 -39 88.3333 -39 145c0 31.3333 4.33334 61.1667 13 89.5c8.66666 28.3333 21.5 53.5 38.5 75.5s37.8333 39.3333 62.5 52s52.6667 19 84 19c29.3333 0 56 -5.83334 80 -17.5s44 -27.5 60 -47.5zM428 400c25.3333 -40 38 -87.6667 38 -143
c0 -31.3333 -4.33334 -61.1667 -13 -89.5c-8.66666 -28.3333 -21.5 -53.5 -38.5 -75.5s-37.8333 -39.3333 -62.5 -52c-24.6667 -12.6667 -52.6667 -19 -84 -19c-57.3333 0 -103.667 21 -139 63zM513 490l-24 23l-55 -58c-19.3333 22.6667 -43.1667 40.1667 -71.5 52.5
c-28.3333 12.3333 -59.8333 18.5 -94.5 18.5c-36.6667 0 -69.6667 -7 -99 -21s-54.3333 -33.3333 -75 -58c-20.6667 -24.6667 -36.1667 -53.3333 -46.5 -86c-10.3333 -32.6667 -15.5 -67.3333 -15.5 -104c0 -68.6667 16.6667 -126.333 50 -173l-57 -61l24 -23l54 57
c20 -21.3333 44 -38.1667 72 -50.5s59 -18.5 93 -18.5c36.6667 0 69.6667 7 99 21s54.3333 33.5 75 58.5s36.1667 53.6667 46.5 86c10.3333 32.3333 15.5 66.8333 15.5 103.5c0 67.3333 -16.3333 124.333 -49 171z" />
    <glyph glyph-name="ugrave" unicode="&#xf9;" horiz-adv-x="519" 
d="M317 591l-120 140h-51l134 -140h37zM463 514h-38v-278c0 -64 -16.6667 -115.833 -50 -155.5s-78.3333 -59.5 -135 -59.5c-32.6667 0 -59.1667 5.83333 -79.5 17.5c-20.3333 11.6667 -35.1667 26.3333 -44.5 44s-15.3333 35.1667 -18 52.5
c-2.66666 17.3333 -4 35.3333 -4 54v325h-38v-318c0 -24 1.33333 -46.5 4 -67.5c2.66666 -21 9.83334 -42.3333 21.5 -64s30.3333 -39.8333 56 -54.5s59.5 -22 101.5 -22c41.3333 0 79.1667 11 113.5 33c34.3333 22 57.8333 51.6667 70.5 89h2v-110h38v514z" />
    <glyph glyph-name="uacute" unicode="&#xfa;" horiz-adv-x="519" 
d="M202 591h37l134 140h-51zM463 514h-38v-278c0 -64 -16.6667 -115.833 -50 -155.5s-78.3333 -59.5 -135 -59.5c-32.6667 0 -59.1667 5.83333 -79.5 17.5c-20.3333 11.6667 -35.1667 26.3333 -44.5 44s-15.3333 35.1667 -18 52.5c-2.66666 17.3333 -4 35.3333 -4 54v325
h-38v-318c0 -24 1.33333 -46.5 4 -67.5c2.66666 -21 9.83334 -42.3333 21.5 -64s30.3333 -39.8333 56 -54.5s59.5 -22 101.5 -22c41.3333 0 79.1667 11 113.5 33c34.3333 22 57.8333 51.6667 70.5 89h2v-110h38v514z" />
    <glyph glyph-name="ucircumflex" unicode="&#xfb;" horiz-adv-x="519" 
d="M239 731l-115 -140h38l97 115l98 -115h38l-116 140h-40zM463 514h-38v-278c0 -64 -16.6667 -115.833 -50 -155.5s-78.3333 -59.5 -135 -59.5c-32.6667 0 -59.1667 5.83333 -79.5 17.5c-20.3333 11.6667 -35.1667 26.3333 -44.5 44s-15.3333 35.1667 -18 52.5
c-2.66666 17.3333 -4 35.3333 -4 54v325h-38v-318c0 -24 1.33333 -46.5 4 -67.5c2.66666 -21 9.83334 -42.3333 21.5 -64s30.3333 -39.8333 56 -54.5s59.5 -22 101.5 -22c41.3333 0 79.1667 11 113.5 33c34.3333 22 57.8333 51.6667 70.5 89h2v-110h38v514z" />
    <glyph glyph-name="udieresis" unicode="&#xfc;" horiz-adv-x="519" 
d="M202 594v103h-44v-103h44zM360 594v103h-44v-103h44zM463 514h-38v-278c0 -64 -16.6667 -115.833 -50 -155.5s-78.3333 -59.5 -135 -59.5c-32.6667 0 -59.1667 5.83333 -79.5 17.5c-20.3333 11.6667 -35.1667 26.3333 -44.5 44s-15.3333 35.1667 -18 52.5
c-2.66666 17.3333 -4 35.3333 -4 54v325h-38v-318c0 -24 1.33333 -46.5 4 -67.5c2.66666 -21 9.83334 -42.3333 21.5 -64s30.3333 -39.8333 56 -54.5s59.5 -22 101.5 -22c41.3333 0 79.1667 11 113.5 33c34.3333 22 57.8333 51.6667 70.5 89h2v-110h38v514z" />
    <glyph glyph-name="yacute" unicode="&#xfd;" horiz-adv-x="444" 
d="M165 591h37l134 140h-51zM209 3c-14 -38.6667 -24.6667 -66.8333 -32 -84.5s-14.3333 -29.8333 -21 -36.5c-12.6667 -12.6667 -26.8333 -21.3333 -42.5 -26c-15.6667 -4.66667 -37.1667 -7 -64.5 -7v-33c32.6667 0 57.6667 1.33333 75 4s32.3333 9 45 19
c10 8 19.3333 20 28 36s19.3333 39.3333 32 70l220 569h-43l-176 -469l-191 469h-45z" />
    <glyph glyph-name="thorn" unicode="&#xfe;" 
d="M292 21c-34.6667 0 -64.3333 6.33333 -89 19c-24.6667 12.6667 -44.1667 29.8333 -58.5 51.5s-24.6667 46.3333 -31 74s-9.5 57.8333 -9.5 90.5c0 32 3.5 62.1667 10.5 90.5s18 53.5 33 75.5s34.5 39.3333 58.5 52s52.6667 19 86 19s62.3333 -6.5 87 -19.5
s44.8333 -30.8333 60.5 -53.5c15.6667 -22.6667 27.1667 -48.1667 34.5 -76.5s11 -57.5 11 -87.5c0 -32.6667 -3.83334 -63.1667 -11.5 -91.5s-19.5 -53.1667 -35.5 -74.5s-36.1667 -38.1667 -60.5 -50.5s-52.8333 -18.5 -85.5 -18.5zM65 -184h38v291h2
c14.6667 -40 38.3333 -69.8333 71 -89.5c32.6667 -19.6667 71.3333 -29.5 116 -29.5c76 0 133.5 24.3333 172.5 73s58.5 113.667 58.5 195c0 37.3333 -4.66669 72.1667 -14 104.5c-9.33334 32.3333 -23.6667 61 -43 86c-19.3333 25 -43.5 44.5 -72.5 58.5
s-62.8333 21 -101.5 21c-26.6667 0 -50.8333 -4.16669 -72.5 -12.5c-21.6667 -8.33334 -40.1667 -19 -55.5 -32s-27.8333 -27 -37.5 -42c-9.66666 -15 -16.8333 -29.5 -21.5 -43.5h-2v318h-38v-898z" />
    <glyph glyph-name="ydieresis" unicode="&#xff;" horiz-adv-x="444" 
d="M165 594v103h-44v-103h44zM323 594v103h-44v-103h44zM209 3c-14 -38.6667 -24.6667 -66.8333 -32 -84.5s-14.3333 -29.8333 -21 -36.5c-12.6667 -12.6667 -26.8333 -21.3333 -42.5 -26c-15.6667 -4.66667 -37.1667 -7 -64.5 -7v-33c32.6667 0 57.6667 1.33333 75 4
s32.3333 9 45 19c10 8 19.3333 20 28 36s19.3333 39.3333 32 70l220 569h-43l-176 -469l-191 469h-45z" />
    <glyph glyph-name="OE" unicode="&#x152;" horiz-adv-x="1056" 
d="M573 127c0 -6.66666 -2.83331 -13.8333 -8.5 -21.5c-5.66669 -7.66666 -13 -15.1667 -22 -22.5s-18.1667 -14 -27.5 -20c-9.33334 -6 -18 -11 -26 -15c-18.6667 -10 -38.5 -17 -59.5 -21s-43.1667 -6 -66.5 -6c-47.3333 0 -89.3333 8.66667 -126 26
c-36.6667 17.3333 -67 41.1667 -91 71.5s-41.8333 65.6667 -53.5 106s-17.5 83.5 -17.5 129.5s6.5 89.3333 19.5 130c13 40.6667 32.1667 76.8334 57.5 108.5c25.3333 31.6667 56.6667 56.3334 94 74c37.3333 17.6667 79.3333 26.5 126 26.5
c52.6667 0 100.667 -14.6667 144 -44c14 -9.33331 27 -20.5 39 -33.5s18 -25.5 18 -37.5v-451zM617 676h422v38h-466v-66c-24.6667 26.6667 -55.3334 47.1667 -92 61.5c-36.6667 14.3333 -74.3333 21.5 -113 21.5c-52.6667 0 -100.167 -9.83331 -142.5 -29.5
c-42.3333 -19.6667 -78 -47 -107 -82s-50.8333 -75.1667 -65.5 -120.5c-14.6667 -45.3333 -22 -93.6667 -22 -145c0 -52 7.33333 -100.667 22 -146c14.6667 -45.3333 36 -84.8333 64 -118.5s62.6667 -59.8333 104 -78.5c41.3333 -18.6667 87.6667 -28 139 -28
c49.3333 0 92.3333 8 129 24c36.6667 16 64 35.6667 82 59h2v-66h468v38h-424v314h378v38h-378v286z" />
    <glyph glyph-name="oe" unicode="&#x153;" horiz-adv-x="889" 
d="M252 21c-31.3333 0 -58.5 6.16667 -81.5 18.5s-42 29 -57 50s-26 45.3333 -33 73s-10.5 56.8333 -10.5 87.5c0 30 3.16666 59.1667 9.5 87.5s16.5 54.3333 30.5 78s33 42.5 57 56.5s52.6667 21 86 21c31.3333 0 58.1667 -6.5 80.5 -19.5
c22.3333 -13 40.3333 -30.8333 54 -53.5s23.5 -48.3333 29.5 -77c6 -28.6667 9 -59.6667 9 -93c0 -28.6667 -2.66666 -56.1667 -8 -82.5s-14.5 -50.6667 -27.5 -73s-31 -40.1667 -54 -53.5s-51.1667 -20 -84.5 -20zM857 252v11c0.666687 6 1 9.33334 1 10
c0 34 -4.33331 66.1667 -13 96.5s-21.6667 57.3333 -39 81s-39.5 42.1667 -66.5 55.5c-27 13.3333 -58.5 20 -94.5 20c-105.333 0 -171.667 -50.6667 -199 -152h-2c-10.6667 48 -32.6667 85.3333 -66 112c-33.3333 26.6667 -74.6667 40 -124 40
c-37.3333 0 -70 -7.16669 -98 -21.5c-28 -14.3333 -51.1667 -34.3333 -69.5 -60s-32 -55.1667 -41 -88.5s-13.5 -68.6667 -13.5 -106c0 -35.3333 4 -68.6667 12 -100s20.6667 -59.1667 38 -83.5c17.3333 -24.3333 40.1667 -43.5 68.5 -57.5s61.8333 -21 100.5 -21
c51.3333 0 92.8333 12.8333 124.5 38.5c31.6667 25.6667 54.1667 63.1667 67.5 112.5h2c9.33334 -48 31.5 -85.1667 66.5 -111.5s79.5 -39.5 133.5 -39.5c56 0 101.5 16 136.5 48s58.8333 76.3333 71.5 133h-38c-10.6667 -46 -30.3334 -82.1667 -59 -108.5
c-28.6667 -26.3333 -65.6667 -39.5 -111 -39.5c-30.6667 0 -57.5 5.66667 -80.5 17s-42 26.6667 -57 46s-26.1667 41.6667 -33.5 67s-11 52.3333 -11 81c0 3.33333 0.333344 6.66666 1 10v10h393zM464 285c0 59.3333 16 108.833 48 148.5s76.3333 59.5 133 59.5
c55.3333 0 98.1666 -20.1667 128.5 -60.5c30.3333 -40.3333 45.5 -89.5 45.5 -147.5h-355z" />
    <glyph glyph-name="Scaron" unicode="&#x160;" horiz-adv-x="630" 
d="M329 764l116 140h-38l-98 -115l-97 115h-38l115 -140h40zM573 510c-1.33331 38 -9.16663 71.1667 -23.5 99.5c-14.3333 28.3333 -33.8333 51.5 -58.5 69.5c-24.6667 18 -53.1667 31.1667 -85.5 39.5s-67.5 12.5 -105.5 12.5c-29.3333 0 -58.1667 -3.66669 -86.5 -11
s-54.1667 -18.6666 -77.5 -34c-23.3333 -15.3333 -41.8333 -35.1666 -55.5 -59.5c-13.6667 -24.3333 -20.5 -52.8333 -20.5 -85.5c0 -32 6.66666 -59.1667 20 -81.5s31.1667 -40.1667 53.5 -53.5c22.3333 -13.3333 46.3333 -23.8333 72 -31.5s58.1667 -15.5 97.5 -23.5
l11 -2c39.3333 -8 71.1667 -15.3333 95.5 -22c24.3333 -6.66666 47.1667 -15.6667 68.5 -27c21.3333 -11.3333 38.1667 -26.5 50.5 -45.5s18.5 -42.5 18.5 -70.5c0 -29.3333 -6.33331 -54.6667 -19 -76s-29.3333 -38.3333 -50 -51c-20.6667 -12.6667 -43 -21.8333 -67 -27.5
c-24 -5.66667 -47.6667 -8.5 -71 -8.5c-35.3333 0 -68.3333 3.66667 -99 11c-30.6667 7.33333 -58 19 -82 35s-42.6667 36.8333 -56 62.5c-13.3333 25.6667 -20 55.8333 -20 90.5v8v8h-44c0 -44.6667 7.66666 -83.3333 23 -116c15.3333 -32.6667 36.6667 -59 64 -79
s59 -34.6667 95 -44s75.6667 -14 119 -14c29.3333 0 58.5 3.66667 87.5 11s56 19.1667 81 35.5c25 16.3333 45 37.3333 60 63s22.5 56.1667 22.5 91.5c0 34 -6.5 62.5 -19.5 85.5s-30.8333 41.5 -53.5 55.5c-22.6667 14 -47.1667 25 -73.5 33s-58.8333 16 -97.5 24l-18 4
c-36 7.33334 -66.1667 14.1667 -90.5 20.5c-24.3333 6.33334 -46.8333 15 -67.5 26s-37 25.3333 -49 43s-18 39.5 -18 65.5c0 28 6 52 18 72s27.8333 35.8333 47.5 47.5s40.8333 20 63.5 25c22.6667 5 45 7.5 67 7.5c68 0 122.5 -15.6667 163.5 -47
s62.8333 -76.6666 65.5 -136h44z" />
    <glyph glyph-name="scaron" unicode="&#x161;" horiz-adv-x="481" 
d="M254 591l116 140h-38l-98 -115l-97 115h-38l115 -140h40zM36 171c1.33333 -58 21.1667 -103 59.5 -135c38.3333 -32 87.8333 -48 148.5 -48c24 0 47.6667 2.33333 71 7s44.8333 12.5 64.5 23.5s35.5 25.8333 47.5 44.5c12 18.6667 18 41 18 67s-4.5 47.8333 -13.5 65.5
s-21.5 31.8333 -37.5 42.5c-16 10.6667 -34.1667 19 -54.5 25s-45.8333 12 -76.5 18c-4 0.666656 -9.33333 1.66666 -16 3c-26 6 -47 11.1667 -63 15.5s-31.1667 10.3333 -45.5 18c-14.3333 7.66666 -25.6667 17.8333 -34 30.5c-8.33334 12.6667 -12.5 28 -12.5 46
c0 17.3333 4.16666 32.5 12.5 45.5s19.6667 23.3333 34 31s30.1667 13.3333 47.5 17c17.3333 3.66666 35.3333 5.5 54 5.5c46 0 82.6667 -10.6667 110 -32s41.3333 -54.3333 42 -99h38c0 56 -17.1667 97.3333 -51.5 124c-34.3333 26.6667 -80.5 40 -138.5 40
c-23.3333 0 -45.8333 -2.16669 -67.5 -6.5s-41.5 -11.6667 -59.5 -22s-32.3333 -24.1667 -43 -41.5c-10.6667 -17.3333 -16 -38 -16 -62c0 -24.6667 4.83333 -45.6667 14.5 -63c9.66666 -17.3333 22.6667 -31.1667 39 -41.5c16.3333 -10.3333 34.3333 -18.5 54 -24.5
c19.6667 -6 42.8333 -11.6667 69.5 -17l14 -3c26.6667 -5.33333 48.6667 -10.3333 66 -15s33.3333 -11 48 -19s26.3333 -18.5 35 -31.5c8.66666 -13 13 -29.5 13 -49.5c0 -21.3333 -5 -39.1667 -15 -53.5c-10 -14.3333 -23.1667 -25.5 -39.5 -33.5
s-33.6667 -13.6667 -52 -17c-18.3333 -3.33333 -37.1667 -5 -56.5 -5c-47.3333 0 -86.8333 13.3333 -118.5 40c-31.6667 26.6667 -48.8333 63.3333 -51.5 110h-38z" />
    <glyph glyph-name="Ydieresis" unicode="&#x178;" horiz-adv-x="574" 
d="M230 767v103h-44v-103h44zM388 767v103h-44v-103h44zM287 336l-258 378h-50l285 -415v-299h44v299l287 415h-49z" />
    <glyph glyph-name="florin" unicode="&#x192;" 
d="M5 -178c19.3333 -4 37 -6 53 -6c26.6667 0 49.1667 5.83333 67.5 17.5c18.3333 11.6667 33 26.1667 44 43.5c11 17.3333 19.1667 34.8333 24.5 52.5s10 36.8333 14 57.5l80 409h121l5 33h-120l32 164c7.33334 34.6667 20.1667 60 38.5 76c18.3333 16 40.5 24 66.5 24
c15.3333 0 33.3333 -2 54 -6l8 38c-17.3333 4 -37.6667 6 -61 6c-42.6667 0 -75.8333 -12.5 -99.5 -37.5c-23.6667 -25 -39.5 -56.8333 -47.5 -95.5l-33 -169h-111l-7 -33h112l-79 -404c-8 -42.6667 -20.6667 -76.3333 -38 -101c-17.3333 -24.6667 -39.6667 -37 -67 -37
c-14.6667 0 -31.3333 1.66667 -50 5z" />
    <glyph glyph-name="circumflex" unicode="&#x2c6;" horiz-adv-x="167" 
d="M63 731l-115 -140h38l97 115l98 -115h38l-116 140h-40z" />
    <glyph glyph-name="tilde" unicode="&#x2dc;" horiz-adv-x="167" 
d="M-32 602c2.66667 15.3333 7.66667 28.6666 15 40c7.33333 11.3333 17.3333 17 30 17c10.6667 0 21.1667 -2.33331 31.5 -7c10.3333 -4.66669 23.1667 -11.6667 38.5 -21l4 -3c14 -8 25.8333 -14.3333 35.5 -19c9.66667 -4.66669 19.5 -7 29.5 -7
c12 0 22.5 2.66669 31.5 8s16.8333 12.3333 23.5 21c10.6667 14 17.6667 34.3333 21 61h-29c-2 -15.3333 -6.83333 -28.6666 -14.5 -40c-7.66667 -11.3333 -17.8333 -17 -30.5 -17c-10.6667 0 -28 7 -52 21c-7.33334 4 -12.6667 7 -16 9l-7 4c-28 15.3333 -49 23 -63 23
c-22 0 -39.8333 -9 -53.5 -27c-13.6667 -18 -21.5 -39 -23.5 -63h29z" />
    <glyph glyph-name="endash" unicode="&#x2013;" horiz-adv-x="500" 
d="M0 253h500v38h-500v-38z" />
    <glyph glyph-name="emdash" unicode="&#x2014;" horiz-adv-x="1000" 
d="M130 253h740v38h-740v-38z" />
    <glyph glyph-name="quoteleft" unicode="&#x2018;" horiz-adv-x="204" 
d="M143 714c-22.6667 -8 -39 -23.5 -49 -46.5s-15 -49.5 -15 -79.5v-103h51v103h-21c0 19.3333 2.5 38.1666 7.5 56.5c5 18.3333 13.8333 30.5 26.5 36.5v33z" />
    <glyph glyph-name="quoteright" unicode="&#x2019;" horiz-adv-x="204" 
d="M125 714h-51v-103h21c0 -19.3333 -2.5 -38.1666 -7.5 -56.5c-5 -18.3333 -13.8333 -30.5 -26.5 -36.5v-33c22.6667 8.66666 39 24.3333 49 47s15 49 15 79v103z" />
    <glyph glyph-name="quotesinglbase" unicode="&#x201a;" horiz-adv-x="204" 
d="M125 103h-51v-103h21c0 -19.3333 -2.5 -38.1667 -7.5 -56.5s-13.8333 -30.5 -26.5 -36.5v-33c22.6667 8 39 23.5 49 46.5s15 49.5 15 79.5v103z" />
    <glyph glyph-name="quotedblleft" unicode="&#x201c;" horiz-adv-x="315" 
d="M128 714c-22.6667 -8 -39 -23.5 -49 -46.5s-15 -49.5 -15 -79.5v-103h51v103h-21c0 19.3333 2.5 38.1666 7.5 56.5c5 18.3333 13.8333 30.5 26.5 36.5v33zM254 714c-22.6667 -8 -39 -23.5 -49 -46.5s-15 -49.5 -15 -79.5v-103h51v103h-21c0 19.3333 2.5 38.1666 7.5 56.5
c5 18.3333 13.8333 30.5 26.5 36.5v33z" />
    <glyph glyph-name="quotedblright" unicode="&#x201d;" horiz-adv-x="315" 
d="M251 714h-51v-103h21c0 -19.3333 -2.5 -38.1666 -7.5 -56.5c-5 -18.3333 -13.8333 -30.5 -26.5 -36.5v-33c22.6667 8.66666 39 24.3333 49 47s15 49 15 79v103zM125 714h-51v-103h21c0 -19.3333 -2.5 -38.1666 -7.5 -56.5c-5 -18.3333 -13.8333 -30.5 -26.5 -36.5v-33
c22.6667 8.66666 39 24.3333 49 47s15 49 15 79v103z" />
    <glyph glyph-name="quotedblbase" unicode="&#x201e;" horiz-adv-x="315" 
d="M251 103h-51v-103h21c0 -19.3333 -2.5 -38.1667 -7.5 -56.5s-13.8333 -30.5 -26.5 -36.5v-33c22.6667 8 39 23.5 49 46.5s15 49.5 15 79.5v103zM125 103h-51v-103h21c0 -19.3333 -2.5 -38.1667 -7.5 -56.5s-13.8333 -30.5 -26.5 -36.5v-33c22.6667 8 39 23.5 49 46.5
s15 49.5 15 79.5v103z" />
    <glyph glyph-name="dagger" unicode="&#x2020;" 
d="M54 514v-33h205v-627h38v627h205v33h-205v200h-38v-200h-205z" />
    <glyph glyph-name="daggerdbl" unicode="&#x2021;" 
d="M259 714v-200h-205v-33h205v-394h-205v-33h205v-200h38v200h205v33h-205v394h205v33h-205v200h-38z" />
    <glyph glyph-name="bullet" unicode="&#x2022;" horiz-adv-x="500" 
d="M72 357c0 -24.6667 4.66666 -47.8333 14 -69.5c9.33334 -21.6667 22.1667 -40.6667 38.5 -57c16.3333 -16.3333 35.3333 -29.1667 57 -38.5c21.6667 -9.33333 44.5 -14 68.5 -14s47 4.5 69 13.5s41.3333 21.8333 58 38.5s29.5 36 38.5 58s13.5 45 13.5 69
c0 24.6667 -4.5 47.6667 -13.5 69s-21.8333 40.3333 -38.5 57s-35.8333 29.5 -57.5 38.5c-21.6667 9 -44.8333 13.5 -69.5 13.5c-24.6667 0 -47.8333 -4.5 -69.5 -13.5c-21.6667 -9 -40.6667 -21.6667 -57 -38c-16.3333 -16.3333 -29 -35.3333 -38 -57
s-13.5 -44.8333 -13.5 -69.5z" />
    <glyph glyph-name="perthousand" unicode="&#x2030;" horiz-adv-x="1074" 
d="M105 -24h40l465 738h-40zM527 -12c47.3333 0 84.3333 15.6667 111 47c26.6667 31.3333 40 72.3333 40 123c0 49.3333 -13.5 89.6667 -40.5 121s-63.8333 47 -110.5 47c-45.3333 0 -82.1667 -16 -110.5 -48c-28.3333 -32 -42.5 -72 -42.5 -120c0 -52 13 -93.3333 39 -124
s64 -46 114 -46zM525 21c-38.6667 0 -67.1667 12.5 -85.5 37.5s-27.5 58.1667 -27.5 99.5c0 40 9.83334 72.5 29.5 97.5s47.5 37.5 83.5 37.5c35.3333 0 63.3333 -13 84 -39s31 -58 31 -96c0 -40 -10.1667 -72.8333 -30.5 -98.5c-20.3333 -25.6667 -48.5 -38.5 -84.5 -38.5z
M882 -12c47.3333 0 84.5 15.6667 111.5 47c27 31.3333 40.5 72.3333 40.5 123c0 49.3333 -13.6667 89.6667 -41 121s-64.3333 47 -111 47c-45.3333 0 -82 -15.8333 -110 -47.5c-28 -31.6667 -42 -71.8333 -42 -120.5c0 -52 13 -93.3333 39 -124s63.6667 -46 113 -46zM882 21
c-38.6667 0 -67.3334 12.5 -86 37.5c-18.6667 25 -28 58.1667 -28 99.5c0 40 10 72.5 30 97.5s48 37.5 84 37.5s64 -12.8333 84 -38.5c20 -25.6667 30 -57.8333 30 -96.5c0 -40 -10 -72.8333 -30 -98.5c-20 -25.6667 -48 -38.5 -84 -38.5zM193 702
c-45.3333 0 -82.1667 -15.8333 -110.5 -47.5s-42.5 -71.5 -42.5 -119.5c0 -52 13.1667 -93.5 39.5 -124.5s64.1667 -46.5 113.5 -46.5c47.3333 0 84.3333 15.8333 111 47.5c26.6667 31.6667 40 72.8333 40 123.5c0 49.3333 -13.5 89.5 -40.5 120.5
s-63.8333 46.5 -110.5 46.5zM192 669c36 0 64 -12.8333 84 -38.5s30 -57.5 30 -95.5c0 -40 -9.83334 -73 -29.5 -99s-47.8333 -39 -84.5 -39c-38.6667 0 -67.3333 12.6667 -86 38s-28 58.6667 -28 100c0 40 9.83334 72.3333 29.5 97s47.8333 37 84.5 37z" />
    <glyph glyph-name="guilsinglleft" unicode="&#x2039;" horiz-adv-x="259" 
d="M181 121v49l-85 102l85 100v51l-114 -131v-40z" />
    <glyph glyph-name="guilsinglright" unicode="&#x203a;" horiz-adv-x="259" 
d="M78 121l114 131v40l-114 131v-51l85 -100l-85 -102v-49z" />
    </font>
</defs>
</svg>
